<svg width="21" height="20" viewBox="0 0 21 20" fill="none" xmlns="http://www.w3.org/2000/svg">
<g clip-path="url(#clip0_1_137)">
<path d="M19.5015 14.7928L16.5952 12.7629C16.3539 12.5941 16.0817 12.4746 15.7942 12.4112C15.5067 12.3477 15.2095 12.3416 14.9196 12.3932C14.6297 12.4447 14.3528 12.5529 14.1048 12.7116C13.8568 12.8703 13.6425 13.0763 13.4742 13.3179L12.8005 14.2839C11.5103 13.3935 10.3068 12.3835 9.2059 11.2674C8.08958 10.1675 7.07941 8.96488 6.18879 7.67538L7.15461 7.00169C7.3963 6.83344 7.60242 6.61915 7.76116 6.37111C7.91991 6.12306 8.02816 5.84613 8.07971 5.55618C8.13126 5.26623 8.12511 4.96895 8.0616 4.68138C7.99809 4.39381 7.87847 4.1216 7.7096 3.88033L5.68381 0.975701C5.47897 0.678977 5.20564 0.435998 4.88697 0.267345C4.5683 0.0986912 4.21368 0.00933231 3.85315 0.00683603C3.60417 0.00676414 3.35716 0.0509243 3.12363 0.13726C2.85969 0.234078 2.60664 0.358317 2.36862 0.507939L1.96758 0.790361C1.86827 0.868737 1.77396 0.953235 1.68518 1.04336C1.18368 1.55394 0.827288 2.18895 0.652679 2.88303C-0.182738 6.02105 1.88717 10.7546 5.80442 14.6722C9.09412 17.9622 13.0467 20.0059 16.1187 20.0068C16.6148 20.0101 17.1092 19.9487 17.5895 19.8244C18.2838 19.65 18.9191 19.2935 19.43 18.7918C19.5247 18.6977 19.6131 18.5975 19.6947 18.4918L19.9771 18.0887C20.121 17.8563 20.2409 17.6099 20.335 17.3532C20.4981 16.8943 20.5048 16.3943 20.3541 15.9311C20.2033 15.468 19.9036 15.0677 19.5015 14.7928Z" fill="#000D4B"/>
</g>
<defs>
<clipPath id="clip0_1_137">
<rect width="20" height="20" fill="white" transform="translate(0.469238 0.00488281)"/>
</clipPath>
</defs>
</svg>
