<svg width="30" height="30" viewBox="0 0 30 30" fill="none" xmlns="http://www.w3.org/2000/svg">
<path d="M28.8516 5.13281H3.50859C2.93906 5.13281 2.47734 5.59453 2.47734 6.16406V7.49297H1.14844C0.578906 7.49297 0.117188 7.95469 0.117188 8.52422V23.918C0.117188 24.4875 0.578906 24.9492 1.14844 24.9492H26.4914C27.0609 24.9492 27.5227 24.4875 27.5227 23.918V22.5891H28.8516C29.4211 22.5891 29.8828 22.1273 29.8828 21.5578V6.16406C29.8828 5.59453 29.4211 5.13281 28.8516 5.13281ZM26.5852 23.918C26.5852 23.9695 26.543 24.0117 26.4914 24.0117H1.14844C1.09688 24.0117 1.05469 23.9695 1.05469 23.918V8.52422C1.05469 8.47266 1.09688 8.43047 1.14844 8.43047H26.4914C26.543 8.43047 26.5852 8.47266 26.5852 8.52422V23.918ZM28.9453 21.5578C28.9453 21.6094 28.9031 21.6516 28.8516 21.6516H27.5227V8.52422C27.5227 7.95469 27.0609 7.49297 26.4914 7.49297H3.41484V6.16406C3.41484 6.1125 3.45703 6.07031 3.50859 6.07031H28.8516C28.9031 6.07031 28.9453 6.1125 28.9453 6.16406V21.5578Z" fill="#363636"/>
<path d="M24.8125 11.9512C23.8492 11.9512 23.0664 11.1684 23.0664 10.2051C23.0664 9.94727 22.8555 9.73633 22.5977 9.73633H5.04297C4.78516 9.73633 4.57422 9.94727 4.57422 10.2051C4.57422 11.1684 3.79141 11.9512 2.82813 11.9512C2.57031 11.9512 2.35938 12.1621 2.35938 12.4199V20.0207C2.35938 20.2785 2.57031 20.4895 2.82813 20.4895C3.79141 20.4895 4.57422 21.2723 4.57422 22.2355C4.57422 22.4934 4.78516 22.7043 5.04297 22.7043H22.6C22.8578 22.7043 23.0688 22.4934 23.0688 22.2355C23.0688 21.2723 23.8516 20.4895 24.8148 20.4895C25.0727 20.4895 25.2836 20.2785 25.2836 20.0207V12.4199C25.2813 12.1621 25.0727 11.9512 24.8125 11.9512ZM24.3438 19.5941C23.2398 19.7887 22.3656 20.6629 22.1711 21.7668H5.47188C5.27734 20.6629 4.40313 19.7887 3.29922 19.5941V12.8488C4.40313 12.6543 5.27734 11.7801 5.47188 10.6762H22.1711C22.3656 11.7801 23.2398 12.6543 24.3438 12.8488V19.5941Z" fill="#363636"/>
<path d="M13.8203 12.1777C11.5914 12.1777 9.77734 13.9918 9.77734 16.2207C9.77734 18.4496 11.5914 20.2637 13.8203 20.2637C16.0492 20.2637 17.8633 18.4496 17.8633 16.2207C17.8609 13.9918 16.0492 12.1777 13.8203 12.1777ZM13.8203 19.3262C12.1094 19.3262 10.7148 17.934 10.7148 16.2207C10.7148 14.5074 12.107 13.1152 13.8203 13.1152C15.5336 13.1152 16.9258 14.5074 16.9258 16.2207C16.9258 17.934 15.5312 19.3262 13.8203 19.3262Z" fill="#363636"/>
<path d="M6.47734 14.4238C5.48594 14.4238 4.67969 15.2301 4.67969 16.2215C4.67969 17.2129 5.48594 18.0191 6.47734 18.0191C7.46875 18.0191 8.275 17.2129 8.275 16.2215C8.275 15.2301 7.46875 14.4238 6.47734 14.4238ZM6.47734 17.0816C6.00391 17.0816 5.61719 16.6949 5.61719 16.2215C5.61719 15.748 6.00391 15.3613 6.47734 15.3613C6.95078 15.3613 7.3375 15.748 7.3375 16.2215C7.3375 16.6949 6.95078 17.0816 6.47734 17.0816Z" fill="#363636"/>
<path d="M21.1648 14.4238C20.1734 14.4238 19.3672 15.2301 19.3672 16.2215C19.3672 17.2129 20.1734 18.0191 21.1648 18.0191C22.1563 18.0191 22.9625 17.2129 22.9625 16.2215C22.9625 15.2301 22.1563 14.4238 21.1648 14.4238ZM21.1648 17.0816C20.6914 17.0816 20.3047 16.6949 20.3047 16.2215C20.3047 15.748 20.6914 15.3613 21.1648 15.3613C21.6383 15.3613 22.025 15.748 22.025 16.2215C22.025 16.6949 21.6383 17.0816 21.1648 17.0816Z" fill="#363636"/>
</svg>
