<svg width="30" height="30" viewBox="0 0 30 30" fill="none" xmlns="http://www.w3.org/2000/svg">
<path d="M14.4644 22.4809C13.5463 22.4163 12.66 22.1869 11.83 21.7991C11.68 21.7291 11.5081 21.7209 11.3519 21.7778C11.1963 21.8347 11.0694 21.9509 10.9991 22.1013L10.2147 23.7831C8.52844 22.8625 7.13719 21.4713 6.21688 19.785L7.89844 19.0009C8.04875 18.9309 8.16531 18.8041 8.22188 18.6481C8.27844 18.4922 8.27063 18.32 8.20063 18.17C7.81313 17.34 7.58344 16.4538 7.51875 15.535C7.4725 14.8847 6.92594 14.375 6.27438 14.375H1.875C1.53 14.375 1.25 14.655 1.25 15C1.25 22.5819 7.41813 28.75 15 28.75C15.345 28.75 15.625 28.47 15.625 28.125V23.7256C15.625 23.0741 15.1153 22.5275 14.4644 22.4809ZM14.375 27.4844C7.97844 27.1681 2.83188 22.0213 2.51563 15.6247L6.27219 15.6234C6.33281 16.4856 6.51813 17.3234 6.82406 18.1228L5.10438 18.9247C4.95406 18.9947 4.8375 19.1216 4.78094 19.2775C4.72438 19.4334 4.73188 19.6053 4.80188 19.7556C5.91938 22.1475 7.8525 24.0806 10.2444 25.1981C10.3941 25.2681 10.5659 25.2759 10.7225 25.2191C10.8784 25.1622 11.0053 25.0459 11.0753 24.8956L11.8772 23.1759C12.6766 23.4819 13.5141 23.6666 14.375 23.7253V27.4844ZM13.75 13.75V13.125C13.75 12.7803 13.4697 12.5 13.125 12.5H11.25C10.905 12.5 10.625 12.22 10.625 11.875C10.625 11.53 10.905 11.25 11.25 11.25H13.125C14.1591 11.25 15 12.0909 15 13.125V13.75C15 14.7841 14.1591 15.625 13.125 15.625H12.5C12.1553 15.625 11.875 15.9053 11.875 16.25V17.5H14.375C14.72 17.5 15 17.78 15 18.125C15 18.47 14.72 18.75 14.375 18.75H11.25C10.905 18.75 10.625 18.47 10.625 18.125V16.25C10.625 15.2159 11.4659 14.375 12.5 14.375H13.125C13.4697 14.375 13.75 14.0947 13.75 13.75ZM19.375 15.625H16.875C16.53 15.625 16.25 15.345 16.25 15V11.875C16.25 11.53 16.53 11.25 16.875 11.25C17.22 11.25 17.5 11.53 17.5 11.875V14.375H19.375V11.875C19.375 11.53 19.655 11.25 20 11.25C20.345 11.25 20.625 11.53 20.625 11.875V18.125C20.625 18.47 20.345 18.75 20 18.75C19.655 18.75 19.375 18.47 19.375 18.125V15.625ZM28.75 15C28.75 21.2181 24.5594 26.6813 18.5594 28.285C18.5053 28.2994 18.4509 28.3063 18.3975 28.3063C18.1213 28.3063 17.8688 28.1216 17.7938 27.8425C17.7047 27.5091 17.9028 27.1666 18.2363 27.0772C20.1997 26.5525 21.9484 25.5713 23.3847 24.2688L22.0713 22.9553C21.8272 22.7113 21.8272 22.3156 22.0713 22.0716C22.3153 21.8275 22.7109 21.8275 22.955 22.0716L24.2694 23.3859C26.1613 21.2906 27.3359 18.5672 27.4828 15.6253H25.625C25.28 15.6253 25 15.3453 25 15.0003C25 14.6553 25.28 14.3753 25.625 14.3753H27.4841C27.3369 11.3991 26.1434 8.69344 24.265 6.61906L22.9547 7.92938C22.8325 8.05156 22.6728 8.1125 22.5128 8.1125C22.3528 8.1125 22.1931 8.05156 22.0709 7.92938C21.8269 7.68531 21.8269 7.28969 22.0709 7.04563L23.3813 5.73531C21.3069 3.85656 18.6013 2.66313 15.625 2.51594V4.375C15.625 4.72 15.345 5 15 5C14.655 5 14.375 4.72 14.375 4.375V2.51719C11.4334 2.66406 8.70969 3.83875 6.61438 5.73063L7.92875 7.045C8.17281 7.28906 8.17281 7.68469 7.92875 7.92875C7.80656 8.05094 7.64688 8.11188 7.48688 8.11188C7.32688 8.11188 7.16719 8.05094 7.045 7.92875L5.73156 6.61531C4.42906 8.05156 3.44781 9.8 2.92313 11.7634C2.83375 12.0969 2.49094 12.295 2.15781 12.2059C1.82438 12.1169 1.62625 11.7744 1.71531 11.4406C3.31875 5.44063 8.78188 1.25 15 1.25C22.5819 1.25 28.75 7.41813 28.75 15Z" fill="#363636"/>
</svg>
