<svg width="30" height="30" viewBox="0 0 30 30" fill="none" xmlns="http://www.w3.org/2000/svg">
<g clip-path="url(#clip0_1_1308)">
<path d="M23.7124 10.3493C23.1872 10.3493 22.7039 10.5306 22.3206 10.8333C22.1706 9.73721 21.2287 8.88972 20.0921 8.88972C19.4893 8.88972 18.9412 9.12796 18.5368 9.51532C18.1905 8.71779 17.3952 8.15868 16.4718 8.15868C15.9564 8.15868 15.4812 8.3333 15.1014 8.62596V4.29486C15.1014 3.05426 14.0922 2.04492 12.8515 2.04492C11.6108 2.04492 10.6016 3.05426 10.6016 4.29486V14.7851C10.6016 15.028 10.7985 15.2249 11.0413 15.2249C11.2842 15.2249 11.4811 15.028 11.4811 14.7851V4.29486C11.4811 3.53925 12.0959 2.92449 12.8515 2.92449C13.6071 2.92449 14.2219 3.53925 14.2219 4.29486V14.1583C14.2219 14.4012 14.4188 14.5981 14.6616 14.5981C14.9045 14.5981 15.1014 14.4012 15.1014 14.1583V10.4086C15.1014 9.65295 15.7162 9.03819 16.4718 9.03819C17.2274 9.03819 17.8422 9.65289 17.8422 10.4086V14.1583C17.8422 14.4012 18.0391 14.5981 18.2819 14.5981C18.5248 14.5981 18.7217 14.4012 18.7217 14.1583V11.1397C18.7217 10.384 19.3364 9.76929 20.0921 9.76929C20.8478 9.76929 21.4625 10.384 21.4625 11.1397V14.1583C21.4625 14.4012 21.6594 14.5981 21.9022 14.5981C22.1451 14.5981 22.342 14.4012 22.342 14.1583V12.5991C22.342 11.8435 22.9568 11.2288 23.7124 11.2288C24.468 11.2288 25.0828 11.8435 25.0828 12.5991V19.0787L25.0807 20.9474C25.0594 22.4833 24.7649 23.9855 24.2051 25.4124L24.0649 25.7698C23.9713 26.0086 23.9238 26.2597 23.9238 26.5162V29.56C23.9238 29.8028 24.1207 29.9998 24.3636 29.9998C24.6065 29.9998 24.8034 29.8028 24.8034 29.56V26.5162C24.8034 26.3701 24.8304 26.2271 24.8837 26.0911L25.024 25.7336C25.6225 24.2079 25.9375 22.6016 25.9602 20.9539L25.9623 19.0792V12.5991C25.9623 11.3585 24.953 10.3493 23.7124 10.3493Z" fill="black"/>
<path d="M12.9483 25.5094C11.7084 25.2372 10.6308 24.5102 9.91416 23.4624L5.1791 16.5392C4.7477 15.9084 4.86568 15.0645 5.45358 14.5762C6.05714 14.0748 6.94609 14.1346 7.47717 14.7122L10.2611 17.7396C10.4583 17.9542 10.7614 18.0244 11.0329 17.9185C11.3045 17.8126 11.48 17.5559 11.48 17.2644V13.4456C11.48 13.2028 11.2831 13.0059 11.0402 13.0059C10.7973 13.0059 10.6004 13.2028 10.6004 13.4456V16.8092L8.12465 14.1168C7.2761 13.1941 5.85601 13.0985 4.89154 13.8996C3.95227 14.6796 3.76375 16.0279 4.45304 17.0357L9.18805 23.9588C10.003 25.1504 11.2143 25.9895 12.6116 26.3339V29.5605C12.6116 29.8034 12.8085 30.0003 13.0514 30.0003C13.2943 30.0003 13.4912 29.8034 13.4912 29.5605V26.1844C13.4912 25.8623 13.2629 25.5785 12.9483 25.5094Z" fill="black"/>
<path d="M16.892 4.89666C16.892 5.54302 16.7421 6.16112 16.4464 6.73378C16.335 6.94963 16.4195 7.2149 16.6354 7.32631C16.6999 7.35962 16.7688 7.37539 16.8368 7.37539C16.9961 7.37539 17.1498 7.28861 17.2279 7.13732C17.5887 6.43865 17.7716 5.68481 17.7716 4.89666C17.7716 3.82481 17.4312 2.80669 16.7871 1.95239C16.6409 1.75848 16.3651 1.71977 16.1711 1.86596C15.9772 2.0122 15.9385 2.28792 16.0847 2.48189C16.6129 3.18244 16.892 4.01744 16.892 4.89666Z" fill="black"/>
<path d="M8.91533 7.37412C8.98329 7.37412 9.05219 7.35829 9.11675 7.32498C9.33254 7.21357 9.41716 6.94823 9.30568 6.73245C9.00997 6.15985 8.86004 5.54175 8.86004 4.89532C8.86004 2.68104 10.6615 0.879568 12.8758 0.879568C13.5493 0.879568 14.2158 1.04979 14.8032 1.37183C15.0161 1.48864 15.2835 1.41059 15.4002 1.19762C15.517 0.984647 15.439 0.717375 15.226 0.600569C14.5094 0.207695 13.6967 0 12.8758 0C10.1765 0 7.98047 2.19605 7.98047 4.89532C7.98047 5.68353 8.16342 6.43738 8.52422 7.13599C8.60232 7.28734 8.75607 7.37412 8.91533 7.37412Z" fill="black"/>
<path d="M6.45321 8.3832C6.51648 8.3832 6.58075 8.36948 6.64167 8.34051C6.86104 8.23625 6.95433 7.9739 6.85007 7.75448C6.42377 6.85767 6.20769 5.89584 6.20769 4.89571C6.20769 3.89558 6.42383 2.93375 6.85007 2.03694C6.95433 1.81758 6.86104 1.55523 6.64167 1.45091C6.42219 1.3466 6.15996 1.43995 6.05564 1.65931C5.57288 2.67504 5.32812 3.76388 5.32812 4.89565C5.32812 6.02742 5.57288 7.11633 6.05564 8.13199C6.13099 8.29049 6.28873 8.3832 6.45321 8.3832Z" fill="black"/>
<path d="M19.1105 8.34048C19.1714 8.36945 19.2357 8.38317 19.299 8.38317C19.4634 8.38317 19.6212 8.29046 19.6965 8.13202C20.1792 7.11624 20.424 6.02739 20.424 4.89568C20.424 3.76397 20.1792 2.67513 19.6965 1.65934C19.5922 1.43992 19.3299 1.34663 19.1105 1.45089C18.8911 1.55514 18.7978 1.81749 18.902 2.03685C19.3283 2.93372 19.5444 3.89556 19.5444 4.89563C19.5444 5.89569 19.3283 6.85753 18.902 7.7544C18.7978 7.97388 18.8911 8.23622 19.1105 8.34048Z" fill="black"/>
</g>
<defs>
<clipPath id="clip0_1_1308">
<rect width="30" height="30" fill="white"/>
</clipPath>
</defs>
</svg>
