<svg width="30" height="30" viewBox="0 0 30 30" fill="none" xmlns="http://www.w3.org/2000/svg">
<g clip-path="url(#clip0_1_1325)">
<path d="M20.2336 12.7855C20.3746 12.8232 20.5177 12.8419 20.6599 12.8419C20.9435 12.8419 21.2235 12.7675 21.4758 12.6219C21.8544 12.4033 22.1253 12.0502 22.2385 11.6279C22.3517 11.2055 22.2936 10.7644 22.075 10.3857C21.8564 10.007 21.5033 9.73612 21.081 9.62291C20.6586 9.50965 20.2175 9.5679 19.8388 9.78645C19.4601 10.0051 19.1892 10.3581 19.076 10.7804C18.9628 11.2028 19.021 11.644 19.2396 12.0227C19.4583 12.4014 19.8112 12.6723 20.2336 12.7855ZM19.925 11.008C19.9774 10.8123 20.1028 10.6488 20.2782 10.5476C20.395 10.4802 20.5247 10.4457 20.6561 10.4457C20.7219 10.4457 20.7882 10.4544 20.8535 10.4719C21.0491 10.5243 21.2125 10.6498 21.3138 10.8251C21.415 11.0005 21.4419 11.2048 21.3895 11.4004C21.3371 11.596 21.2117 11.7594 21.0363 11.8607C20.8609 11.962 20.6566 11.9889 20.4611 11.9364C20.2654 11.884 20.102 11.7586 20.0008 11.5832C19.8995 11.4079 19.8726 11.2035 19.925 11.008Z" fill="black"/>
<path d="M19.3641 5.69128C18.9128 4.90958 17.9098 4.64069 17.1278 5.09204C16.7491 5.31065 16.4783 5.66368 16.365 6.08608C16.2519 6.50848 16.31 6.94963 16.5286 7.32827C16.7473 7.70696 17.1003 7.97784 17.5226 8.09104C17.9468 8.2046 18.3875 8.1453 18.7648 7.92745C19.5484 7.47516 19.8165 6.47491 19.3641 5.69128ZM18.3254 7.16631C18.15 7.26762 17.9457 7.29452 17.7502 7.24208C17.3455 7.13368 17.1056 6.71842 17.2141 6.31354C17.2666 6.11795 17.392 5.95448 17.5673 5.85323C17.9292 5.6444 18.3939 5.76868 18.603 6.13073C18.812 6.49295 18.689 6.95631 18.3254 7.16631Z" fill="black"/>
<path d="M27.4632 13.5797H24.9591L25.3972 13.3268C25.8882 13.0431 26.0571 12.4124 25.7736 11.9209L21.7558 4.96234C21.6344 4.75211 21.3656 4.68027 21.1555 4.8015C20.9453 4.92285 20.8733 5.19162 20.9947 5.40179L25.0123 12.3602C25.0538 12.4322 25.0292 12.5244 24.9576 12.5658L23.2015 13.5798H18.122L14.6153 7.50543C14.387 7.10839 13.8778 6.97134 13.4797 7.20033L6.02332 11.5054C5.62641 11.7349 5.48994 12.2445 5.71922 12.6411L6.26109 13.5798H4.46385L3.1834 11.3621C3.14191 11.2902 3.16652 11.1979 3.23807 11.1566L18.9164 2.10431C18.9886 2.06259 19.081 2.08726 19.1226 2.15927L21.2032 5.763C21.3246 5.97311 21.5933 6.04507 21.8036 5.92378C22.0137 5.80237 22.0857 5.5336 21.9643 5.32343L19.8837 1.71988C19.6007 1.2291 18.9703 1.05965 18.4777 1.34271L9.24873 6.67134L14.1984 0.720446C14.3536 0.533825 14.3282 0.256794 14.1415 0.101579C13.955 -0.0535772 13.6779 -0.0281475 13.5227 0.158415L7.04924 7.94125L2.79844 10.3956C2.30748 10.6793 2.13861 11.3099 2.42215 11.8014L3.44895 13.5798H0.732422C0.328535 13.5798 0 13.9083 0 14.3122V16.3697C0 16.7736 0.328535 17.1021 0.732422 17.1021H1.83246L3.02383 23.9891C3.06086 24.2029 3.24654 24.3537 3.45637 24.3537C3.48127 24.3537 3.5064 24.3516 3.53178 24.3472C3.77096 24.3059 3.93127 24.0784 3.8899 23.8393L2.72449 17.1022H25.4711L23.413 28.9997C23.4009 29.0701 23.3402 29.1212 23.2687 29.1212H4.92691C4.85543 29.1212 4.79479 29.0701 4.7826 28.9997L3.75973 23.0868C3.71836 22.8476 3.49084 22.6879 3.25178 22.7287C3.0126 22.77 2.85228 22.9975 2.89365 23.2366L3.91652 29.1494C4.00178 29.6423 4.4267 30 4.92691 30H23.2687C23.769 30 24.1939 29.6423 24.2791 29.1494L26.3631 17.1021H27.4632C27.8671 17.1021 28.1956 16.7736 28.1956 16.3697V14.3121C28.1957 13.9083 27.8671 13.5797 27.4632 13.5797ZM6.50402 12.2427L13.8776 7.98543L17.1072 13.5798H7.27576L6.50402 12.2427ZM27.3168 16.2232H0.878906V14.4586H27.3168V16.2232Z" fill="black"/>
<path d="M15.014 18.8404C14.8224 18.5086 14.4794 18.3105 14.0963 18.3105C13.7132 18.3105 13.3701 18.5086 13.1786 18.8404L11.8513 21.1393L11.7003 20.6363C11.6306 20.4039 11.3859 20.2721 11.153 20.3418C10.9206 20.4116 10.7887 20.6566 10.8585 20.8891L11.2706 22.2615C11.3116 22.3975 11.4019 22.5115 11.5245 22.5824L11.5253 22.583C11.5296 22.5854 11.534 22.5871 11.5384 22.5894C11.6579 22.6543 11.7947 22.6748 11.9314 22.6426L13.3256 22.3135C13.5618 22.2577 13.7081 22.0211 13.6523 21.7848C13.5965 21.5486 13.3599 21.4027 13.1236 21.4581L12.6126 21.5787L13.9398 19.2799C14.0093 19.1597 14.1827 19.1583 14.253 19.2799L15.0954 20.7389C15.2168 20.9491 15.4856 21.021 15.6957 20.8997C15.9058 20.7784 15.9779 20.5096 15.8565 20.2995L15.014 18.8404Z" fill="black"/>
<path d="M10.3494 23.7412L9.50698 25.2003C9.31538 25.532 9.31538 25.9282 9.50698 26.2599C9.69853 26.5917 10.0416 26.7898 10.4247 26.7898H13.0792L12.7192 27.172C12.5527 27.3487 12.5611 27.6269 12.7377 27.7933C12.9152 27.9603 13.1932 27.9506 13.359 27.7747L14.3411 26.7319C14.543 26.5175 14.5432 26.1834 14.3411 25.9688L13.359 24.926C13.1925 24.7493 12.9145 24.7411 12.7377 24.9074C12.5611 25.0738 12.5527 25.352 12.7192 25.5287L13.0793 25.911H10.4247C10.2845 25.911 10.1986 25.7602 10.2681 25.6398L11.1105 24.1807C11.2319 23.9706 11.1599 23.7018 10.9497 23.5804C10.7393 23.4591 10.4707 23.5311 10.3494 23.7412Z" fill="black"/>
<path d="M18.3983 22.695C18.454 22.4588 18.3078 22.2221 18.0716 22.1664L16.6772 21.8372C16.3907 21.7697 16.1015 21.9367 16.0166 22.2189L15.6046 23.5908C15.5348 23.8232 15.6667 24.0683 15.899 24.138C16.1305 24.2078 16.3763 24.0768 16.4464 23.8436L16.5974 23.3407L17.9246 25.6396C17.9942 25.7601 17.9082 25.9108 17.7681 25.9108H16.0833C15.8405 25.9108 15.6438 26.1075 15.6438 26.3502C15.6438 26.593 15.8405 26.7897 16.0833 26.7897H17.7681C18.1512 26.7897 18.4943 26.5916 18.6858 26.2598C18.8774 25.9281 18.8774 25.5319 18.6858 25.2002L17.3585 22.9012L17.8696 23.0219C18.1056 23.0771 18.3425 22.9312 18.3983 22.695Z" fill="black"/>
</g>
<defs>
<clipPath id="clip0_1_1325">
<rect width="30" height="30" fill="white"/>
</clipPath>
</defs>
</svg>
