<svg width="30" height="30" viewBox="0 0 30 30" fill="none" xmlns="http://www.w3.org/2000/svg">
<g clip-path="url(#clip0_1_1372)">
<path d="M26.7197 6.09375C27.276 6.09375 27.8197 5.9288 28.2823 5.61976C28.7448 5.31072 29.1053 4.87147 29.3181 4.35755C29.531 3.84363 29.5867 3.27813 29.4782 2.73256C29.3697 2.18699 29.1018 1.68585 28.7085 1.29251C28.3151 0.899178 27.814 0.631314 27.2684 0.522793C26.7228 0.414272 26.1573 0.469969 25.6434 0.68284C25.1295 0.895712 24.6903 1.2562 24.3812 1.71871C24.0722 2.18122 23.9072 2.72499 23.9072 3.28125C23.9072 3.8789 24.0995 4.4607 24.4557 4.94063L18.8307 10.9078C17.9136 10.0386 16.7286 9.50638 15.4697 9.39844V6.49688C15.9116 6.38279 16.2967 6.11146 16.5528 5.73375C16.8089 5.35604 16.9185 4.89788 16.861 4.44516C16.8035 3.99243 16.5829 3.57622 16.2405 3.27454C15.898 2.97286 15.4573 2.80642 15.001 2.80642C14.5446 2.80642 14.1039 2.97286 13.7615 3.27454C13.4191 3.57622 13.1984 3.99243 13.1409 4.44516C13.0834 4.89788 13.193 5.35604 13.4491 5.73375C13.7053 6.11146 14.0904 6.38279 14.5322 6.49688V9.39844C13.2557 9.5042 12.0542 10.0453 11.1291 10.9313L6.96191 6.76875C7.61034 6.06937 7.96794 5.14921 7.96192 4.1955C7.95591 3.24179 7.58674 2.3262 6.92953 1.63506C6.27233 0.943914 5.37648 0.529146 4.42428 0.475157C3.47208 0.421168 2.53509 0.732016 1.80397 1.34444C1.07286 1.95687 0.602558 2.82486 0.48878 3.77178C0.375002 4.71869 0.626294 5.67339 1.19152 6.44158C1.75675 7.20977 2.59343 7.73373 3.53132 7.90685C4.4692 8.07997 5.43781 7.88922 6.24003 7.37344L10.5057 11.6344C9.86939 12.4754 9.48569 13.4802 9.39941 14.5313H6.49785C6.38376 14.0894 6.11243 13.7043 5.73472 13.4482C5.35701 13.192 4.89885 13.0824 4.44613 13.1399C3.9934 13.1974 3.57719 13.4181 3.27551 13.7605C2.97383 14.1029 2.80739 14.5436 2.80739 15C2.80739 15.4564 2.97383 15.8971 3.27551 16.2395C3.57719 16.5819 3.9934 16.8026 4.44613 16.8601C4.89885 16.9176 5.35701 16.808 5.73472 16.5518C6.11243 16.2957 6.38376 15.9106 6.49785 15.4688H9.39941C9.48719 16.5312 9.8776 17.5463 10.5244 18.3938L4.89941 24.4031C4.31304 23.9938 3.5942 23.8198 2.88553 23.9158C2.17687 24.0117 1.53018 24.3706 1.0738 24.9212C0.617414 25.4717 0.384692 26.1738 0.421814 26.8879C0.458935 27.6021 0.763187 28.2762 1.27419 28.7765C1.7852 29.2768 2.46561 29.5667 3.1804 29.5886C3.89519 29.6106 4.59213 29.3631 5.1329 28.8951C5.67367 28.4272 6.01875 27.773 6.09967 27.0625C6.18059 26.3519 5.99143 25.6369 5.56972 25.0594L11.1947 19.0922C12.1023 19.9652 13.2786 20.5054 14.5322 20.625V23.5266C14.0904 23.6407 13.7053 23.912 13.4491 24.2897C13.193 24.6674 13.0834 25.1256 13.1409 25.5783C13.1984 26.031 13.4191 26.4472 13.7615 26.7489C14.1039 27.0506 14.5446 27.217 15.001 27.217C15.4573 27.217 15.898 27.0506 16.2405 26.7489C16.5829 26.4472 16.8035 26.031 16.861 25.5783C16.9185 25.1256 16.8089 24.6674 16.5528 24.2897C16.2967 23.912 15.9116 23.6407 15.4697 23.5266V20.625C16.6343 20.5292 17.7394 20.0701 18.6291 19.3125L22.8244 23.5313C22.32 24.1737 22.0416 24.9645 22.0322 25.7813C22.0322 26.5229 22.2522 27.248 22.6642 27.8646C23.0763 28.4813 23.6619 28.962 24.3472 29.2458C25.0324 29.5296 25.7864 29.6039 26.5138 29.4592C27.2412 29.3145 27.9094 28.9573 28.4339 28.4329C28.9583 27.9085 29.3155 27.2403 29.4602 26.5128C29.6049 25.7854 29.5306 25.0314 29.2468 24.3462C28.9629 23.661 28.4823 23.0753 27.8656 22.6632C27.2489 22.2512 26.5239 22.0313 25.7822 22.0313C24.9494 22.0302 24.1404 22.3092 23.4853 22.8234L19.2666 18.6281C20.0412 17.7445 20.5169 16.6388 20.626 15.4688H23.5275C23.6416 15.9106 23.913 16.2957 24.2907 16.5518C24.6684 16.808 25.1265 16.9176 25.5793 16.8601C26.032 16.8026 26.4482 16.5819 26.7499 16.2395C27.0516 15.8971 27.218 15.4564 27.218 15C27.218 14.5436 27.0516 14.1029 26.7499 13.7605C26.4482 13.4181 26.032 13.1974 25.5793 13.1399C25.1265 13.0824 24.6684 13.192 24.2907 13.4482C23.913 13.7043 23.6416 14.0894 23.5275 14.5313H20.626C20.5382 13.4688 20.1478 12.4537 19.501 11.6063L25.126 5.59688C25.5947 5.91998 26.1504 6.09324 26.7197 6.09375ZM4.21972 7.03125C3.66346 7.03125 3.11969 6.8663 2.65718 6.55726C2.19467 6.24822 1.83418 5.80897 1.62131 5.29505C1.40844 4.78113 1.35274 4.21563 1.46126 3.67006C1.56978 3.12449 1.83765 2.62335 2.23098 2.23001C2.62432 1.83668 3.12546 1.56881 3.67103 1.46029C4.2166 1.35177 4.7821 1.40747 5.29602 1.62034C5.80994 1.83321 6.24919 2.1937 6.55823 2.65621C6.86727 3.11872 7.03222 3.66249 7.03222 4.21875C7.03222 4.96467 6.7359 5.68004 6.20846 6.20749C5.68101 6.73494 4.96564 7.03125 4.21972 7.03125ZM4.68847 15.9375C4.50305 15.9375 4.3218 15.8825 4.16762 15.7795C4.01345 15.6765 3.89329 15.5301 3.82233 15.3588C3.75138 15.1875 3.73281 14.999 3.76899 14.8171C3.80516 14.6352 3.89445 14.4682 4.02556 14.3371C4.15667 14.206 4.32372 14.1167 4.50557 14.0805C4.68743 14.0443 4.87593 14.0629 5.04724 14.1339C5.21854 14.2048 5.36496 14.325 5.46797 14.4792C5.57099 14.6333 5.62597 14.8146 5.62597 15C5.62597 15.2486 5.5272 15.4871 5.35138 15.6629C5.17557 15.8387 4.93711 15.9375 4.68847 15.9375ZM3.28222 28.5938C2.91138 28.5938 2.54887 28.4838 2.24053 28.2778C1.93218 28.0717 1.69186 27.7789 1.54995 27.4363C1.40803 27.0937 1.3709 26.7167 1.44325 26.353C1.5156 25.9892 1.69417 25.6551 1.9564 25.3929C2.21862 25.1307 2.55271 24.9521 2.91643 24.8798C3.28014 24.8074 3.65714 24.8446 3.99975 24.9865C4.34236 25.1284 4.6352 25.3687 4.84123 25.6771C5.04725 25.9854 5.15722 26.3479 5.15722 26.7188C5.15722 27.216 4.95968 27.6929 4.60805 28.0446C4.25642 28.3962 3.7795 28.5938 3.28222 28.5938ZM25.7822 22.9688C26.3385 22.9688 26.8822 23.1337 27.3448 23.4427C27.8073 23.7518 28.1678 24.191 28.3806 24.705C28.5935 25.2189 28.6492 25.7844 28.5407 26.3299C28.4322 26.8755 28.1643 27.3767 27.771 27.77C27.3776 28.1633 26.8765 28.4312 26.3309 28.5397C25.7853 28.6482 25.2198 28.5925 24.7059 28.3797C24.192 28.1668 23.7528 27.8063 23.4437 27.3438C23.1347 26.8813 22.9697 26.3375 22.9697 25.7813C22.9697 25.0353 23.266 24.32 23.7935 23.7925C24.3209 23.2651 25.0363 22.9688 25.7822 22.9688ZM25.3135 14.0625C25.4989 14.0625 25.6801 14.1175 25.8343 14.2205C25.9885 14.3235 26.1087 14.4699 26.1796 14.6412C26.2506 14.8125 26.2691 15.001 26.233 15.1829C26.1968 15.3648 26.1075 15.5318 25.9764 15.6629C25.8453 15.794 25.6782 15.8833 25.4964 15.9195C25.3145 15.9557 25.126 15.9371 24.9547 15.8661C24.7834 15.7952 24.637 15.675 24.534 15.5208C24.431 15.3667 24.376 15.1854 24.376 15C24.376 14.7514 24.4747 14.5129 24.6506 14.3371C24.8264 14.1613 25.0648 14.0625 25.3135 14.0625ZM14.0635 4.6875C14.0635 4.50208 14.1185 4.32083 14.2215 4.16665C14.3245 4.01248 14.4709 3.89232 14.6422 3.82136C14.8135 3.75041 15.002 3.73184 15.1839 3.76802C15.3657 3.80419 15.5328 3.89348 15.6639 4.02459C15.795 4.1557 15.8843 4.32275 15.9205 4.5046C15.9566 4.68646 15.9381 4.87496 15.8671 5.04627C15.7962 5.21757 15.676 5.36399 15.5218 5.467C15.3676 5.57002 15.1864 5.625 15.001 5.625C14.7523 5.625 14.5139 5.52623 14.3381 5.35041C14.1622 5.1746 14.0635 4.93614 14.0635 4.6875ZM15.9385 25.3125C15.9385 25.4979 15.8835 25.6792 15.7805 25.8333C15.6775 25.9875 15.531 26.1077 15.3597 26.1786C15.1884 26.2496 14.9999 26.2682 14.8181 26.232C14.6362 26.1958 14.4692 26.1065 14.3381 25.9754C14.2069 25.8443 14.1177 25.6773 14.0815 25.4954C14.0453 25.3135 14.0639 25.125 14.1348 24.9537C14.2058 24.7824 14.326 24.636 14.4801 24.533C14.6343 24.43 14.8156 24.375 15.001 24.375C15.2496 24.375 15.4881 24.4738 15.6639 24.6496C15.8397 24.8254 15.9385 25.0639 15.9385 25.3125ZM19.6885 15C19.6885 15.9271 19.4136 16.8334 18.8985 17.6042C18.3834 18.3751 17.6513 18.9759 16.7948 19.3307C15.9383 19.6855 14.9958 19.7783 14.0865 19.5974C13.1772 19.4166 12.342 18.9701 11.6864 18.3146C11.0308 17.659 10.5844 16.8238 10.4035 15.9145C10.2227 15.0052 10.3155 14.0627 10.6703 13.2062C11.0251 12.3496 11.6259 11.6176 12.3967 11.1025C13.1676 10.5874 14.0739 10.3125 15.001 10.3125C16.2442 10.3125 17.4365 10.8064 18.3155 11.6854C19.1946 12.5645 19.6885 13.7568 19.6885 15ZM26.7197 1.40625C27.0906 1.40625 27.4531 1.51622 27.7614 1.72225C28.0698 1.92827 28.3101 2.22111 28.452 2.56372C28.5939 2.90633 28.631 3.28333 28.5587 3.64705C28.4863 4.01076 28.3078 4.34485 28.0455 4.60708C27.7833 4.8693 27.4492 5.04788 27.0855 5.12022C26.7218 5.19257 26.3448 5.15544 26.0022 5.01353C25.6596 4.87161 25.3667 4.63129 25.1607 4.32295C24.9547 4.0146 24.8447 3.65209 24.8447 3.28125C24.8447 2.78397 25.0423 2.30706 25.3939 1.95543C25.7455 1.6038 26.2224 1.40625 26.7197 1.40625Z" fill="#363636"/>
</g>
<defs>
<clipPath id="clip0_1_1372">
<rect width="30" height="30" fill="white"/>
</clipPath>
</defs>
</svg>
