<svg width="30" height="30" viewBox="0 0 30 30" fill="none" xmlns="http://www.w3.org/2000/svg">
<path d="M25.65 11.4504C26.5032 10.6148 27 9.47338 27 8.25C27 5.76879 24.9814 3.75 22.5 3.75C21.6802 3.75 20.8736 3.97535 20.1665 4.40186C19.9302 4.54471 19.854 4.8518 19.9966 5.0884C20.1391 5.325 20.4468 5.40041 20.6831 5.25832C21.2344 4.9258 21.8623 4.75002 22.5 4.75002C24.4297 4.75002 26 6.3201 26 8.25C26 9.43846 25.4048 10.5339 24.4058 11.1819C23.5669 11.7322 22.5034 11.8908 21.5322 11.6142C21.2695 11.5385 20.9902 11.6919 20.914 11.9575C20.8383 12.2231 20.9921 12.4997 21.2578 12.5756C21.6621 12.6913 22.0801 12.7499 22.5 12.7499C23.2862 12.7499 24.0462 12.5355 24.7209 12.1482C27.2876 13.0782 29 15.5016 29 18.25V20.75H24.4407C24.0865 17.4104 21.9855 14.4879 18.9209 13.1003C19.8961 12.1073 20.5 10.7484 20.5 9.25002C20.5 6.21727 18.0327 3.75 15 3.75C11.9673 3.75 9.49998 6.21727 9.49998 9.25002C9.49998 10.7489 10.1042 12.1082 11.08 13.1013C10.0486 13.5698 9.09205 14.2254 8.28076 15.0321C6.72551 16.5918 5.7791 18.5936 5.55445 20.7501H1.00002V18.2501C1.00002 16.5186 1.67631 14.8861 2.90238 13.6549C3.57732 12.9842 4.39904 12.4726 5.28381 12.151C5.95863 12.5367 6.71631 12.75 7.5 12.75C7.91994 12.75 8.33789 12.6914 8.74219 12.5757C9.00779 12.4997 9.1616 12.2231 9.08596 11.9575C9.00979 11.6919 8.73047 11.5388 8.46779 11.6143C7.49707 11.8914 6.43412 11.7329 5.59184 11.1807C4.59527 10.5339 4.00002 9.43852 4.00002 8.25C4.00002 6.3201 5.57033 4.75002 7.5 4.75002C8.13768 4.75002 8.76562 4.9258 9.31687 5.25832C9.55418 5.40041 9.86033 5.32424 10.0034 5.0884C10.146 4.85186 10.0698 4.54471 9.8335 4.40186C9.12644 3.97535 8.31984 3.75 7.5 3.75C5.01855 3.75 3 5.76879 3 8.25C3 9.47244 3.496 10.613 4.34672 11.4479C3.55377 11.8165 2.82141 12.3254 2.19533 12.9473C0.779766 14.3691 0 16.2522 0 18.25V21.25C0 21.5262 0.223652 21.75 0.49998 21.75H5.49996V25.75C5.49996 26.0262 5.72361 26.25 5.99994 26.25H23.9999C24.2763 26.25 24.4999 26.0261 24.4999 25.75V21.75H29.4999C29.7763 21.75 29.9999 21.5261 29.9999 21.25V18.25C30 15.2937 28.2819 12.6638 25.65 11.4504ZM10.5 9.25002C10.5 6.76881 12.5186 4.75002 15 4.75002C17.4814 4.75002 19.5 6.76881 19.5 9.25002C19.5 11.7312 17.4814 13.75 15 13.75C12.5186 13.75 10.5 11.7312 10.5 9.25002ZM23.5 25.25H6.49998V21.75C6.49998 19.4829 7.38375 17.3479 8.98728 15.7395C9.83203 14.8993 10.8561 14.2475 11.9541 13.8259C12.8269 14.4087 13.8741 14.75 15 14.75C16.1278 14.75 17.1768 14.4077 18.0504 13.8231C21.3186 15.0789 23.5 18.2297 23.5 21.75V25.25Z" fill="#363636"/>
</svg>
