<svg width="30" height="30" viewBox="0 0 30 30" fill="none" xmlns="http://www.w3.org/2000/svg">
<path d="M28.861 11.032H22.8343V9.20058H27.053C27.3845 9.20058 27.6557 8.92587 27.6557 8.59012V2.48547C27.6557 2.14971 27.3845 1.875 27.053 1.875H17.4102C17.0787 1.875 16.8075 2.14971 16.8075 2.48547V8.59012C16.8075 8.92587 17.0787 9.20058 17.4102 9.20058H21.6289V11.032H1.13783C0.806362 11.032 0.535156 11.3067 0.535156 11.6424V14.0843C0.535156 14.4201 0.806362 14.6948 1.13783 14.6948H1.74051V27.5145C1.74051 27.8503 2.01172 28.125 2.34319 28.125H27.6557C27.9872 28.125 28.2584 27.8503 28.2584 27.5145V14.6948H28.861C29.1925 14.6948 29.4637 14.4201 29.4637 14.0843V11.6424C29.4637 11.3067 29.1925 11.032 28.861 11.032ZM18.0128 7.97965V3.09593H26.4503V7.97965H18.0128ZM27.053 26.9041H2.94587V14.6948H27.053V26.9041ZM28.2584 13.4738H27.6557H2.34319H1.74051V12.2529H28.2584V13.4738Z" fill="black"/>
<path d="M5.95815 24.9113H24.0385C24.37 24.9113 24.6412 24.6358 24.6412 24.299V16.9521C24.6412 16.6154 24.37 16.3398 24.0385 16.3398H5.95815C5.62667 16.3398 5.35547 16.6154 5.35547 16.9521V24.299C5.35547 24.6358 5.62667 24.9113 5.95815 24.9113ZM6.56083 17.5643H23.4358V23.6868H6.56083V17.5643Z" fill="black"/>
</svg>
