<svg width="35" height="30" viewBox="0 0 35 30" fill="none" xmlns="http://www.w3.org/2000/svg">
<path d="M21.115 29.9995C20.6453 29.9995 20.2774 29.6316 20.2774 29.1619V20.2256V19.9027L20.0491 20.131L18.8058 21.3743L18.8033 21.3768L18.8009 21.3794C18.6575 21.5388 18.4565 21.6266 18.235 21.6266C18.0108 21.6266 17.7977 21.537 17.635 21.3743L17.6326 21.3718L17.6299 21.3695C17.4764 21.2313 17.3887 21.0378 17.3831 20.8249C17.3771 20.5962 17.4689 20.3697 17.635 20.2036L20.5102 17.3284L20.5127 17.3259L20.515 17.3233C20.6585 17.1639 20.8595 17.0762 21.081 17.0762C21.3052 17.0762 21.5183 17.1658 21.681 17.3284L24.6351 20.2048L24.637 20.2067L24.6389 20.2084C24.7925 20.3467 24.8802 20.5401 24.8858 20.753C24.8918 20.9817 24.8 21.2082 24.6338 21.3743C24.475 21.5332 24.2828 21.6071 24.029 21.6071C23.7753 21.6071 23.5831 21.5332 23.4242 21.3743L22.1809 20.131L21.9526 19.9027V20.2256V29.1619C21.9526 29.6316 21.5847 29.9995 21.115 29.9995Z" fill="#363636"/>
<path d="M13.5838 29.9996C13.33 29.9996 13.1378 29.9257 12.979 29.7668L10.1038 26.8917L10.1013 26.8892L10.0987 26.8868C9.94511 26.7486 9.85745 26.5552 9.85184 26.3422C9.84583 26.1135 9.93766 25.887 10.1038 25.7209L10.1063 25.7184L10.1086 25.7158C10.2521 25.5565 10.4531 25.4687 10.6746 25.4687C10.8988 25.4687 11.1119 25.5583 11.2745 25.7209L12.5178 26.9642L12.7462 27.1925V26.8697V17.9333C12.7462 17.4636 13.1141 17.0957 13.5838 17.0957C14.0535 17.0957 14.4214 17.4636 14.4214 17.9333V26.8697V27.1925L14.6497 26.9642L15.893 25.7209C16.0557 25.5583 16.2687 25.4687 16.4929 25.4687C16.7145 25.4687 16.9155 25.5565 17.0589 25.7158L17.0636 25.721L17.0688 25.7257C17.2224 25.864 17.3101 26.0574 17.3157 26.2704C17.3217 26.4991 17.2299 26.7255 17.0637 26.8917L14.1886 29.7668C14.0297 29.9257 13.8376 29.9996 13.5838 29.9996Z" fill="#363636"/>
<path d="M28.5792 20.9855H27.4913C27.0216 20.9855 26.6537 20.6176 26.6537 20.1479C26.6537 19.6782 27.0216 19.3103 27.4913 19.3103H28.5792C31.031 19.3103 33.0257 17.3156 33.0257 14.8638C33.0257 12.5945 31.3218 10.7005 29.062 10.4572C28.8452 10.4255 28.6367 10.3019 28.4893 10.1178C28.3527 9.94704 28.2906 9.70937 28.323 9.48205C28.3643 9.15251 28.4021 8.80165 28.4021 8.45293C28.4021 6.65082 27.6948 4.95106 26.4105 3.66677C25.1262 2.38249 23.4265 1.6752 21.6244 1.6752C18.9972 1.6752 16.5856 3.2309 15.4805 5.63853L15.4795 5.64069L15.4786 5.64288C15.3496 5.95245 15.0558 6.15248 14.7302 6.15248C14.6451 6.15248 14.5605 6.13865 14.4787 6.11139C14.001 5.95214 13.4769 5.8714 12.9211 5.8714C10.4844 5.8714 8.33833 7.50973 7.70219 9.85552C7.61173 10.2172 7.28137 10.468 6.89815 10.468C6.85448 10.468 6.81019 10.4647 6.76646 10.4581C6.56028 10.4173 6.35695 10.4173 6.1217 10.4173C3.66989 10.4173 1.6752 12.412 1.6752 14.8638C1.6752 17.3156 3.66989 19.3103 6.1217 19.3103H7.20962C7.67929 19.3103 8.04721 19.6782 8.04721 20.1479C8.04721 20.6176 7.67929 20.9855 7.20962 20.9855H6.1217C4.48499 20.9855 2.94728 20.3492 1.79181 19.1937C0.636343 18.0382 0 16.5005 0 14.8638C0 11.4883 2.72875 8.74209 6.08286 8.74209H6.19942H6.28996L6.3236 8.65802C6.84999 7.34202 7.74836 6.22443 8.92157 5.42606C10.1039 4.62148 11.4869 4.1962 12.9211 4.1962C13.3385 4.1962 13.7618 4.23469 14.1794 4.3106L14.2723 4.3275L14.3193 4.24556C15.8212 1.6268 18.6204 0 21.6244 0C26.2853 0 30.0773 3.79197 30.0773 8.45293V8.84147V8.9448L30.1773 8.97088C32.8407 9.66569 34.7009 12.0889 34.7009 14.8638C34.7009 16.5005 34.0645 18.0382 32.9091 19.1937C31.7536 20.3492 30.2159 20.9855 28.5792 20.9855Z" fill="#363636"/>
</svg>
