<svg width="181" height="54" viewBox="0 0 181 54" fill="none" xmlns="http://www.w3.org/2000/svg">
<g clip-path="url(#clip0_1_4538)">
<path d="M173.924 53.6665H7.26367C3.59707 53.6665 0.597168 50.6666 0.597168 47V7.00097C0.597168 3.33437 3.59707 0.334473 7.26367 0.334473H173.924C177.59 0.334473 180.59 3.33437 180.59 7.00097V47C180.59 50.6666 177.59 53.6665 173.924 53.6665Z" fill="#100F0D"/>
<path d="M173.924 0.334473H7.26367C3.59707 0.334473 0.597168 3.33437 0.597168 7.00097V47C0.597168 50.6666 3.59707 53.6665 7.26367 53.6665H173.924C177.59 53.6665 180.59 50.6666 180.59 47V7.00097C180.59 3.33437 177.59 0.334473 173.924 0.334473ZM173.924 1.40057C177.012 1.40057 179.524 3.91307 179.524 7.00097V47C179.524 50.0879 177.012 52.6004 173.924 52.6004H7.26367C4.17577 52.6004 1.66437 50.0879 1.66437 47V7.00097C1.66437 3.91307 4.17577 1.40057 7.26367 1.40057H173.924Z" fill="#A2A2A1"/>
<path d="M143.172 40.3333H145.66V23.6643H143.172V40.3333ZM165.581 29.6693L162.73 36.8957H162.644L159.684 29.6693H157.004L161.444 39.7693L158.912 45.3878H161.507L168.348 29.6698L165.581 29.6693ZM151.471 38.4399C150.658 38.4399 149.521 38.032 149.521 37.0243C149.521 35.7378 150.937 35.2446 152.158 35.2446C153.251 35.2446 153.767 35.48 154.431 35.8019C154.238 37.3461 152.909 38.4399 151.471 38.4399ZM151.773 29.3047C149.972 29.3047 148.106 30.0984 147.334 31.8568L149.542 32.7786C150.014 31.8568 150.893 31.5568 151.816 31.5568C153.102 31.5568 154.41 32.3281 154.431 33.701V33.8724C153.981 33.615 153.015 33.2292 151.837 33.2292C149.456 33.2292 147.033 34.5369 147.033 36.9816C147.033 39.2118 148.985 40.6487 151.172 40.6487C152.844 40.6487 153.767 39.8981 154.345 39.0186H154.431V40.306H156.834V33.915C156.834 30.9557 154.623 29.3047 151.773 29.3047ZM136.397 31.6984H132.858V25.9851H136.397C138.257 25.9851 139.313 27.5247 139.313 28.8417C139.313 30.1334 138.257 31.6984 136.397 31.6984ZM136.333 23.6647H130.371V40.3337H132.858V34.0188H136.333C139.09 34.0188 141.801 32.023 141.801 28.8423C141.801 25.6622 139.09 23.6647 136.333 23.6647ZM103.826 38.4427C102.107 38.4427 100.669 37.0031 100.669 35.0277C100.669 33.0293 102.107 31.5694 103.826 31.5694C105.523 31.5694 106.854 33.0294 106.854 35.0277C106.854 37.0031 105.523 38.4427 103.826 38.4427ZM106.683 30.6024H106.597C106.038 29.9367 104.964 29.3352 103.611 29.3352C100.775 29.3352 98.1764 31.8273 98.1764 35.0277C98.1764 38.2063 100.775 40.6765 103.611 40.6765C104.964 40.6765 106.038 40.0749 106.597 39.388H106.683V40.2036C106.683 42.3739 105.523 43.5332 103.654 43.5332C102.129 43.5332 101.184 42.4379 100.797 41.5144L98.6281 42.4164C99.2505 43.9194 100.904 45.7674 103.654 45.7674C106.576 45.7674 109.046 44.0486 109.046 39.8597V29.6787H106.683L106.683 30.6024ZM110.765 40.3328H113.255V23.6638H110.765V40.3328ZM116.929 34.834C116.865 32.6429 118.627 31.5262 119.893 31.5262C120.882 31.5262 121.719 32.0204 121.999 32.7288L116.929 34.834ZM124.661 32.9434C124.189 31.6768 122.75 29.3352 119.807 29.3352C116.885 29.3352 114.458 31.6335 114.458 35.0059C114.458 38.185 116.865 40.6766 120.086 40.6766C122.685 40.6766 124.189 39.0876 124.812 38.1636L122.879 36.8746C122.234 37.8199 121.354 38.4428 120.086 38.4428C118.819 38.4428 117.917 37.8627 117.338 36.7242L124.919 33.5883L124.661 32.9434ZM64.2523 31.0752V33.4809H70.0088C69.837 34.8341 69.3859 35.822 68.6984 36.5095C67.8604 37.3469 66.5501 38.2709 64.2522 38.2709C60.7079 38.2709 57.9372 35.4142 57.9372 31.87C57.9372 28.3258 60.7079 25.4687 64.2522 25.4687C66.164 25.4687 67.5599 26.2207 68.591 27.1873L70.2884 25.49C68.8488 24.1155 66.9374 23.063 64.2522 23.063C59.397 23.063 55.3159 27.0154 55.3159 31.87C55.3159 36.7241 59.397 40.6766 64.2522 40.6766C66.8724 40.6766 68.8489 39.8173 70.3952 38.2064C71.9848 36.6168 72.479 34.383 72.479 32.5784C72.479 32.0205 72.4357 31.505 72.3498 31.0752H64.2523ZM79.0243 38.4427C77.3055 38.4427 75.8233 37.025 75.8233 35.0059C75.8233 32.9653 77.3055 31.5695 79.0243 31.5695C80.7424 31.5695 82.2246 32.9653 82.2246 35.0059C82.2246 37.025 80.7424 38.4427 79.0243 38.4427ZM79.0243 29.3352C75.8873 29.3352 73.3316 31.7194 73.3316 35.0059C73.3316 38.2709 75.8873 40.6766 79.0243 40.6766C82.1601 40.6766 84.7163 38.2709 84.7163 35.0059C84.7163 31.7194 82.1601 29.3352 79.0243 29.3352ZM91.4413 38.4427C89.7237 38.4427 88.241 37.025 88.241 35.0059C88.241 32.9653 89.7238 31.5695 91.4413 31.5695C93.1601 31.5695 94.6418 32.9653 94.6418 35.0059C94.6418 37.025 93.1601 38.4427 91.4413 38.4427ZM91.4413 29.3352C88.3055 29.3352 85.7498 31.7194 85.7498 35.0059C85.7498 38.2709 88.3055 40.6766 91.4413 40.6766C94.5783 40.6766 97.134 38.2709 97.134 35.0059C97.134 31.7194 94.5783 29.3352 91.4413 29.3352Z" fill="white"/>
<path d="M28.213 26.2321L14.019 41.2981C14.0196 41.3012 14.0206 41.3038 14.0211 41.307C14.4565 42.943 15.9507 44.1476 17.7241 44.1476C18.4331 44.1476 19.0986 43.956 19.6694 43.6195L19.7148 43.5929L35.6928 34.3729L28.213 26.2321Z" fill="#EB3131"/>
<path d="M42.5775 23.668L42.5639 23.6587L35.6657 19.6597L27.894 26.5753L35.6927 34.373L42.5545 30.4138C43.7575 29.7643 44.5742 28.4961 44.5742 27.0336C44.5742 25.5816 43.7686 24.3196 42.5775 23.668Z" fill="#F6B60B"/>
<path d="M14.0164 12.7036C13.9311 13.0183 13.8862 13.3479 13.8862 13.6901V40.3131C13.8862 40.6547 13.9306 40.9855 14.017 41.299L28.701 26.618L14.0164 12.7036Z" fill="#5778C5"/>
<path d="M28.3191 27.0015L35.6664 19.6564L19.7064 10.403C19.1263 10.0555 18.4492 9.85498 17.7247 9.85498C15.9513 9.85498 14.455 11.0618 14.0196 12.6997C14.019 12.7013 14.019 12.7024 14.019 12.7038L28.3191 27.0015Z" fill="#3BAD49"/>
<path d="M63.7804 13.3756H59.8909V14.3381H62.8055C62.7263 15.1236 62.4137 15.7402 61.8867 16.1881C61.3596 16.6361 60.6867 16.8611 59.8909 16.8611C59.018 16.8611 58.2784 16.5569 57.6723 15.9528C57.0784 15.3362 56.7764 14.5736 56.7764 13.6549C56.7764 12.7363 57.0784 11.9737 57.6723 11.3571C58.2784 10.753 59.018 10.4509 59.8909 10.4509C60.3389 10.4509 60.7659 10.528 61.1575 10.6967C61.5492 10.8654 61.8637 11.1009 62.1096 11.403L62.8492 10.6634C62.5137 10.2821 62.0888 9.9905 61.5616 9.77798C61.0345 9.56545 60.4846 9.46345 59.8908 9.46345C58.7263 9.46345 57.7389 9.86757 56.9326 10.6738C56.1263 11.4821 55.7222 12.4779 55.7222 13.6549C55.7222 14.8319 56.1263 15.8299 56.9326 16.6362C57.7388 17.4424 58.7263 17.8466 59.8908 17.8466C61.1137 17.8466 62.0887 17.4549 62.8387 16.659C63.499 15.9967 63.8365 15.1008 63.8365 13.98C63.8365 13.7904 63.8137 13.5882 63.7804 13.3756ZM65.2872 9.64244V17.6673H69.9724V16.6819H66.3184V14.1362H69.6142V13.1737H66.3184V10.63H69.9724V9.64241L65.2872 9.64244ZM76.5422 10.63V9.64244H71.0277V10.63H73.2694V17.6673H74.3006V10.63H76.5422ZM81.5347 9.64244H80.5035V17.6673H81.5347V9.64244ZM88.3413 10.63V9.64244H82.8269V10.63H85.0684V17.6673H86.0996V10.63H88.3413ZM98.7473 10.6863C97.9514 9.86751 96.9765 9.46338 95.8119 9.46338C94.6453 9.46338 93.6704 9.8675 92.8745 10.6738C92.0786 11.4696 91.6871 12.4675 91.6871 13.6549C91.6871 14.8423 92.0786 15.8403 92.8745 16.6362C93.6703 17.4423 94.6453 17.8466 95.8119 17.8466C96.966 17.8466 97.9514 17.4423 98.7473 16.6362C99.5431 15.8403 99.9347 14.8424 99.9347 13.6549C99.9347 12.4779 99.5431 11.482 98.7473 10.6863ZM93.6141 11.3571C94.2078 10.7529 94.937 10.4508 95.8119 10.4508C96.6848 10.4508 97.414 10.7529 97.9973 11.3571C98.591 11.9508 98.8826 12.7257 98.8826 13.6549C98.8826 14.5862 98.591 15.359 97.9973 15.9528C97.4139 16.5569 96.6848 16.861 95.8119 16.861C94.937 16.861 94.2078 16.5569 93.6141 15.9528C93.0327 15.3465 92.7411 14.5862 92.7411 13.6549C92.7411 12.7257 93.0327 11.9633 93.6141 11.3571ZM102.385 12.6696L102.341 11.1216H102.385L106.464 17.6673H107.541V9.64236H106.51V14.3381L106.553 15.8861H106.51L102.61 9.64236H101.353V17.6673H102.385V12.6696Z" fill="white" stroke="white" stroke-width="0.26666" stroke-miterlimit="10"/>
</g>
<defs>
<clipPath id="clip0_1_4538">
<rect width="180" height="53.333" fill="white" transform="translate(0.589355 0.333496)"/>
</clipPath>
</defs>
</svg>
