<svg width="145" height="19" viewBox="0 0 145 19" fill="none" xmlns="http://www.w3.org/2000/svg">
<path fill-rule="evenodd" clip-rule="evenodd" d="M0.705571 9.30626C0.742882 7.01313 1.68414 4.82883 3.32228 3.23382C4.96043 1.63882 7.16129 0.763766 9.44075 0.801143C9.57739 0.797083 9.71692 0.795917 9.85356 0.797657C12.0877 0.837605 14.2145 1.76868 15.7663 3.38608C17.318 5.00348 18.1676 7.17474 18.1281 9.42225V9.42747C18.1362 11.2356 17.5838 13.0012 16.5478 14.4787L17.4264 15.2281C17.616 15.3803 17.7689 15.5738 17.8734 15.794C17.978 16.0142 18.0315 16.2554 18.0301 16.4994C18.0296 16.8119 17.9368 17.1173 17.7634 17.3766C17.5899 17.6359 17.3437 17.8374 17.0561 17.9556C16.7685 18.0737 16.4525 18.1031 16.1482 18.0401C15.8439 17.977 15.5652 17.8243 15.3474 17.6014L14.3096 16.6543C12.8573 17.6365 11.1446 18.1557 9.39462 18.1443C9.25798 18.1483 9.11845 18.1495 8.98181 18.1478C7.87555 18.1285 6.7839 17.8902 5.76919 17.4465C4.75448 17.0028 3.8366 16.3623 3.06795 15.5617C2.29931 14.7611 1.69495 13.816 1.28941 12.7804C0.883877 11.7448 0.685087 10.639 0.70441 9.52608V9.51737C0.70441 9.44777 0.70441 9.3776 0.70441 9.30626M12.5575 14.0982C13.1296 13.6795 13.6082 13.1448 13.9626 12.5287C14.4932 11.6003 14.7716 10.5477 14.7697 9.47677C14.7732 9.39267 14.7761 9.308 14.7761 9.22274C14.7773 7.79356 14.2147 6.42232 13.2117 5.41011C12.2088 4.39791 10.8476 3.82747 9.4269 3.82409C6.40698 3.82409 4.13195 6.26009 4.13195 9.47445C4.10006 10.4747 4.34486 11.4643 4.83906 12.3328C5.33327 13.2014 6.05748 13.9149 6.93101 14.3938C7.80455 14.8727 8.79309 15.0982 9.78652 15.0452C10.7799 14.9922 11.7393 14.6627 12.5575 14.0936V14.0982Z" fill="white"/>
<path fill-rule="evenodd" clip-rule="evenodd" d="M29.8873 4.94146C29.4629 4.93791 29.0544 5.10404 28.7517 5.40335C28.449 5.70266 28.2768 6.11064 28.273 6.53761V12.2883C28.273 14.0399 27.2929 15.1141 25.6953 15.1141C24.0977 15.1141 23.2652 14.1182 23.2652 12.2883V6.5933C23.2652 6.16605 23.0965 5.7563 22.7962 5.45418C22.4959 5.15207 22.0886 4.98235 21.6639 4.98235C21.2392 4.98235 20.8318 5.15207 20.5315 5.45418C20.2312 5.7563 20.0625 6.16605 20.0625 6.5933V13.1809C20.0625 16.2329 21.8112 18.1255 24.6276 18.1255C25.3314 18.1371 26.028 17.982 26.6612 17.6727C27.2944 17.3634 27.8464 16.9085 28.2724 16.3448V16.3878C28.2724 16.8185 28.4425 17.2315 28.7453 17.5361C29.048 17.8407 29.4586 18.0117 29.8868 18.0117C30.3149 18.0117 30.7255 17.8407 31.0283 17.5361C31.331 17.2315 31.5011 16.8185 31.5011 16.3878V6.59447C31.5038 6.3802 31.4646 6.16749 31.3856 5.96848C31.3066 5.76948 31.1895 5.58809 31.0408 5.43464C30.8921 5.2812 30.7148 5.15872 30.5191 5.0742C30.3234 4.98968 30.113 4.94477 29.9 4.94205H29.8862L29.8873 4.94146Z" fill="white"/>
<path fill-rule="evenodd" clip-rule="evenodd" d="M33.2549 11.541C33.2549 7.68397 35.9451 4.85938 39.4562 4.85938C43.3767 4.85938 45.4891 8.09519 45.4891 11.1611V11.1965C45.4882 11.3966 45.4481 11.5946 45.3711 11.7792C45.2941 11.9637 45.1816 12.1312 45.0402 12.272C44.8988 12.4128 44.7312 12.5242 44.5469 12.5998C44.3627 12.6754 44.1654 12.7137 43.9665 12.7126H36.5147C36.6339 13.4918 37.0312 14.2006 37.6324 14.7065C38.2336 15.2123 38.9974 15.4804 39.7808 15.4606C40.8109 15.4737 41.8101 15.1069 42.5897 14.4294C42.8222 14.2247 43.1232 14.1162 43.432 14.126C43.6045 14.1261 43.7753 14.1603 43.9346 14.2268C44.0939 14.2933 44.2387 14.3907 44.3606 14.5134C44.4825 14.6362 44.5791 14.7819 44.6451 14.9422C44.711 15.1025 44.7449 15.2743 44.7448 15.4478C44.7433 15.6353 44.7046 15.8206 44.6312 15.9928C44.5577 16.1651 44.451 16.3209 44.317 16.4512C43.0689 17.5862 41.4338 18.1934 39.752 18.1466C39.609 18.1507 39.4637 18.1501 39.3224 18.1466C38.4929 18.1138 37.678 17.9169 36.9241 17.5673C36.1703 17.2176 35.4923 16.722 34.9288 16.1087C34.3654 15.4954 33.9276 14.7765 33.6403 13.9929C33.3531 13.2094 33.2222 12.3766 33.2549 11.5421M39.4274 7.56681C37.9174 7.56681 36.7753 8.68332 36.4634 10.4372H42.3274C42.1164 8.97796 41.2596 7.56681 39.4274 7.56681Z" fill="white"/>
<path fill-rule="evenodd" clip-rule="evenodd" d="M56.9889 4.94257C56.5645 4.93902 56.156 5.10515 55.8533 5.40446C55.5506 5.70377 55.3784 6.11175 55.3746 6.53873V12.29C55.3746 14.0416 54.3945 15.1158 52.8044 15.1158C51.2143 15.1158 50.3667 14.1199 50.3667 12.29V6.59499C50.3667 6.16774 50.1981 5.75799 49.8977 5.45588C49.5974 5.15377 49.1901 4.98403 48.7654 4.98403C48.3407 4.98403 47.9334 5.15377 47.6331 5.45588C47.3328 5.75799 47.1641 6.16774 47.1641 6.59499V13.1803C47.1641 16.2323 48.9127 18.1248 51.7291 18.1248C52.4329 18.1365 53.1296 17.9814 53.7628 17.6721C54.396 17.3628 54.9479 16.9079 55.374 16.3442V16.3871C55.374 16.8178 55.5441 17.2309 55.8468 17.5355C56.1496 17.84 56.5602 18.0111 56.9883 18.0111C57.4165 18.0111 57.8271 17.84 58.1298 17.5355C58.4326 17.2309 58.6027 16.8178 58.6027 16.3871V6.59383C58.6054 6.37956 58.5661 6.16686 58.4872 5.96786C58.4082 5.76885 58.291 5.58745 58.1423 5.434C57.9937 5.28056 57.8164 5.15808 57.6207 5.07356C57.4249 4.98904 57.2146 4.94413 57.0016 4.94141H56.9878L56.9889 4.94257Z" fill="white"/>
<path fill-rule="evenodd" clip-rule="evenodd" d="M60.3649 11.541C60.3649 7.68397 63.0476 4.85938 66.5587 4.85938C70.4792 4.85938 72.5974 8.09519 72.5974 11.1611V11.1965C72.5967 11.3967 72.5568 11.5948 72.4799 11.7794C72.4031 11.9641 72.2908 12.1318 72.1495 12.2727C72.0082 12.4137 71.8406 12.5253 71.6564 12.601C71.4721 12.6768 71.2749 12.7153 71.0759 12.7143H63.601C63.7204 13.4972 64.1206 14.209 64.7261 14.7153C65.3316 15.2216 66.1004 15.4874 66.8873 15.4624C67.9166 15.4707 68.9143 15.1045 69.6962 14.4311C69.9285 14.226 70.2296 14.1175 70.5385 14.1278C70.711 14.1278 70.8818 14.1621 71.0411 14.2285C71.2004 14.295 71.3452 14.3924 71.4671 14.5152C71.589 14.6379 71.6856 14.7836 71.7516 14.9439C71.8175 15.1042 71.8515 15.2761 71.8514 15.4496C71.8498 15.637 71.8112 15.8223 71.7377 15.9945C71.6643 16.1668 71.5574 16.3227 71.4235 16.453C70.1754 17.588 68.5403 18.1952 66.8585 18.1483C66.7155 18.1524 66.5702 18.1518 66.429 18.1483C64.7542 18.0815 63.1744 17.3481 62.037 16.1096C60.8997 14.871 60.298 13.2287 60.3643 11.5439M66.5368 7.56855C65.0268 7.56855 63.8818 8.68505 63.5728 10.439H69.4368C69.227 8.97969 68.3691 7.56855 66.5368 7.56855Z" fill="white"/>
<path fill-rule="evenodd" clip-rule="evenodd" d="M85.7188 9.10956C86.3681 8.75419 86.9057 8.22316 87.2706 7.57651C87.6356 6.92985 87.8134 6.19337 87.784 5.45034C87.794 4.92505 87.6968 4.40327 87.4985 3.91724C87.3002 3.43121 87.0049 2.99126 86.6309 2.62458C86.033 2.0941 85.3369 1.68754 84.5825 1.42817C83.8281 1.1688 83.0303 1.06173 82.2348 1.1131H76.3707C76.1578 1.11119 75.9465 1.1515 75.749 1.23173C75.5515 1.31196 75.3716 1.43053 75.2197 1.58069C75.0678 1.73085 74.9468 1.90964 74.8635 2.10686C74.7803 2.30409 74.7364 2.51588 74.7345 2.73014V16.2441C74.7318 16.4584 74.771 16.6711 74.85 16.8701C74.929 17.0691 75.0462 17.2505 75.1949 17.404C75.3435 17.5574 75.5208 17.6799 75.7165 17.7644C75.9122 17.8489 76.1226 17.8938 76.3356 17.8966H82.4671C86.3634 17.8966 88.6897 16.1374 88.6897 13.1568C88.6897 11.1999 87.7407 9.88617 85.7188 9.10897M77.9522 4.02992H81.8784C83.5723 4.02992 84.5473 4.73636 84.5473 5.96538C84.5473 7.7309 82.7421 7.99538 81.6686 7.99538H77.9533V4.0276L77.9522 4.02992ZM77.9522 14.9241H82.4885C83.5701 14.9241 85.4525 14.5848 85.4525 12.8755C85.4525 11.1662 83.7389 10.8194 82.2924 10.8194H77.9522V14.9241Z" fill="white"/>
<path fill-rule="evenodd" clip-rule="evenodd" d="M100.214 4.94146C99.7895 4.93806 99.3811 5.10433 99.0784 5.40373C98.7757 5.70313 98.6035 6.11116 98.5997 6.53819V12.2889C98.5997 14.0405 97.6098 15.1146 96.022 15.1146C94.4342 15.1146 93.5855 14.1188 93.5855 12.2889V6.59388C93.5855 6.16663 93.4168 5.75687 93.1165 5.45476C92.8162 5.15265 92.4089 4.98293 91.9842 4.98293C91.5595 4.98293 91.1522 5.15265 90.8519 5.45476C90.5516 5.75687 90.3828 6.16663 90.3828 6.59388V13.1792C90.3828 16.2312 92.1315 18.1237 94.9543 18.1237C95.6581 18.1354 96.3547 17.9802 96.9878 17.6709C97.621 17.3616 98.173 16.9067 98.5992 16.3431V16.386C98.6237 16.7992 98.8042 17.1873 99.1037 17.4711C99.4032 17.7549 99.7991 17.913 100.211 17.913C100.622 17.913 101.018 17.7549 101.317 17.4711C101.617 17.1873 101.797 16.7992 101.822 16.386V6.59561C101.826 6.38229 101.788 6.17032 101.71 5.9718C101.632 5.77329 101.516 5.59213 101.369 5.43867C101.222 5.28522 101.046 5.16248 100.851 5.07747C100.657 4.99245 100.447 4.94682 100.235 4.94319H100.214V4.94146Z" fill="white"/>
<path fill-rule="evenodd" clip-rule="evenodd" d="M109.472 10.185L109.233 10.1073C107.947 9.69082 106.838 9.33006 106.838 8.56678C106.838 7.9456 107.442 7.54307 108.37 7.54307C109.356 7.59625 110.317 7.87685 111.179 8.36319C111.376 8.47257 111.599 8.52852 111.825 8.52559C111.999 8.52944 112.172 8.49872 112.335 8.43518C112.497 8.37164 112.646 8.27652 112.771 8.15527C112.897 8.03402 112.998 7.88901 113.068 7.72853C113.138 7.56806 113.176 7.39527 113.18 7.22003V7.18347C113.174 6.91922 113.094 6.66194 112.95 6.44095C112.806 6.21996 112.603 6.04415 112.365 5.93357C111.147 5.27715 109.792 4.92355 108.411 4.90234C105.722 4.90234 103.839 6.53445 103.839 8.91535C103.839 11.2963 105.897 12.186 107.815 12.737L108.11 12.8211C109.352 13.2021 110.427 13.5275 110.427 14.325C110.427 15.1225 109.789 15.4618 108.713 15.4618C107.478 15.4201 106.281 15.0148 105.272 14.296C105.057 14.1746 104.816 14.109 104.569 14.1052C104.396 14.1034 104.224 14.1359 104.063 14.201C103.902 14.266 103.755 14.3623 103.631 14.4843C103.508 14.6064 103.409 14.7518 103.341 14.9122C103.273 15.0727 103.237 15.2451 103.235 15.4195V15.4473C103.228 15.676 103.281 15.9026 103.39 16.1037C103.498 16.3048 103.658 16.4732 103.853 16.5917C105.265 17.5609 106.932 18.0869 108.641 18.1032C111.576 18.1032 113.395 16.5337 113.395 13.9695C113.424 11.7307 111.522 10.8276 109.472 10.185Z" fill="white"/>
<path fill-rule="evenodd" clip-rule="evenodd" d="M120.795 7.93963C121.16 7.92909 121.507 7.77568 121.762 7.51197C122.017 7.24826 122.159 6.89504 122.159 6.52733C122.159 6.15962 122.017 5.80639 121.762 5.54268C121.507 5.27898 121.16 5.12556 120.795 5.11503H118.777V3.20509C118.777 2.77799 118.608 2.36839 118.308 2.06638C118.008 1.76438 117.601 1.59473 117.176 1.59473C116.752 1.59473 116.345 1.76438 116.044 2.06638C115.744 2.36839 115.576 2.77799 115.576 3.20509V5.11271H115.302C114.936 5.12325 114.589 5.27666 114.335 5.54037C114.08 5.80407 113.937 6.1573 113.938 6.52501C113.937 6.89272 114.08 7.24595 114.335 7.50965C114.589 7.77336 114.936 7.92677 115.302 7.93731H115.576V14.2535C115.576 16.7899 116.833 18.0751 119.305 18.0751C119.989 18.0813 120.669 17.9664 121.313 17.7358C121.626 17.6183 121.884 17.3889 122.039 17.0916C122.194 16.7943 122.234 16.45 122.153 16.1245C122.071 15.7991 121.873 15.5154 121.596 15.3278C121.319 15.1403 120.984 15.0619 120.653 15.1079H120.611C120.441 15.1392 120.269 15.1557 120.097 15.1571C119.184 15.1571 118.777 14.7407 118.777 13.8081V7.93848H120.794L120.795 7.93963Z" fill="white"/>
<path fill-rule="evenodd" clip-rule="evenodd" d="M122.849 11.541C122.849 7.68397 125.532 4.85938 129.043 4.85938C132.963 4.85938 135.082 8.09519 135.082 11.1611V11.1965C135.081 11.3967 135.041 11.5948 134.964 11.7794C134.887 11.9641 134.775 12.1318 134.634 12.2727C134.492 12.4137 134.325 12.5253 134.141 12.601C133.956 12.6768 133.759 12.7153 133.56 12.7143H126.086C126.211 13.493 126.613 14.1994 127.218 14.7011C127.823 15.2029 128.589 15.4657 129.373 15.4403C130.402 15.4487 131.4 15.0824 132.182 14.4091C132.414 14.2043 132.715 14.096 133.024 14.1057H133.045C133.218 14.1084 133.388 14.1452 133.546 14.2141C133.705 14.283 133.848 14.3826 133.968 14.5073C134.088 14.6319 134.183 14.7791 134.246 14.9405C134.31 15.1019 134.341 15.2743 134.338 15.4478C134.336 15.6353 134.298 15.8205 134.224 15.9928C134.151 16.1651 134.044 16.3209 133.91 16.4512C132.662 17.5862 131.027 18.1934 129.345 18.1466C129.202 18.1507 129.06 18.1495 128.916 18.1466C128.087 18.1139 127.272 17.9171 126.518 17.5676C125.764 17.2181 125.086 16.7226 124.523 16.1095C123.96 15.4964 123.522 14.7776 123.234 13.9942C122.947 13.2108 122.816 12.3782 122.849 11.5439V11.5404M129.022 7.56506C127.512 7.56506 126.37 8.68157 126.058 10.4355H131.923C131.709 8.9762 130.854 7.56506 129.022 7.56506Z" fill="white"/>
<path fill-rule="evenodd" clip-rule="evenodd" d="M143 4.94141C141.925 4.94141 140.844 5.74006 140.093 7.06072V6.62282C140.094 6.19564 139.926 5.7857 139.626 5.48316C139.326 5.18061 138.919 5.01024 138.494 5.00955C138.07 5.00886 137.662 5.17789 137.362 5.47946C137.061 5.78102 136.891 6.19042 136.891 6.6176V16.3877C136.885 16.8054 137.045 17.2083 137.334 17.5077C137.624 17.8072 138.02 17.9786 138.435 17.9844H138.484C138.908 17.9863 139.315 17.8194 139.616 17.5201C139.918 17.2209 140.089 16.8137 140.093 16.3877V12.7134C140.093 10.0854 141.237 8.47419 143.309 8.07921C143.681 8.00691 144.015 7.8023 144.25 7.5028C144.484 7.20331 144.603 6.82894 144.586 6.44815C144.569 6.06737 144.415 5.70561 144.155 5.42905C143.894 5.15248 143.543 4.97959 143.166 4.94199C143.108 4.94199 143.055 4.94199 143 4.94199V4.94141Z" fill="white"/>
</svg>
