<svg width="239" height="30" viewBox="0 0 239 30" fill="none" xmlns="http://www.w3.org/2000/svg">
<path fill-rule="evenodd" clip-rule="evenodd" d="M0.129537 14.7261C0.191293 10.9306 1.74923 7.31517 4.46064 4.67517C7.17206 2.03517 10.8149 0.5868 14.5878 0.648667C14.8139 0.641947 15.0449 0.640015 15.271 0.642895C18.9689 0.709017 22.4891 2.2501 25.0576 4.92718C27.626 7.60426 29.0321 11.1981 28.9668 14.9181V14.9267C28.9803 17.9194 28.066 20.8419 26.3511 23.2874L27.8054 24.5277C28.1192 24.7797 28.3722 25.0999 28.5453 25.4644C28.7183 25.8289 28.807 26.2281 28.8045 26.632C28.8038 27.1493 28.6502 27.6547 28.3631 28.0839C28.076 28.5131 27.6686 28.8466 27.1925 29.0422C26.7165 29.2377 26.1934 29.2864 25.6898 29.182C25.1861 29.0777 24.7248 28.8249 24.3643 28.456L22.6466 26.8883C20.2428 28.514 17.4079 29.3734 14.5114 29.3546C14.2852 29.3613 14.0543 29.3632 13.8281 29.3603C11.9971 29.3285 10.1902 28.9341 8.51069 28.1996C6.83117 27.4652 5.31193 26.4051 4.03968 25.08C2.76744 23.7548 1.76713 22.1905 1.0959 20.4764C0.424663 18.7623 0.0956323 16.932 0.127615 15.0899V15.0755C0.127615 14.9603 0.127615 14.8442 0.127615 14.7261M19.7466 22.6576C20.6935 21.9645 21.4857 21.0796 22.0721 20.0599C22.9505 18.5232 23.4112 16.7809 23.4081 15.0083C23.4138 14.8691 23.4186 14.729 23.4186 14.5879C23.4207 12.2223 22.4894 9.95269 20.8294 8.27731C19.1694 6.60193 16.9163 5.65776 14.5648 5.65216C9.56635 5.65216 5.80079 9.68417 5.80079 15.0045C5.748 16.6601 6.15318 18.298 6.97118 19.7356C7.78918 21.1732 8.98787 22.3542 10.4337 23.1468C11.8796 23.9395 13.5158 24.3127 15.1601 24.225C16.8044 24.1372 18.3922 23.592 19.7466 22.6499V22.6576Z" fill="#2C6BB3"/>
<path fill-rule="evenodd" clip-rule="evenodd" d="M48.4225 7.50302C47.72 7.49714 47.0438 7.77212 46.5428 8.26752C46.0418 8.76293 45.7568 9.43821 45.7505 10.1449V19.6633C45.7505 22.5625 44.1282 24.3405 41.4839 24.3405C38.8396 24.3405 37.4616 22.6921 37.4616 19.6633V10.2371C37.4616 9.52992 37.1824 8.85171 36.6854 8.35166C36.1883 7.85162 35.5141 7.5707 34.8112 7.5707C34.1082 7.5707 33.434 7.85162 32.937 8.35166C32.4399 8.85171 32.1606 9.52992 32.1606 10.2371V21.1408C32.1606 26.1923 35.055 29.3248 39.7166 29.3248C40.8815 29.3441 42.0346 29.0874 43.0827 28.5754C44.1307 28.0635 45.0443 27.3105 45.7495 26.3776V26.4486C45.7495 27.1615 46.0311 27.8452 46.5321 28.3493C47.0332 28.8534 47.7129 29.1366 48.4215 29.1366C49.1302 29.1366 49.8098 28.8534 50.3109 28.3493C50.812 27.8452 51.0935 27.1615 51.0935 26.4486V10.239C51.098 9.88439 51.0331 9.5323 50.9023 9.20291C50.7716 8.87353 50.5777 8.5733 50.3316 8.31932C50.0855 8.06534 49.7921 7.86261 49.4681 7.72272C49.1442 7.58282 48.796 7.5085 48.4434 7.50399H48.4205L48.4225 7.50302Z" fill="#2C6BB3"/>
<path fill-rule="evenodd" clip-rule="evenodd" d="M54.0125 18.4234C54.0125 12.0394 58.4652 7.36426 64.2767 7.36426C70.7658 7.36426 74.2623 12.7201 74.2623 17.7946V17.8532C74.2608 18.1845 74.1944 18.5123 74.0669 18.8177C73.9394 19.1232 73.7533 19.4004 73.5192 19.6335C73.2851 19.8665 73.0077 20.0509 72.7027 20.176C72.3978 20.3011 72.0713 20.3645 71.742 20.3626H59.408C59.6053 21.6524 60.263 22.8257 61.258 23.6629C62.253 24.5001 63.5173 24.9438 64.814 24.9112C66.519 24.9329 68.1729 24.3257 69.4632 23.2043C69.848 22.8654 70.3462 22.686 70.8574 22.7022C71.1429 22.7023 71.4255 22.759 71.6892 22.869C71.9529 22.979 72.1925 23.1402 72.3943 23.3434C72.596 23.5465 72.7561 23.7877 72.8652 24.053C72.9743 24.3184 73.0304 24.6028 73.0303 24.89C73.0277 25.2002 72.9638 25.5069 72.8422 25.7921C72.7207 26.0772 72.5439 26.3351 72.3222 26.5508C70.2563 28.4294 67.55 29.4344 64.7662 29.3569C64.5296 29.3636 64.2891 29.3627 64.0553 29.3569C62.6824 29.3026 61.3335 28.9768 60.0857 28.398C58.838 27.8192 57.7157 26.9989 56.7832 25.9838C55.8506 24.9687 55.1259 23.7787 54.6505 22.4819C54.1751 21.185 53.9583 19.8066 54.0125 18.4254M64.229 11.8455C61.7298 11.8455 59.8393 13.6935 59.3231 16.5966H69.029C68.6798 14.1812 67.2617 11.8455 64.229 11.8455Z" fill="#2C6BB3"/>
<path fill-rule="evenodd" clip-rule="evenodd" d="M93.2897 7.50291C92.5871 7.49703 91.911 7.772 91.41 8.26741C90.9089 8.76282 90.6239 9.4381 90.6176 10.1448V19.6642C90.6176 22.5634 88.9954 24.3413 86.3635 24.3413C83.7316 24.3413 82.3288 22.693 82.3288 19.6642V10.2379C82.3288 9.53078 82.0496 8.85257 81.5525 8.35252C81.0555 7.85247 80.3813 7.57152 79.6784 7.57152C78.9754 7.57152 78.3012 7.85247 77.8042 8.35252C77.3071 8.85257 77.0278 9.53078 77.0278 10.2379V21.1378C77.0278 26.1893 79.9221 29.3218 84.5838 29.3218C85.7487 29.3411 86.9018 29.0844 87.9499 28.5724C88.9979 28.0604 89.9115 27.3075 90.6167 26.3746V26.4456C90.6167 27.1585 90.8982 27.8422 91.3993 28.3463C91.9004 28.8504 92.58 29.1336 93.2887 29.1336C93.9973 29.1336 94.677 28.8504 95.178 28.3463C95.6791 27.8422 95.9607 27.1585 95.9607 26.4456V10.236C95.9652 9.88138 95.9002 9.52932 95.7695 9.19993C95.6388 8.87054 95.4449 8.57029 95.1988 8.31631C94.9527 8.06233 94.6593 7.8596 94.3353 7.71971C94.0113 7.57981 93.6631 7.50549 93.3106 7.50098H93.2877L93.2897 7.50291Z" fill="#2C6BB3"/>
<path fill-rule="evenodd" clip-rule="evenodd" d="M98.8808 18.4234C98.8808 12.0394 103.321 7.36426 109.133 7.36426C115.622 7.36426 119.128 12.7201 119.128 17.7946V17.8532C119.126 18.1846 119.06 18.5125 118.933 18.8182C118.806 19.1238 118.62 19.4013 118.386 19.6346C118.152 19.868 117.875 20.0526 117.57 20.178C117.265 20.3035 116.939 20.3672 116.609 20.3655H104.237C104.435 21.6614 105.097 22.8396 106.099 23.6776C107.101 24.5156 108.374 24.9555 109.676 24.914C111.38 24.9279 113.031 24.3217 114.326 23.2071C114.71 22.8676 115.209 22.6881 115.72 22.705C116.005 22.7052 116.288 22.7618 116.552 22.8719C116.815 22.9819 117.055 23.1431 117.257 23.3462C117.459 23.5494 117.619 23.7905 117.728 24.0559C117.837 24.3213 117.893 24.6057 117.893 24.8929C117.89 25.2031 117.826 25.5097 117.705 25.7949C117.583 26.08 117.406 26.338 117.185 26.5537C115.119 28.4323 112.413 29.4373 109.629 29.3598C109.392 29.3665 109.152 29.3655 108.918 29.3598C106.146 29.2492 103.531 28.0353 101.648 25.9853C99.7659 23.9353 98.77 21.2169 98.8798 18.4283M109.096 11.8484C106.597 11.8484 104.702 13.6964 104.19 16.5995H113.896C113.549 14.1841 112.129 11.8484 109.096 11.8484Z" fill="#2C6BB3"/>
<path fill-rule="evenodd" clip-rule="evenodd" d="M140.842 14.4017C141.916 13.8135 142.806 12.9346 143.41 11.8643C144.014 10.7939 144.309 9.57494 144.26 8.3451C144.277 7.47566 144.116 6.61202 143.787 5.80756C143.459 5.00309 142.97 4.2749 142.351 3.66798C141.362 2.78995 140.21 2.11701 138.961 1.68771C137.712 1.25841 136.392 1.0812 135.075 1.16623H125.369C125.017 1.16306 124.667 1.22978 124.34 1.36258C124.013 1.49537 123.715 1.69163 123.464 1.94016C123.212 2.1887 123.012 2.48463 122.874 2.81107C122.737 3.13751 122.664 3.48807 122.661 3.8427V26.2107C122.656 26.5653 122.721 26.9174 122.852 27.2468C122.983 27.5762 123.177 27.8764 123.423 28.1304C123.669 28.3844 123.962 28.5871 124.286 28.727C124.61 28.8669 124.958 28.9412 125.311 28.9457H135.46C141.909 28.9457 145.759 26.0341 145.759 21.1006C145.759 17.8616 144.188 15.6872 140.842 14.4008M127.987 5.99406H134.485C137.289 5.99406 138.903 7.16334 138.903 9.19758C138.903 12.1198 135.915 12.5576 134.138 12.5576H127.989V5.99022L127.987 5.99406ZM127.987 24.0257H135.495C137.285 24.0257 140.401 23.4641 140.401 20.635C140.401 17.8059 137.565 17.2318 135.17 17.2318H127.987V24.0257Z" fill="#2C6BB3"/>
<path fill-rule="evenodd" clip-rule="evenodd" d="M164.831 7.50301C164.129 7.49739 163.453 7.7726 162.952 8.26816C162.451 8.76372 162.166 9.43908 162.159 10.1459V19.6643C162.159 22.5635 160.521 24.3414 157.893 24.3414C155.265 24.3414 153.86 22.6931 153.86 19.6643V10.2381C153.86 9.53088 153.581 8.85267 153.084 8.35262C152.587 7.85258 151.913 7.57166 151.21 7.57166C150.507 7.57166 149.833 7.85258 149.335 8.35262C148.838 8.85267 148.559 9.53088 148.559 10.2381V21.1379C148.559 26.1894 151.453 29.3219 156.126 29.3219C157.291 29.3412 158.444 29.0844 159.492 28.5724C160.54 28.0605 161.453 27.3076 162.159 26.3747V26.4457C162.199 27.1296 162.498 27.7721 162.994 28.2418C163.489 28.7116 164.145 28.9732 164.826 28.9732C165.507 28.9732 166.162 28.7116 166.658 28.2418C167.154 27.7721 167.452 27.1296 167.493 26.4457V10.2409C167.499 9.88784 167.436 9.53699 167.307 9.20841C167.179 8.87984 166.987 8.57999 166.743 8.32599C166.499 8.072 166.208 7.86885 165.886 7.72813C165.564 7.58741 165.218 7.51188 164.867 7.50589H164.831V7.50301Z" fill="#2C6BB3"/>
<path fill-rule="evenodd" clip-rule="evenodd" d="M180.149 16.1822L179.754 16.0535C177.625 15.3642 175.79 14.7671 175.79 13.5038C175.79 12.4756 176.789 11.8093 178.325 11.8093C179.957 11.8973 181.548 12.3618 182.974 13.1668C183.301 13.3478 183.67 13.4404 184.044 13.4356C184.332 13.4419 184.619 13.3911 184.887 13.2859C185.156 13.1808 185.402 13.0233 185.61 12.8226C185.818 12.6219 185.985 12.3819 186.101 12.1163C186.217 11.8507 186.28 11.5647 186.286 11.2746V11.2141C186.276 10.7768 186.145 10.3509 185.906 9.98514C185.668 9.61936 185.332 9.32836 184.937 9.14534C182.922 8.05885 180.678 7.47358 178.392 7.43848C173.942 7.43848 170.826 10.1399 170.826 14.0807C170.826 18.0215 174.232 19.4942 177.406 20.4062L177.894 20.5453C179.951 21.1761 181.73 21.7146 181.73 23.0346C181.73 24.3546 180.673 24.9162 178.893 24.9162C176.848 24.8472 174.868 24.1763 173.197 22.9866C172.842 22.7857 172.442 22.6771 172.034 22.6708C171.747 22.6678 171.462 22.7216 171.196 22.8293C170.93 22.937 170.687 23.0963 170.482 23.2983C170.277 23.5003 170.113 23.741 170.001 24.0066C169.888 24.2721 169.829 24.5575 169.826 24.8462V24.8922C169.814 25.2708 169.902 25.6458 170.082 25.9787C170.261 26.3115 170.526 26.5903 170.848 26.7863C173.186 28.3906 175.944 29.2612 178.774 29.2881C183.632 29.2881 186.643 26.6903 186.643 22.4462C186.691 18.7406 183.543 17.2458 180.149 16.1822Z" fill="#2C6BB3"/>
<path fill-rule="evenodd" clip-rule="evenodd" d="M198.886 12.4638C199.491 12.4464 200.065 12.1925 200.487 11.756C200.908 11.3195 201.144 10.7348 201.144 10.1262C201.144 9.5176 200.908 8.93295 200.487 8.49646C200.065 8.05998 199.491 7.80606 198.886 7.78862H195.546V4.62734C195.546 3.92043 195.267 3.24245 194.77 2.74259C194.273 2.24272 193.599 1.96191 192.896 1.96191C192.194 1.96191 191.52 2.24272 191.023 2.74259C190.526 3.24245 190.247 3.92043 190.247 4.62734V7.78478H189.794C189.189 7.80222 188.615 8.05614 188.193 8.49263C187.771 8.92911 187.536 9.51376 187.536 10.1224C187.536 10.731 187.771 11.3157 188.193 11.7521C188.615 12.1886 189.189 12.4425 189.794 12.46H190.247V22.9144C190.247 27.1125 192.328 29.2398 196.419 29.2398C197.552 29.25 198.677 29.0599 199.744 28.6782C200.261 28.4837 200.689 28.104 200.945 27.6119C201.202 27.1198 201.269 26.5499 201.133 26.0112C200.998 25.4726 200.67 25.0031 200.212 24.6926C199.754 24.3821 199.198 24.2525 198.651 24.3285H198.581C198.3 24.3804 198.016 24.4077 197.73 24.4101C196.22 24.4101 195.545 23.7208 195.545 22.1771V12.4619H198.885L198.886 12.4638Z" fill="#2C6BB3"/>
<path fill-rule="evenodd" clip-rule="evenodd" d="M202.295 18.4234C202.295 12.0394 206.735 7.36426 212.546 7.36426C219.036 7.36426 222.542 12.7201 222.542 17.7946V17.8532C222.54 18.1846 222.474 18.5125 222.347 18.8182C222.22 19.1238 222.034 19.4013 221.8 19.6346C221.566 19.868 221.289 20.0526 220.984 20.178C220.679 20.3035 220.353 20.3672 220.023 20.3655H207.653C207.859 21.6544 208.525 22.8236 209.526 23.6541C210.527 24.4846 211.795 24.9195 213.092 24.8775C214.796 24.8914 216.447 24.2852 217.742 23.1706C218.126 22.8318 218.625 22.6524 219.136 22.6686H219.171C219.457 22.673 219.738 22.7339 220 22.8479C220.263 22.962 220.5 23.1269 220.698 23.3332C220.897 23.5395 221.053 23.7832 221.158 24.0503C221.263 24.3174 221.315 24.6028 221.31 24.89C221.308 25.2002 221.244 25.5069 221.122 25.792C221.001 26.0771 220.824 26.335 220.602 26.5508C218.537 28.4294 215.83 29.4344 213.047 29.3569C212.81 29.3636 212.574 29.3617 212.337 29.3569C210.964 29.3027 209.615 28.9771 208.367 28.3985C207.12 27.82 205.998 26.9999 205.065 25.9851C204.133 24.9703 203.408 23.7806 202.932 22.484C202.457 21.1874 202.24 19.8092 202.294 18.4283V18.4225M212.512 11.8426C210.013 11.8426 208.122 13.6906 207.606 16.5937H217.313C216.96 14.1783 215.545 11.8426 212.512 11.8426Z" fill="#2C6BB3"/>
<path fill-rule="evenodd" clip-rule="evenodd" d="M235.648 7.50098C233.869 7.50098 232.079 8.82289 230.836 11.0088V10.284C230.837 9.57696 230.559 8.89843 230.063 8.39767C229.567 7.8969 228.893 7.61492 228.19 7.61377C227.487 7.61262 226.813 7.8924 226.315 8.39154C225.817 8.89069 225.537 9.56832 225.536 10.2754V26.4466C225.526 27.1379 225.79 27.8048 226.27 28.3004C226.749 28.796 227.404 29.0798 228.091 29.0894H228.173C228.874 29.0925 229.548 28.8162 230.047 28.3209C230.546 27.8256 230.83 27.1517 230.836 26.4466V20.365C230.836 16.0152 232.729 13.3483 236.16 12.6946C236.776 12.5749 237.328 12.2362 237.716 11.7405C238.104 11.2448 238.302 10.6252 238.273 9.9949C238.244 9.36463 237.991 8.76587 237.559 8.30811C237.127 7.85034 236.546 7.56418 235.922 7.50194C235.827 7.50194 235.738 7.50194 235.648 7.50194V7.50098Z" fill="#2C6BB3"/>
</svg>
