<svg width="48" height="48" viewBox="0 0 48 48" fill="none" xmlns="http://www.w3.org/2000/svg">
<path d="M43.6323 48.0049H4.62247C4.05086 48.005 3.48483 47.8918 2.95671 47.6718C2.42859 47.4518 1.94873 47.1293 1.54454 46.7227C1.14036 46.3161 0.81976 45.8334 0.601073 45.3021C0.382387 44.7708 0.269894 44.2014 0.27002 43.6263V4.38342C0.269894 3.80838 0.382387 3.23895 0.601073 2.70767C0.81976 2.17638 1.14036 1.69364 1.54454 1.28703C1.94873 0.880419 2.42859 0.557899 2.95671 0.3379C3.48483 0.117902 4.05086 0.0047568 4.62247 0.00488292H43.6323C44.2039 0.0047568 44.7699 0.117902 45.298 0.3379C45.8262 0.557899 46.306 0.880419 46.7102 1.28703C47.1144 1.69364 47.435 2.17638 47.6537 2.70767C47.8724 3.23895 47.9849 3.80838 47.9847 4.38342V43.6263C47.9847 44.2013 47.8722 44.7707 47.6534 45.3019C47.4347 45.8332 47.1141 46.3158 46.7099 46.7224C46.3058 47.129 45.826 47.4515 45.2979 47.6716C44.7698 47.8916 44.2039 48.0049 43.6323 48.0049Z" fill="#2A6AB4"/>
<path d="M43.8405 23.9081C43.8338 23.6662 43.8233 23.4224 43.8138 23.1804C43.8138 23.1574 43.8138 23.1324 43.809 23.1094C43.7861 22.9328 43.7861 22.7542 43.7546 22.5795C43.7374 22.3779 43.704 22.1801 43.6687 21.9824C43.6143 21.6732 43.5476 21.367 43.4645 21.0656C43.0681 19.589 42.3053 18.238 41.2478 17.1392C40.0191 15.8437 38.4221 14.9625 36.6758 14.6163C36.5145 14.5827 36.3523 14.5529 36.1891 14.528C36.0737 14.5107 35.9573 14.4905 35.8399 14.478C35.6691 14.4608 35.5011 14.4358 35.3303 14.4281L35.2425 14.4214C35.1671 14.4157 35.0898 14.4089 35.0144 14.4051C34.7787 14.3965 34.544 14.3888 34.3083 14.3926C34.0196 14.3901 33.731 14.4026 33.4437 14.4301C33.4036 14.4349 33.3607 14.4348 33.3206 14.4387C33.2805 14.4425 33.25 14.4387 33.2156 14.4473C33 14.4752 32.7833 14.5001 32.5696 14.5376C32.2747 14.5875 31.8949 14.672 31.6057 14.7517C30.4037 15.0817 29.2857 15.6667 28.3269 16.4672C28.1952 16.5766 28.0673 16.6899 27.9451 16.806C27.9156 16.8339 27.885 16.8627 27.8497 16.8886C27.8417 16.8966 27.8323 16.9031 27.8221 16.9078C27.8111 16.9105 27.7996 16.9105 27.7886 16.9078C27.7829 16.9061 27.778 16.9025 27.7745 16.8977C27.7711 16.8928 27.7693 16.8869 27.7696 16.8809C27.7696 16.8406 27.7696 16.7974 27.7696 16.7571V15.9036C27.7696 15.8384 27.7696 15.7731 27.7648 15.7117C27.7604 15.6109 27.7428 15.5111 27.7123 15.415C27.644 15.1884 27.5212 14.9822 27.3547 14.8148C27.1882 14.6473 26.9833 14.5238 26.758 14.455C26.6627 14.4234 26.5635 14.405 26.4632 14.4003C26.3859 14.4003 26.3105 14.4003 26.2332 14.4003C26.1329 14.4036 26.0336 14.4214 25.9383 14.4531C25.7285 14.5152 25.5356 14.6248 25.3745 14.7736C25.2134 14.9224 25.0883 15.1064 25.0088 15.3113C24.9762 15.3875 24.9532 15.4675 24.9401 15.5494C24.9176 15.6658 24.9064 15.7841 24.9067 15.9027C24.9067 15.9382 24.9067 15.9737 24.9067 16.0083V24.4457C24.9067 24.486 24.9067 24.5283 24.9134 24.5696C24.9278 24.6691 24.9361 24.7695 24.9382 24.8701C24.9382 24.9104 24.9449 24.9526 24.9487 24.9939L24.9697 25.2233C24.9697 25.2588 24.9697 25.2944 24.9783 25.3289C25.0012 25.4633 25.0117 25.5996 25.0308 25.7331C25.0575 25.9078 25.0852 26.0844 25.1205 26.2582C25.1833 26.5778 25.2619 26.894 25.3562 27.2057C25.5786 27.948 25.8962 28.658 26.3009 29.3177C26.6916 29.953 27.1575 30.538 27.6884 31.0601C28.7226 32.0902 30.0014 32.8371 31.4034 33.2297C31.6859 33.311 31.9722 33.3788 32.2623 33.4332C32.4417 33.4668 32.6201 33.4966 32.8034 33.5196C32.9265 33.536 33.0496 33.5475 33.1717 33.5619C33.2773 33.574 33.3826 33.583 33.4876 33.5888L33.6632 33.6012C33.751 33.607 33.8387 33.6137 33.9284 33.6156L34.2834 33.6224C34.6222 33.6224 34.8951 33.6224 35.1633 33.5945C35.1862 33.5945 35.211 33.5945 35.2339 33.5945C35.4114 33.5897 35.5851 33.5648 35.7607 33.5446C35.9515 33.5216 36.1424 33.4918 36.3332 33.4563C36.6405 33.3997 36.943 33.3286 37.2427 33.2422C38.2303 32.9606 39.1607 32.5056 39.991 31.8982C40.644 31.4206 41.2363 30.8641 41.7545 30.2412C42.4147 29.4503 42.9286 28.5468 43.2718 27.5734C43.4084 27.1888 43.52 26.7957 43.6058 26.3965C43.6554 26.1699 43.6955 25.9443 43.7269 25.7148C43.7413 25.6092 43.7537 25.5027 43.767 25.399C43.7794 25.3165 43.7861 25.2349 43.7938 25.1513C43.7938 25.0985 43.8042 25.0457 43.8081 24.992C43.8119 24.9382 43.8205 24.8633 43.8224 24.8C43.831 24.608 43.8386 24.4092 43.8453 24.2134C43.8424 24.1068 43.8443 24.0041 43.8405 23.9081ZM40.8317 24.3161C40.8317 24.3564 40.825 24.3987 40.825 24.44C40.7995 24.8182 40.7424 25.1936 40.6542 25.5622C40.351 26.8032 39.6931 27.9276 38.7617 28.7965C37.8303 29.6654 36.6662 30.2408 35.4133 30.4515C35.2872 30.4759 35.1597 30.4926 35.0316 30.5014C34.6687 30.5395 34.3033 30.5485 33.939 30.5283C33.8807 30.5283 33.8216 30.5197 33.7634 30.5139C33.7338 30.5139 33.7052 30.5052 33.6756 30.5033C33.4761 30.4863 33.2779 30.4568 33.082 30.415C31.9497 30.1881 30.898 29.6619 30.0349 28.8905C29.1719 28.1191 28.5286 27.1303 28.1713 26.0259C28.078 25.7393 28.0053 25.4464 27.9537 25.1494C27.9261 24.9872 27.9041 24.8221 27.885 24.6579C27.8522 24.322 27.8439 23.9841 27.8602 23.647C27.8602 23.576 27.8707 23.5059 27.8774 23.4348C27.8774 23.4051 27.8841 23.3763 27.886 23.3465C27.9075 23.1169 27.9422 22.8886 27.99 22.663C28.0589 22.3271 28.1546 21.9974 28.2763 21.6771C28.3731 21.4231 28.4853 21.1753 28.6122 20.935C28.6647 20.839 28.7191 20.7373 28.7754 20.6403C28.8317 20.5433 28.8966 20.4368 28.9662 20.3398C29.2006 19.9991 29.4644 19.6798 29.7545 19.3856C30.5562 18.5765 31.5559 17.9944 32.6526 17.6979C32.8725 17.6374 33.0955 17.589 33.3206 17.5529C33.5294 17.5185 33.74 17.4954 33.9514 17.4838L34.1623 17.4732C34.2749 17.4684 34.3856 17.4684 34.4982 17.4732C34.6337 17.48 34.7682 17.4838 34.9037 17.4963C35.0392 17.5088 35.1499 17.5193 35.2721 17.5385C35.4286 17.5635 35.5851 17.5913 35.7406 17.6249C36.8294 17.8665 37.8381 18.3858 38.6698 19.1327C39.5016 19.8797 40.1284 20.8292 40.4901 21.8902C40.5857 22.1702 40.6613 22.4566 40.7162 22.7475C40.7544 22.9452 40.7792 23.1449 40.8116 23.3427L40.8174 23.3955C40.826 23.5318 40.8346 23.6672 40.8422 23.8035C40.8422 23.8688 40.8422 23.9341 40.8479 24.0301C40.8403 24.1001 40.8374 24.2076 40.8317 24.3132V24.3161Z" fill="white"/>
<path d="M22.6157 30.6673C22.545 30.6379 22.4714 30.616 22.3962 30.602C22.2744 30.5795 22.1508 30.5676 22.0269 30.5665C21.7616 30.5665 21.4963 30.5665 21.233 30.5665C21.1805 30.5665 21.128 30.5665 21.0745 30.5665C21.063 30.5672 21.0515 30.5649 21.0411 30.5598C21.0325 30.555 21.0287 30.5425 21.024 30.5329C21.0366 30.5062 21.0537 30.4818 21.0745 30.4609C21.2062 30.3179 21.336 30.1729 21.4562 30.0212C22.108 29.2316 22.6185 28.3341 22.965 27.3687C23.0962 27.0013 23.2043 26.6258 23.2885 26.2446C23.3374 26.0257 23.3778 25.8049 23.4096 25.5822C23.4259 25.4766 23.4373 25.37 23.4516 25.2663C23.4621 25.1905 23.4707 25.1147 23.4764 25.0369C23.4764 25.0014 23.4765 24.9659 23.485 24.9313C23.5022 24.8075 23.506 24.6836 23.5118 24.5598C23.5118 24.4638 23.5184 24.3678 23.5242 24.2718C23.5328 24.1057 23.5347 23.9396 23.5308 23.7755C23.5242 23.5383 23.5137 23.3022 23.5041 23.0651C23.5041 23.042 23.5041 23.0171 23.4984 22.994C23.4755 22.8241 23.4688 22.6532 23.4459 22.4814C23.4077 22.1934 23.3915 22.0782 23.3409 21.7979C23.2837 21.4833 23.2104 21.1718 23.1215 20.8648C22.9581 20.2958 22.7375 19.7451 22.463 19.2212C22.1616 18.6458 21.7953 18.1072 21.3713 17.6161C20.6889 16.8207 19.8754 16.1495 18.9665 15.6318C17.9783 15.0759 16.8976 14.7059 15.7773 14.5403C15.6724 14.5239 15.5665 14.5124 15.4634 14.4961C15.305 14.4731 15.1475 14.4606 14.9863 14.4452C14.8049 14.4279 14.6227 14.4183 14.4404 14.4116C13.9344 14.3936 13.4278 14.4049 12.9231 14.4452H12.8878C12.737 14.4683 12.5824 14.4702 12.4307 14.498C12.2399 14.5153 12.0585 14.5489 11.8725 14.5844C11.4967 14.6546 11.1255 14.7473 10.7607 14.8619C9.76991 15.1734 8.84263 15.6611 8.02291 16.3019C7.53632 16.6857 7.08649 17.1144 6.67929 17.5825C6.44932 17.8444 6.23457 18.1194 6.03611 18.4062C5.36109 19.3804 4.8879 20.4813 4.64477 21.6433C4.60278 21.8353 4.56557 22.0369 4.53599 22.2366C4.5064 22.4363 4.4816 22.611 4.46729 22.8001L4.46155 22.8529C4.44533 22.9585 4.44056 23.0651 4.43483 23.1707L4.41861 23.4587C4.41861 23.5297 4.41194 23.5998 4.41003 23.6727C4.40431 23.9521 4.40431 24.2296 4.42435 24.507C4.43866 24.7134 4.43865 24.9208 4.46823 25.1272C4.47491 25.276 4.49782 25.4219 4.51786 25.5687C4.54267 25.7511 4.57417 25.9307 4.60757 26.1111C4.68821 26.5341 4.79724 26.951 4.93393 27.3591C5.25072 28.3101 5.73243 29.1971 6.35675 29.979C6.76644 30.4917 7.22935 30.959 7.73759 31.3729C8.4137 31.9292 9.16776 32.3821 9.97537 32.7169C10.8216 33.0626 11.7121 33.2863 12.6206 33.3812L12.7256 33.3937L12.9012 33.411C13.0185 33.4196 13.1369 33.4273 13.2523 33.4388C13.3871 33.4516 13.5225 33.4574 13.6579 33.4561H21.9763C22.0536 33.4561 22.129 33.4561 22.2063 33.4561C22.2768 33.4533 22.3468 33.4433 22.4153 33.4263C22.7046 33.3607 22.9665 33.2063 23.1648 32.9845C23.3631 32.7626 23.488 32.4843 23.5223 32.1879C23.5433 32.0049 23.5297 31.8196 23.4822 31.6417C23.4244 31.422 23.3158 31.2192 23.1652 31.0499C23.0146 30.8805 22.8263 30.7494 22.6157 30.6673ZM20.4733 24.2305C20.472 24.3133 20.4663 24.396 20.4562 24.4782C20.4562 24.5012 20.4504 24.5262 20.4495 24.5492C20.3871 25.2449 20.2127 25.9258 19.9332 26.5652C19.5589 27.4285 19.0047 28.2009 18.3082 28.8302C17.6116 29.4596 16.7889 29.9312 15.8957 30.2132C15.6037 30.3058 15.3055 30.3773 15.0034 30.4273C14.7992 30.4609 14.596 30.4859 14.3908 30.5003C14.2381 30.5089 14.0854 30.5233 13.9642 30.5195C13.8241 30.5217 13.6839 30.5163 13.5443 30.5032L13.4737 30.4974C12.7378 30.4494 12.0158 30.273 11.34 29.9761C10.5077 29.6151 9.75897 29.0842 9.14132 28.4169C8.52367 27.7496 8.05054 26.9605 7.7519 26.0996C7.65167 25.8085 7.57132 25.5109 7.51143 25.2087C7.47326 25.011 7.44653 24.8113 7.41599 24.6116C7.41027 24.5713 7.40931 24.5291 7.4074 24.4878C7.4074 24.4292 7.40072 24.3697 7.395 24.3111C7.37367 24.0556 7.37367 23.7987 7.395 23.5432L7.40072 23.4721C7.42819 23.023 7.5037 22.5782 7.62594 22.1454C7.95845 20.9533 8.61829 19.8796 9.52975 19.0476C10.4412 18.2156 11.5674 17.6589 12.779 17.4414C12.9584 17.4097 13.1388 17.3867 13.322 17.3675C13.6443 17.3384 13.9683 17.3313 14.2915 17.3463C14.3393 17.3463 14.387 17.3531 14.4318 17.3569C14.4767 17.3608 14.5024 17.3655 14.5368 17.3675C14.777 17.3877 15.0157 17.423 15.2515 17.4731C15.6265 17.5495 15.9938 17.66 16.349 17.8033C17.191 18.1407 17.9542 18.6503 18.5903 19.2999C19.2263 19.9495 19.7213 20.725 20.0439 21.5771C20.1789 21.9306 20.2824 22.2956 20.3531 22.6676C20.3949 22.8707 20.4236 23.0762 20.439 23.283C20.4739 23.5975 20.486 23.9143 20.4733 24.2305Z" fill="white"/>
</svg>
