<svg width="32" height="32" viewBox="0 0 32 32" fill="none" xmlns="http://www.w3.org/2000/svg">
<path d="M16.036 24.8412C14.2968 24.8412 12.5966 24.3254 11.1504 23.359C9.7043 22.3925 8.57717 21.0189 7.91158 19.4117C7.246 17.8046 7.07185 16.0361 7.41116 14.33C7.75048 12.6238 8.58801 11.0567 9.81785 9.8266C11.0477 8.59654 12.6146 7.75886 14.3204 7.41949C16.0263 7.08012 17.7944 7.2543 19.4013 7.92C21.0082 8.5857 22.3816 9.71302 23.3479 11.1594C24.3142 12.6058 24.8299 14.3063 24.8299 16.0459C24.8284 18.3781 23.9014 20.6144 22.2526 22.2635C20.6037 23.9126 18.3679 24.8398 16.036 24.8412ZM16.036 7.93017C14.4312 7.93017 12.8624 8.40615 11.528 9.29791C10.1936 10.1897 9.15357 11.4572 8.53942 12.9401C7.92526 14.4231 7.76457 16.0549 8.07767 17.6292C8.39076 19.2034 9.16357 20.6495 10.2984 21.7845C11.4332 22.9195 12.879 23.6925 14.453 24.0056C16.027 24.3188 17.6586 24.1581 19.1413 23.5438C20.6239 22.9295 21.8912 21.8893 22.7828 20.5547C23.6744 19.2201 24.1503 17.651 24.1503 16.0459C24.1471 13.8944 23.2912 11.8321 21.7701 10.3108C20.2491 8.78949 18.1871 7.93341 16.036 7.93017Z" fill="#363636" stroke="#363636" stroke-width="0.5"/>
<path d="M8.02013 13.7009C7.03989 13.6999 6.1001 13.31 5.40697 12.6167C4.71384 11.9235 4.32399 10.9835 4.323 10.0031V7.59033C4.323 7.5002 4.3588 7.41376 4.42252 7.35003C4.48624 7.28629 4.57266 7.25049 4.66278 7.25049C4.7529 7.25049 4.83932 7.28629 4.90304 7.35003C4.96677 7.41376 5.00256 7.5002 5.00256 7.59033V10.0031C5.00306 10.8034 5.32114 11.5708 5.88694 12.1367C6.45273 12.7026 7.21997 13.0207 8.02013 13.0212C8.11024 13.0212 8.19667 13.057 8.26039 13.1207C8.32411 13.1845 8.35991 13.2709 8.35991 13.361C8.35991 13.4512 8.32411 13.5376 8.26039 13.6013C8.19667 13.6651 8.11024 13.7009 8.02013 13.7009Z" fill="#363636" stroke="#363636" stroke-width="0.5"/>
<path d="M24.0612 13.7009C23.9711 13.7009 23.8847 13.6651 23.821 13.6013C23.7572 13.5376 23.7214 13.4512 23.7214 13.361C23.7214 13.2709 23.7572 13.1845 23.821 13.1207C23.8847 13.057 23.9711 13.0212 24.0612 13.0212C24.8614 13.0207 25.6286 12.7026 26.1944 12.1367C26.7602 11.5708 27.0783 10.8034 27.0788 10.0031V7.59033C27.0788 7.5002 27.1146 7.41376 27.1783 7.35003C27.242 7.28629 27.3285 7.25049 27.4186 7.25049C27.5087 7.25049 27.5951 7.28629 27.6588 7.35003C27.7225 7.41376 27.7583 7.5002 27.7583 7.59033V10.0031C27.7574 10.9835 27.3675 11.9235 26.6744 12.6167C25.9813 13.31 25.0414 13.6999 24.0612 13.7009Z" fill="#363636" stroke="#363636" stroke-width="0.5"/>
<path d="M27.4186 24.8398C27.3738 24.8402 27.3295 24.8316 27.2881 24.8147C27.2467 24.7978 27.2091 24.7727 27.1775 24.7411C27.1458 24.7095 27.1208 24.6718 27.1039 24.6304C27.0869 24.589 27.0784 24.5447 27.0788 24.4999V22.0872C27.0783 21.2869 26.7602 20.5195 26.1944 19.9536C25.6286 19.3877 24.8614 19.0696 24.0612 19.0691C24.0166 19.0691 23.9724 19.0603 23.9312 19.0432C23.89 19.0261 23.8525 19.0011 23.821 18.9696C23.7894 18.938 23.7644 18.9005 23.7473 18.8593C23.7302 18.8181 23.7214 18.7739 23.7214 18.7292C23.7214 18.6846 23.7302 18.6404 23.7473 18.5992C23.7644 18.558 23.7894 18.5205 23.821 18.4889C23.8525 18.4574 23.89 18.4323 23.9312 18.4153C23.9724 18.3982 24.0166 18.3894 24.0612 18.3894C25.0414 18.3904 25.9813 18.7803 26.6744 19.4735C27.3675 20.1668 27.7574 21.1068 27.7583 22.0872V24.4999C27.7581 24.59 27.7222 24.6763 27.6586 24.74C27.5949 24.8037 27.5086 24.8395 27.4186 24.8398Z" fill="#363636" stroke="#363636" stroke-width="0.5"/>
<path d="M4.66279 24.8398C4.61807 24.8402 4.57372 24.8316 4.53232 24.8147C4.49093 24.7978 4.45332 24.7727 4.42169 24.7411C4.39006 24.7095 4.36505 24.6718 4.34811 24.6304C4.33117 24.589 4.32263 24.5447 4.32301 24.4999V22.0872C4.32401 21.1068 4.71385 20.1668 5.40698 19.4735C6.10011 18.7803 7.03991 18.3904 8.02014 18.3894C8.06476 18.3894 8.10895 18.3982 8.15017 18.4153C8.19139 18.4323 8.22885 18.4574 8.2604 18.4889C8.29195 18.5205 8.31698 18.558 8.33406 18.5992C8.35113 18.6404 8.35992 18.6846 8.35992 18.7292C8.35992 18.7739 8.35113 18.8181 8.33406 18.8593C8.31698 18.9005 8.29195 18.938 8.2604 18.9696C8.22885 19.0011 8.19139 19.0261 8.15017 19.0432C8.10895 19.0603 8.06476 19.0691 8.02014 19.0691C7.21999 19.0696 6.45275 19.3877 5.88695 19.9536C5.32115 20.5195 5.00307 21.2869 5.00257 22.0872V24.4999C5.00112 24.5896 4.96486 24.6752 4.90145 24.7387C4.83804 24.8021 4.75245 24.8383 4.66279 24.8398Z" fill="#363636" stroke="#363636" stroke-width="0.5"/>
<path d="M27.4168 7.93102C27.1238 7.93102 26.8373 7.84412 26.5937 7.6813C26.3501 7.51848 26.1602 7.28707 26.0481 7.01631C25.9359 6.74556 25.9066 6.44763 25.9638 6.1602C26.0209 5.87277 26.162 5.60875 26.3692 5.40152C26.5764 5.1943 26.8404 5.05317 27.1277 4.996C27.4151 4.93883 27.713 4.96817 27.9837 5.08032C28.2544 5.19247 28.4858 5.38239 28.6486 5.62606C28.8114 5.86973 28.8983 6.15621 28.8983 6.44928C28.8973 6.84195 28.7409 7.21826 28.4633 7.49593C28.1856 7.77359 27.8094 7.93002 27.4168 7.93102ZM27.4168 5.6538C27.2582 5.6538 27.1031 5.70084 26.9713 5.78897C26.8394 5.87711 26.7366 6.00237 26.6759 6.14893C26.6152 6.29549 26.5993 6.45675 26.6303 6.61234C26.6612 6.76792 26.7376 6.91084 26.8497 7.02301C26.9619 7.13518 27.1048 7.21156 27.2603 7.24251C27.4159 7.27346 27.5772 7.25758 27.7237 7.19688C27.8702 7.13617 27.9954 7.03336 28.0836 6.90146C28.1717 6.76957 28.2187 6.6145 28.2187 6.45586C28.2182 6.2433 28.1336 6.03958 27.9833 5.88927C27.833 5.73896 27.6293 5.6543 27.4168 5.6538Z" fill="#363636" stroke="#363636" stroke-width="0.5"/>
<path d="M28.375 16.3843H24.4943C24.4042 16.3843 24.3178 16.3485 24.2541 16.2847C24.1903 16.221 24.1545 16.1346 24.1545 16.0444C24.1545 15.9543 24.1903 15.8679 24.2541 15.8041C24.3178 15.7404 24.4042 15.7046 24.4943 15.7046H28.375C28.4651 15.7046 28.5515 15.7404 28.6152 15.8041C28.679 15.8679 28.7148 15.9543 28.7148 16.0444C28.7148 16.1346 28.679 16.221 28.6152 16.2847C28.5515 16.3485 28.4651 16.3843 28.375 16.3843Z" fill="#363636" stroke="#363636" stroke-width="0.5"/>
<path d="M7.58715 16.3843H3.70648C3.61637 16.3843 3.52994 16.3485 3.46622 16.2847C3.4025 16.221 3.3667 16.1346 3.3667 16.0444C3.3667 15.9543 3.4025 15.8679 3.46622 15.8041C3.52994 15.7404 3.61637 15.7046 3.70648 15.7046H7.58715C7.67727 15.7046 7.76369 15.7404 7.82741 15.8041C7.89113 15.8679 7.92693 15.9543 7.92693 16.0444C7.92693 16.1346 7.89113 16.221 7.82741 16.2847C7.76369 16.3485 7.67727 16.3843 7.58715 16.3843Z" fill="#363636" stroke="#363636" stroke-width="0.5"/>
<path d="M29.5195 17.5258H29.431C29.0306 17.5141 28.6509 17.3454 28.3738 17.056C28.0968 16.7666 27.9448 16.3798 27.9506 15.9793C27.9564 15.5787 28.1196 15.1964 28.4049 14.9152C28.6902 14.634 29.0747 14.4763 29.4752 14.4763C29.8758 14.4763 30.2603 14.634 30.5456 14.9152C30.8309 15.1964 30.994 15.5787 30.9998 15.9793C31.0057 16.3798 30.8536 16.7666 30.5766 17.056C30.2996 17.3454 29.9199 17.5141 29.5195 17.5258ZM29.5129 15.242C29.3154 15.2483 29.1282 15.332 28.9919 15.475C28.8555 15.6181 28.7808 15.8091 28.784 16.0067C28.7871 16.2043 28.8679 16.3928 29.0087 16.5315C29.1496 16.6701 29.3393 16.7478 29.5369 16.7478C29.7345 16.7478 29.9242 16.6701 30.0651 16.5315C30.2059 16.3928 30.2866 16.2043 30.2898 16.0067C30.2929 15.8091 30.2182 15.6181 30.0819 15.475C29.9455 15.332 29.7584 15.2483 29.5609 15.242C29.5468 15.2523 29.5336 15.242 29.5129 15.242Z" fill="#363636" stroke="#363636" stroke-width="0.5"/>
<path d="M2.56902 17.5258H2.48055C2.08015 17.5141 1.7004 17.3454 1.42339 17.056C1.14638 16.7666 0.994349 16.3798 1.00016 15.9793C1.00597 15.5787 1.16916 15.1964 1.45445 14.9152C1.73974 14.634 2.12422 14.4763 2.52478 14.4763C2.92535 14.4763 3.30983 14.634 3.59512 14.9152C3.88041 15.1964 4.0436 15.5787 4.04941 15.9793C4.05522 16.3798 3.90319 16.7666 3.62617 17.056C3.34916 17.3454 2.96942 17.5141 2.56902 17.5258ZM2.56902 15.242C2.43946 15.2423 2.31192 15.2741 2.19738 15.3347C2.08285 15.3952 1.98475 15.4827 1.91155 15.5896C1.83836 15.6966 1.79225 15.8197 1.7772 15.9484C1.76215 16.0771 1.77862 16.2075 1.82519 16.3285C1.87175 16.4494 1.94701 16.5572 2.04449 16.6425C2.14197 16.7279 2.25873 16.7883 2.38473 16.8185C2.51072 16.8486 2.64217 16.8477 2.76773 16.8158C2.8933 16.7839 3.00923 16.7219 3.10552 16.6352C3.26191 16.4929 3.35705 16.2955 3.37094 16.0845C3.37744 15.9794 3.36308 15.874 3.3287 15.7744C3.29432 15.6748 3.2406 15.583 3.17062 15.5043C3.10064 15.4255 3.01579 15.3614 2.92094 15.3156C2.8261 15.2698 2.72313 15.2431 2.61796 15.2373C2.60221 15.2425 2.58548 15.2441 2.56902 15.242Z" fill="#363636" stroke="#363636" stroke-width="0.5"/>
<path d="M16.0383 28.7239C15.9935 28.7242 15.9492 28.7157 15.9078 28.6988C15.8664 28.6818 15.8288 28.6568 15.7972 28.6252C15.7656 28.5935 15.7405 28.5559 15.7236 28.5145C15.7067 28.4731 15.6981 28.4288 15.6985 28.384V24.5027C15.6985 24.4125 15.7343 24.3261 15.798 24.2624C15.8617 24.1987 15.9482 24.1628 16.0383 24.1628C16.1284 24.1628 16.2148 24.1987 16.2785 24.2624C16.3423 24.3261 16.3781 24.4125 16.3781 24.5027V28.384C16.3784 28.4288 16.3699 28.4731 16.353 28.5145C16.336 28.5559 16.311 28.5935 16.2794 28.6252C16.2478 28.6568 16.2101 28.6818 16.1688 28.6988C16.1274 28.7157 16.083 28.7242 16.0383 28.7239Z" fill="#363636" stroke="#363636" stroke-width="0.5"/>
<path d="M16.0383 7.92992C15.9935 7.93029 15.9492 7.92176 15.9078 7.90481C15.8664 7.88787 15.8288 7.86285 15.7972 7.83122C15.7656 7.79959 15.7405 7.76197 15.7236 7.72057C15.7067 7.67917 15.6981 7.63481 15.6985 7.59008V3.70874C15.6985 3.61861 15.7343 3.53217 15.798 3.46843C15.8617 3.4047 15.9482 3.3689 16.0383 3.3689C16.1284 3.3689 16.2148 3.4047 16.2785 3.46843C16.3423 3.53217 16.3781 3.61861 16.3781 3.70874V7.59008C16.3784 7.63481 16.3699 7.67917 16.353 7.72057C16.336 7.76197 16.311 7.79959 16.2794 7.83122C16.2478 7.86285 16.2101 7.88787 16.1688 7.90481C16.1274 7.92176 16.083 7.93029 16.0383 7.92992Z" fill="#363636" stroke="#363636" stroke-width="0.5"/>
<path d="M16.0412 30.9999H15.9527C15.5523 30.9883 15.1726 30.8195 14.8956 30.5301C14.6185 30.2408 14.4665 29.854 14.4723 29.4534C14.4781 29.0528 14.6413 28.6706 14.9266 28.3893C15.2119 28.1081 15.5964 27.9504 15.9969 27.9504C16.3975 27.9504 16.782 28.1081 17.0673 28.3893C17.3526 28.6706 17.5158 29.0528 17.5216 29.4534C17.5274 29.854 17.3754 30.2408 17.0983 30.5301C16.8213 30.8195 16.4416 30.9883 16.0412 30.9999ZM15.2458 29.4777C15.2392 29.5829 15.2535 29.6883 15.2878 29.7879C15.3222 29.8876 15.3759 29.9794 15.4459 30.0582C15.5159 30.137 15.6008 30.2011 15.6957 30.2469C15.7906 30.2926 15.8936 30.3192 15.9988 30.3249C16.1039 30.3313 16.2092 30.3165 16.3085 30.2814C16.4078 30.2463 16.499 30.1916 16.5767 30.1206C16.7331 29.9783 16.8283 29.7809 16.8422 29.5699C16.848 29.4649 16.8329 29.3597 16.7979 29.2605C16.7628 29.1613 16.7085 29.07 16.6379 28.9919C16.5684 28.9133 16.4839 28.8493 16.3894 28.8037C16.2948 28.7581 16.1921 28.7318 16.0873 28.7265C15.9823 28.7207 15.8771 28.7358 15.7779 28.7708C15.6787 28.8059 15.5875 28.8602 15.5094 28.9307C15.4287 28.9978 15.3633 29.0812 15.3173 29.1755C15.2714 29.2698 15.2461 29.3728 15.243 29.4777H15.2458Z" fill="#363636" stroke="#363636" stroke-width="0.5"/>
<path d="M16.0412 4.04945H15.9527C15.5523 4.03783 15.1726 3.86909 14.8956 3.5797C14.6185 3.29031 14.4665 2.90351 14.4723 2.50292C14.4781 2.10233 14.6413 1.72011 14.9266 1.43888C15.2119 1.15765 15.5964 1 15.9969 1C16.3975 1 16.782 1.15765 17.0673 1.43888C17.3526 1.72011 17.5158 2.10233 17.5216 2.50292C17.5274 2.90351 17.3754 3.29031 17.0983 3.5797C16.8213 3.86909 16.4416 4.03783 16.0412 4.04945ZM15.243 2.52911C15.2372 2.63419 15.2522 2.73939 15.287 2.83869C15.3218 2.938 15.3759 3.02947 15.4461 3.10788C15.5163 3.18629 15.6012 3.25011 15.696 3.29569C15.7909 3.34127 15.8938 3.36773 15.9988 3.37354C16.1039 3.37935 16.2091 3.3644 16.3084 3.32956C16.4076 3.29471 16.4991 3.24065 16.5775 3.17045C16.6559 3.10026 16.7197 3.01531 16.7653 2.92045C16.8109 2.82559 16.8373 2.72268 16.8431 2.6176C16.8495 2.51249 16.8346 2.40717 16.7996 2.30789C16.7645 2.2086 16.7098 2.11737 16.6389 2.03959C16.4967 1.88431 16.3002 1.78988 16.0901 1.776C15.985 1.76951 15.8796 1.78387 15.7801 1.81825C15.6805 1.85264 15.5887 1.90637 15.51 1.97636C15.4313 2.04635 15.3672 2.13122 15.3213 2.22608C15.2755 2.32094 15.2489 2.42393 15.243 2.52911Z" fill="#363636" stroke="#363636" stroke-width="0.5"/>
<path d="M27.4164 27.1203H27.328C26.9276 27.1086 26.5478 26.9399 26.2708 26.6505C25.9938 26.3611 25.8418 25.9743 25.8476 25.5737C25.8534 25.1731 26.0166 24.7909 26.3019 24.5097C26.5872 24.2284 26.9716 24.0708 27.3722 24.0708C27.7728 24.0708 28.1573 24.2284 28.4425 24.5097C28.7278 24.7909 28.891 25.1731 28.8968 25.5737C28.9026 25.9743 28.7506 26.3611 28.4736 26.6505C28.1966 26.9399 27.8168 27.1086 27.4164 27.1203ZM27.3684 26.4406C27.5264 26.4494 27.6834 26.4111 27.8196 26.3306C27.9558 26.2501 28.065 26.131 28.1335 25.9883C28.2019 25.8457 28.2265 25.6859 28.2041 25.5293C28.1816 25.3727 28.1132 25.2262 28.0075 25.1085C27.938 25.0298 27.8535 24.9658 27.759 24.9203C27.6644 24.8747 27.5617 24.8484 27.4569 24.843C27.3519 24.8372 27.2467 24.8523 27.1475 24.8873C27.0483 24.9224 26.957 24.9767 26.879 25.0473C26.8003 25.1168 26.7364 25.2013 26.6908 25.2959C26.6452 25.3905 26.619 25.4932 26.6136 25.598C26.6078 25.7031 26.6228 25.8083 26.6579 25.9075C26.6929 26.0067 26.7473 26.0979 26.8178 26.176C26.9605 26.3323 27.1573 26.4271 27.3684 26.4406Z" fill="#363636" stroke="#363636" stroke-width="0.5"/>
<path d="M4.66375 27.1203H4.57527C4.17488 27.1086 3.79513 26.9399 3.51812 26.6505C3.24111 26.3611 3.08908 25.9743 3.09489 25.5737C3.1007 25.1731 3.26389 24.7909 3.54918 24.5097C3.83447 24.2284 4.21895 24.0708 4.61951 24.0708C5.02008 24.0708 5.40456 24.2284 5.68985 24.5097C5.97514 24.7909 6.13832 25.1731 6.14414 25.5737C6.14995 25.9743 5.99792 26.3611 5.7209 26.6505C5.44389 26.9399 5.06415 27.1086 4.66375 27.1203ZM4.61575 26.4406C4.72081 26.4464 4.82599 26.4314 4.92528 26.3966C5.02457 26.3617 5.11602 26.3077 5.19442 26.2375C5.27281 26.1673 5.33662 26.0823 5.3822 25.9875C5.42777 25.8926 5.45422 25.7897 5.46003 25.6846C5.46584 25.5795 5.45089 25.4743 5.41605 25.375C5.38122 25.2757 5.32716 25.1843 5.25698 25.1058C5.1868 25.0274 5.10186 24.9636 5.00702 24.918C4.91218 24.8725 4.80928 24.846 4.70422 24.8402C4.59913 24.8339 4.49383 24.8487 4.39456 24.8837C4.29529 24.9188 4.20408 24.9735 4.12631 25.0445C3.96992 25.1868 3.87478 25.3842 3.86089 25.5952C3.85057 25.8071 3.92408 26.0147 4.06551 26.1729C4.20694 26.3311 4.40493 26.4272 4.61669 26.4406H4.61575Z" fill="#363636" stroke="#363636" stroke-width="0.5"/>
<path d="M4.66021 7.93103H4.57174C4.17969 7.90844 3.81269 7.731 3.55145 7.43776C3.2902 7.14452 3.15613 6.7595 3.17872 6.36739C3.20132 5.97528 3.37872 5.60821 3.67191 5.34692C3.9651 5.08563 4.35006 4.95154 4.7421 4.97413C5.13351 4.9984 5.49951 5.17633 5.7604 5.46918C6.02129 5.76203 6.15596 6.1461 6.13511 6.53778C6.11282 6.91417 5.94782 7.26788 5.67375 7.52678C5.39968 7.78567 5.0372 7.93025 4.66021 7.93103ZM4.61221 7.25135C4.71734 7.25784 4.82272 7.24348 4.92228 7.2091C5.02184 7.17471 5.11363 7.12098 5.19235 7.05099C5.27108 6.981 5.33519 6.89613 5.38101 6.80127C5.42682 6.70641 5.45343 6.60342 5.45931 6.49824C5.46566 6.39313 5.45086 6.28781 5.41577 6.18853C5.38069 6.08924 5.32604 5.99801 5.25507 5.92023C5.11279 5.76381 4.91542 5.66865 4.70445 5.65476C4.59936 5.64841 4.49406 5.66321 4.39479 5.6983C4.29552 5.73339 4.2043 5.78805 4.12654 5.85904C3.97015 6.00135 3.87501 6.19875 3.86111 6.40975C3.85178 6.62047 3.92523 6.82648 4.06576 6.98374C4.20629 7.14101 4.40275 7.23705 4.61315 7.25135H4.61221Z" fill="#363636" stroke="#363636" stroke-width="0.5"/>
<path d="M16.0403 18.9106C15.4729 18.9181 14.916 18.7566 14.4405 18.4468C13.9651 18.1369 13.5925 17.6926 13.3701 17.1703C13.1478 16.6481 13.0857 16.0716 13.1918 15.514C13.2979 14.9564 13.5674 14.4429 13.9661 14.0389C14.3647 13.6349 14.8744 13.3586 15.4305 13.2451C15.9865 13.1316 16.5637 13.186 17.0888 13.4014C17.6138 13.6169 18.0629 13.9836 18.379 14.455C18.6951 14.9264 18.864 15.4812 18.864 16.0488C18.8685 16.8027 18.5737 17.5275 18.0442 18.0641C17.5148 18.6007 16.7941 18.9052 16.0403 18.9106ZM16.0403 13.8667C15.6071 13.8585 15.1813 13.9794 14.8171 14.2141C14.4529 14.4489 14.1669 14.7867 13.9954 15.1847C13.8239 15.5826 13.7747 16.0226 13.8542 16.4486C13.9336 16.8746 14.1381 17.2673 14.4415 17.5766C14.7449 17.8859 15.1335 18.0979 15.5578 18.1855C15.9821 18.2731 16.4229 18.2324 16.824 18.0685C17.2251 17.9046 17.5683 17.625 17.8099 17.2654C18.0515 16.9057 18.1806 16.4822 18.1807 16.0488C18.1852 15.4759 17.9625 14.9245 17.5613 14.5155C17.1601 14.1065 16.6132 13.8731 16.0403 13.8667Z" fill="#363636" stroke="#363636" stroke-width="0.5"/>
<path d="M17.2599 22.4263H14.8202C14.7755 22.4267 14.7312 22.4181 14.6898 22.4012C14.6484 22.3842 14.6108 22.3592 14.5791 22.3276C14.5475 22.296 14.5225 22.2583 14.5055 22.2169C14.4886 22.1755 14.4801 22.1312 14.4805 22.0864V21.033C14.1822 20.9399 13.8932 20.8192 13.6173 20.6725L12.87 21.4199C12.8068 21.4833 12.7214 21.5198 12.6319 21.5216C12.5873 21.5223 12.5431 21.5135 12.5021 21.496C12.461 21.4785 12.4241 21.4526 12.3938 21.4199L10.6676 19.6934C10.6042 19.6302 10.5677 19.5448 10.5659 19.4553C10.5653 19.4107 10.574 19.3664 10.5915 19.3254C10.609 19.2844 10.6349 19.2475 10.6676 19.2171L11.4149 18.4696C11.271 18.1924 11.1505 17.9036 11.0544 17.6064H10.0012C9.95644 17.6068 9.91209 17.5982 9.8707 17.5813C9.82931 17.5643 9.7917 17.5393 9.76007 17.5077C9.72844 17.476 9.70342 17.4384 9.68648 17.397C9.66954 17.3556 9.66101 17.3113 9.66139 17.2665V14.8189C9.66101 14.7742 9.66954 14.7298 9.68648 14.6884C9.70342 14.647 9.72844 14.6094 9.76007 14.5778C9.7917 14.5462 9.82931 14.5211 9.8707 14.5042C9.91209 14.4872 9.95644 14.4787 10.0012 14.4791H11.0544C11.1475 14.1808 11.2682 13.8918 11.4149 13.6158L10.6676 12.8684C10.6042 12.8051 10.5677 12.7198 10.5659 12.6302C10.5653 12.5856 10.574 12.5414 10.5915 12.5004C10.609 12.4593 10.6349 12.4224 10.6676 12.392L12.3938 10.6655C12.4588 10.6033 12.5452 10.5686 12.6352 10.5686C12.7251 10.5686 12.8116 10.6033 12.8766 10.6655L13.6239 11.413C13.9012 11.2691 14.1899 11.1485 14.487 11.0524V9.99903C14.4867 9.9543 14.4952 9.90994 14.5121 9.86853C14.5291 9.82713 14.5541 9.78953 14.5857 9.7579C14.6174 9.72627 14.655 9.70124 14.6964 9.6843C14.7377 9.66735 14.7821 9.65882 14.8268 9.6592H17.2665C17.3112 9.6587 17.3557 9.66714 17.3971 9.68404C17.4386 9.70094 17.4762 9.72595 17.5079 9.75761C17.5395 9.78927 17.5645 9.82693 17.5814 9.86839C17.5983 9.90985 17.6068 9.95427 17.6063 9.99903V11.0524C17.9045 11.1456 18.1935 11.2663 18.4694 11.413L19.2167 10.6655C19.2799 10.6021 19.3653 10.5657 19.4548 10.5639C19.4994 10.5632 19.5436 10.5719 19.5847 10.5895C19.6257 10.607 19.6626 10.6329 19.6929 10.6655L21.4192 12.3911C21.4515 12.4224 21.4773 12.46 21.4948 12.5014C21.5124 12.5429 21.5215 12.5875 21.5215 12.6326C21.5215 12.6776 21.5124 12.7222 21.4948 12.7637C21.4773 12.8052 21.4515 12.8427 21.4192 12.874L20.6718 13.6215C20.8157 13.8988 20.9362 14.1875 21.0323 14.4847H22.0865C22.1312 14.4844 22.1756 14.4929 22.217 14.5099C22.2584 14.5268 22.296 14.5518 22.3276 14.5834C22.3592 14.6151 22.3842 14.6527 22.4012 14.6941C22.4181 14.7355 22.4266 14.7799 22.4263 14.8246V17.2647C22.4266 17.3094 22.4181 17.3538 22.4012 17.3952C22.3842 17.4366 22.3592 17.4742 22.3276 17.5058C22.296 17.5374 22.2584 17.5625 22.217 17.5794C22.1756 17.5963 22.1312 17.6049 22.0865 17.6045H21.0323C20.9392 17.9028 20.8185 18.1918 20.6718 18.4678L21.4192 19.2152C21.4515 19.2465 21.4773 19.2841 21.4948 19.3256C21.5124 19.367 21.5215 19.4116 21.5215 19.4567C21.5215 19.5017 21.5124 19.5463 21.4948 19.5878C21.4773 19.6293 21.4515 19.6668 21.4192 19.6981L19.6864 21.4115C19.655 21.4438 19.6175 21.4696 19.576 21.4872C19.5346 21.5047 19.49 21.5138 19.4449 21.5138C19.3999 21.5138 19.3553 21.5047 19.3138 21.4872C19.2724 21.4696 19.2348 21.4438 19.2035 21.4115L18.4562 20.664C18.1789 20.8078 17.8903 20.9285 17.5931 21.0246V22.078C17.5946 22.1228 17.5871 22.1676 17.5711 22.2095C17.5551 22.2515 17.5308 22.2898 17.4998 22.3223C17.4687 22.3547 17.4315 22.3806 17.3903 22.3985C17.3491 22.4164 17.3048 22.4258 17.2599 22.4263ZM15.16 21.7466H16.9201V20.7741C16.9186 20.6982 16.9435 20.6242 16.9905 20.5646C17.0376 20.505 17.1038 20.4636 17.178 20.4475C17.5909 20.3404 17.9867 20.1756 18.3536 19.958C18.4188 19.9195 18.495 19.904 18.5701 19.9138C18.6451 19.9237 18.7147 19.9585 18.7677 20.0126L19.4539 20.6988L20.6972 19.4553L19.997 18.7624C19.9444 18.7085 19.9108 18.639 19.9009 18.5644C19.8911 18.4897 19.9056 18.4139 19.9424 18.3482C20.1595 17.981 20.3242 17.5852 20.4318 17.1724C20.4511 17.0999 20.4933 17.0356 20.5522 16.9891C20.6111 16.9426 20.6834 16.9164 20.7584 16.9145H21.7307V15.1541H20.7584C20.6825 15.1556 20.6085 15.1307 20.5489 15.0836C20.4893 15.0366 20.4479 14.9703 20.4318 14.8961C20.3247 14.4831 20.16 14.0873 19.9424 13.7203C19.9024 13.6556 19.886 13.579 19.8959 13.5035C19.9059 13.428 19.9415 13.3583 19.997 13.3061L20.6831 12.6199L19.4398 11.3763L18.7536 12.0833C18.6997 12.1358 18.6302 12.1695 18.5556 12.1793C18.481 12.1892 18.4052 12.1746 18.3395 12.1379C17.9723 11.9207 17.5766 11.7559 17.1639 11.6483C17.0914 11.6291 17.0271 11.5868 16.9806 11.5279C16.9341 11.469 16.9079 11.3967 16.906 11.3217V10.3492H15.1525V11.3217C15.154 11.3976 15.1291 11.4717 15.0821 11.5312C15.035 11.5908 14.9688 11.6322 14.8946 11.6483C14.4827 11.7584 14.0873 11.9231 13.719 12.1379C13.6542 12.1779 13.5777 12.1943 13.5022 12.1843C13.4267 12.1744 13.357 12.1387 13.3049 12.0833L12.6187 11.397L11.3754 12.6406L12.0615 13.3268C12.114 13.3808 12.1477 13.4502 12.1576 13.5249C12.1674 13.5995 12.1529 13.6753 12.1161 13.7411C11.899 14.1083 11.7342 14.504 11.6267 14.9168C11.6074 14.9893 11.5651 15.0537 11.5063 15.1002C11.4474 15.1467 11.375 15.1728 11.3001 15.1748H10.3278V16.9286H11.3001C11.3759 16.9271 11.45 16.952 11.5096 16.999C11.5692 17.0461 11.6105 17.1123 11.6267 17.1865C11.7367 17.5985 11.9013 17.9939 12.1161 18.3623C12.1561 18.4271 12.1725 18.5037 12.1626 18.5791C12.1526 18.6546 12.1169 18.7243 12.0615 18.7765L11.3754 19.4628L12.6187 20.7064L13.3049 20.0201C13.3588 19.9676 13.4282 19.9339 13.5029 19.924C13.5775 19.9142 13.6533 19.9287 13.719 19.9655C14.0861 20.1827 14.4818 20.3474 14.8946 20.455C14.9671 20.4743 15.0314 20.5166 15.0779 20.5754C15.1244 20.6343 15.1505 20.7067 15.1525 20.7817L15.16 21.7466Z" fill="#363636" stroke="#363636" stroke-width="0.5"/>
</svg>
