<svg width="48" height="30" viewBox="0 0 48 30" fill="none" xmlns="http://www.w3.org/2000/svg">
<path d="M9.92991 25.249C9.59967 25.249 9.26993 25.12 9.02287 24.8636L0.35306 15.8739C-0.117687 15.3857 -0.117687 14.613 0.35306 14.1248L9.02287 5.13508C9.50518 4.63407 10.3032 4.6193 10.8042 5.1026C11.3052 5.5859 11.3195 6.38319 10.8365 6.8842L3.01021 14.9993L10.8365 23.1145C11.3195 23.6155 11.3052 24.4128 10.8042 24.8961C10.5599 25.1318 10.2446 25.249 9.92991 25.249Z" fill="#363636"/>
<path d="M37.9462 25.249C37.6314 25.249 37.3162 25.1318 37.0719 24.8961C36.5709 24.4128 36.5566 23.6155 37.0396 23.1145L44.8659 14.9993L37.0396 6.8842C36.5566 6.38319 36.5709 5.5859 37.0719 5.1026C37.5726 4.6193 38.3709 4.63407 38.8532 5.13508L47.523 14.1248C47.9938 14.613 47.9938 15.3857 47.523 15.8739L38.8532 24.8636C38.6062 25.12 38.2764 25.249 37.9462 25.249Z" fill="#363636"/>
<path d="M17.0925 30C16.9038 30 16.7121 29.9572 16.5317 29.8671C15.9089 29.5571 15.6554 28.8006 15.9657 28.1775L29.6585 0.69855C29.9688 0.0759739 30.7247 -0.178471 31.348 0.133064C31.9709 0.443122 32.2243 1.19956 31.914 1.82263L18.2213 29.3016C18.0008 29.7436 17.5554 30 17.0925 30Z" fill="#363636"/>
</svg>
