<svg width="30" height="30" viewBox="0 0 30 30" fill="none" xmlns="http://www.w3.org/2000/svg">
<path d="M26.948 29.9746H3.3796C3.03426 29.9747 2.69228 29.9063 2.37321 29.7734C2.05413 29.6405 1.76422 29.4456 1.52003 29.2C1.27583 28.9543 1.08213 28.6626 0.950012 28.3417C0.817888 28.0207 0.749924 27.6766 0.75 27.3292V3.61997C0.749924 3.27256 0.817888 2.92853 0.950012 2.60754C1.08213 2.28655 1.27583 1.9949 1.52003 1.74924C1.76422 1.50358 2.05413 1.30872 2.37321 1.17581C2.69228 1.04289 3.03426 0.974533 3.3796 0.974609H26.948C27.2934 0.974533 27.6354 1.04289 27.9544 1.17581C28.2735 1.30872 28.5634 1.50358 28.8076 1.74924C29.0518 1.9949 29.2455 2.28655 29.3776 2.60754C29.5098 2.92853 29.5777 3.27256 29.5776 3.61997V27.3292C29.5776 27.6766 29.5096 28.0206 29.3775 28.3416C29.2453 28.6625 29.0516 28.9541 28.8074 29.1998C28.5633 29.4454 28.2734 29.6403 27.9543 29.7732C27.6353 29.9062 27.2934 29.9746 26.948 29.9746Z" fill="white"/>
<path d="M27.0798 15.4166C27.0758 15.2704 27.0694 15.1231 27.0636 14.9769C27.0636 14.963 27.0636 14.9479 27.0608 14.934C27.0469 14.8273 27.0469 14.7194 27.0279 14.6138C27.0175 14.492 26.9973 14.3726 26.976 14.2531C26.9431 14.0663 26.9028 13.8813 26.8526 13.6992C26.6131 12.8071 26.1523 11.9908 25.5133 11.327C24.771 10.5443 23.8061 10.0119 22.7511 9.80275C22.6537 9.78245 22.5557 9.76446 22.4571 9.74938C22.3873 9.73894 22.317 9.72676 22.2461 9.71922C22.1429 9.70878 22.0414 9.6937 21.9382 9.68906L21.8851 9.68501C21.8396 9.68153 21.7929 9.67747 21.7473 9.67515C21.6049 9.66993 21.4631 9.66529 21.3207 9.66761C21.1463 9.66607 20.972 9.67362 20.7984 9.69023C20.7741 9.69313 20.7482 9.69311 20.724 9.69543C20.6998 9.69775 20.6813 9.69543 20.6606 9.70065C20.5303 9.71747 20.3994 9.73257 20.2703 9.75519C20.0921 9.78535 19.8626 9.83638 19.6879 9.88452C18.9617 10.084 18.2863 10.4373 17.7069 10.921C17.6274 10.9871 17.5501 11.0555 17.4763 11.1257C17.4585 11.1425 17.44 11.1599 17.4187 11.1756C17.4138 11.1804 17.4082 11.1844 17.402 11.1872C17.3953 11.1888 17.3884 11.1888 17.3818 11.1872C17.3783 11.1862 17.3753 11.184 17.3732 11.1811C17.3712 11.1781 17.3701 11.1746 17.3703 11.171C17.3703 11.1466 17.3703 11.1205 17.3703 11.0961V10.5805C17.3703 10.5411 17.3703 10.5016 17.3674 10.4645C17.3647 10.4036 17.3541 10.3434 17.3357 10.2853C17.2944 10.1484 17.2202 10.0238 17.1196 9.92265C17.019 9.82148 16.8952 9.74684 16.7591 9.70531C16.7015 9.68621 16.6416 9.67508 16.581 9.67224C16.5343 9.67224 16.4887 9.67224 16.442 9.67224C16.3814 9.67426 16.3214 9.68499 16.2639 9.70414C16.1371 9.74167 16.0206 9.80791 15.9232 9.8978C15.8259 9.98768 15.7503 10.0988 15.7023 10.2227C15.6826 10.2687 15.6687 10.317 15.6608 10.3665C15.6472 10.4368 15.6404 10.5083 15.6406 10.5799C15.6406 10.6014 15.6406 10.6229 15.6406 10.6437V15.7414C15.6406 15.7657 15.6406 15.7912 15.6447 15.8162C15.6534 15.8763 15.6584 15.937 15.6596 15.9977C15.6596 16.0221 15.6637 16.0476 15.666 16.0725L15.6787 16.2112C15.6787 16.2326 15.6787 16.2541 15.6839 16.275C15.6977 16.3562 15.7041 16.4385 15.7156 16.5191C15.7317 16.6247 15.7484 16.7314 15.7698 16.8364C15.8077 17.0295 15.8552 17.2206 15.9122 17.4089C16.0465 17.8573 16.2384 18.2863 16.483 18.6849C16.7189 19.0686 17.0004 19.4221 17.3212 19.7376C17.946 20.3599 18.7187 20.8111 19.5657 21.0484C19.7364 21.0975 19.9093 21.1384 20.0846 21.1713C20.193 21.1916 20.3008 21.2096 20.4115 21.2235C20.4859 21.2334 20.5602 21.2403 20.634 21.249C20.6978 21.2564 20.7615 21.2618 20.8249 21.2653L20.931 21.2728C20.984 21.2763 21.037 21.2804 21.0912 21.2815L21.3057 21.2856C21.5104 21.2856 21.6753 21.2856 21.8373 21.2688C21.8511 21.2688 21.8661 21.2688 21.88 21.2688C21.9872 21.2659 22.0921 21.2508 22.1982 21.2386C22.3135 21.2247 22.4288 21.2067 22.5441 21.1852C22.7298 21.151 22.9125 21.1081 23.0936 21.0559C23.6903 20.8857 24.2524 20.6108 24.754 20.2439C25.1485 19.9553 25.5064 19.6191 25.8195 19.2428C26.2183 18.765 26.5288 18.2191 26.7362 17.631C26.8187 17.3986 26.8861 17.1611 26.938 16.9199C26.9679 16.783 26.9921 16.6467 27.0112 16.5081C27.0198 16.4443 27.0273 16.3799 27.0354 16.3173C27.0429 16.2674 27.0469 16.2181 27.0515 16.1677C27.0515 16.1358 27.0579 16.1039 27.0602 16.0714C27.0625 16.0389 27.0677 15.9936 27.0688 15.9554C27.074 15.8394 27.0786 15.7193 27.0827 15.601C27.0809 15.5366 27.0821 15.4746 27.0798 15.4166ZM25.2619 15.6631C25.2619 15.6874 25.2579 15.7129 25.2579 15.7379C25.2425 15.9664 25.208 16.1932 25.1547 16.4159C24.9715 17.1656 24.574 17.845 24.0113 18.37C23.4486 18.8949 22.7453 19.2425 21.9883 19.3698C21.9121 19.3846 21.8351 19.3947 21.7577 19.4C21.5385 19.423 21.3177 19.4284 21.0976 19.4162C21.0624 19.4162 21.0267 19.411 20.9915 19.4075C20.9736 19.4075 20.9563 19.4023 20.9385 19.4012C20.8179 19.3908 20.6982 19.373 20.5799 19.3478C19.8958 19.2107 19.2603 18.8928 18.7389 18.4267C18.2175 17.9607 17.8288 17.3633 17.613 16.696C17.5566 16.5229 17.5127 16.346 17.4815 16.1665C17.4648 16.0685 17.4515 15.9687 17.44 15.8695C17.4202 15.6666 17.4151 15.4625 17.425 15.2588C17.425 15.2159 17.4314 15.1735 17.4354 15.1306C17.4354 15.1126 17.4394 15.0952 17.4406 15.0773C17.4536 14.9385 17.4746 14.8006 17.5034 14.6643C17.545 14.4614 17.6029 14.2622 17.6764 14.0686C17.7349 13.9152 17.8027 13.7655 17.8793 13.6203C17.911 13.5623 17.9439 13.5008 17.9779 13.4422C18.0119 13.3837 18.0511 13.3193 18.0932 13.2607C18.2348 13.0548 18.3942 12.8619 18.5695 12.6842C19.0539 12.1954 19.6578 11.8437 20.3204 11.6645C20.4533 11.628 20.588 11.5988 20.724 11.577C20.8502 11.5561 20.9774 11.5422 21.1051 11.5352L21.2325 11.5288C21.3005 11.5259 21.3674 11.5259 21.4354 11.5288C21.5173 11.5329 21.5986 11.5352 21.6805 11.5427C21.7623 11.5503 21.8292 11.5567 21.903 11.5683C21.9976 11.5833 22.0921 11.6002 22.1861 11.6205C22.8439 11.7664 23.4533 12.0801 23.9558 12.5314C24.4583 12.9827 24.837 13.5564 25.0555 14.1974C25.1134 14.3665 25.159 14.5396 25.1922 14.7153C25.2152 14.8348 25.2302 14.9555 25.2498 15.0749L25.2533 15.1068C25.2585 15.1892 25.2637 15.271 25.2683 15.3533C25.2683 15.3928 25.2683 15.4322 25.2717 15.4902C25.2671 15.5326 25.2654 15.5975 25.2619 15.6613V15.6631Z" fill="#081524"/>
<path d="M14.2512 19.5C14.2085 19.4822 14.1641 19.469 14.1186 19.4606C14.045 19.4469 13.9704 19.4398 13.8955 19.4391C13.7352 19.4391 13.575 19.4391 13.4158 19.4391C13.3841 19.4391 13.3524 19.4391 13.3201 19.4391C13.3132 19.4395 13.3062 19.4381 13.2999 19.435C13.2948 19.4321 13.2925 19.4246 13.2896 19.4188C13.2972 19.4026 13.3075 19.3879 13.3201 19.3753C13.3997 19.2889 13.4781 19.2013 13.5507 19.1096C13.9445 18.6326 14.2529 18.0903 14.4623 17.5071C14.5416 17.2851 14.6069 17.0582 14.6577 16.8279C14.6873 16.6957 14.7117 16.5623 14.7309 16.4277C14.7407 16.3639 14.7476 16.2995 14.7563 16.2369C14.7626 16.1911 14.7678 16.1453 14.7713 16.0983C14.7713 16.0768 14.7713 16.0554 14.7765 16.0345C14.7869 15.9597 14.7892 15.8848 14.7926 15.81C14.7926 15.752 14.7967 15.694 14.8001 15.636C14.8053 15.5357 14.8064 15.4353 14.8041 15.3362C14.8001 15.1929 14.7938 15.0502 14.788 14.907C14.788 14.893 14.788 14.878 14.7845 14.864C14.7707 14.7614 14.7667 14.6581 14.7528 14.5543C14.7298 14.3803 14.72 14.3107 14.6894 14.1414C14.6548 13.9513 14.6105 13.7631 14.5568 13.5776C14.4581 13.2339 14.3248 12.9012 14.159 12.5846C13.9769 12.237 13.7556 11.9116 13.4994 11.6149C13.0871 11.1344 12.5956 10.7288 12.0465 10.416C11.4495 10.0802 10.7965 9.85666 10.1197 9.75656C10.0563 9.7467 9.99233 9.73975 9.93006 9.72989C9.83436 9.71597 9.73923 9.70842 9.64179 9.69914C9.53225 9.6887 9.42213 9.6829 9.31201 9.67884C9.00631 9.66799 8.70024 9.67477 8.39531 9.69914H8.37398C8.28288 9.71306 8.18949 9.71424 8.09782 9.73106C7.98251 9.7415 7.87296 9.76179 7.76054 9.78325C7.53354 9.82565 7.30925 9.88162 7.08887 9.95088C6.49025 10.1391 5.93002 10.4337 5.43477 10.8209C5.14079 11.0528 4.86901 11.3118 4.623 11.5946C4.48406 11.7528 4.35432 11.919 4.23441 12.0922C3.82658 12.6808 3.5407 13.3459 3.39381 14.048C3.36844 14.164 3.34596 14.2858 3.32809 14.4064C3.31021 14.5271 3.29523 14.6326 3.28658 14.7469L3.28312 14.7788C3.27331 14.8426 3.27043 14.907 3.26697 14.9708L3.25717 15.1448C3.25717 15.1877 3.25314 15.23 3.25199 15.2741C3.24853 15.4429 3.24853 15.6105 3.26064 15.7781C3.26929 15.9028 3.26928 16.0281 3.28715 16.1528C3.29119 16.2427 3.30503 16.3309 3.31713 16.4196C3.33212 16.5298 3.35116 16.6383 3.37133 16.7473C3.42006 17.0028 3.48593 17.2547 3.56851 17.5013C3.7599 18.0758 4.05094 18.6117 4.42813 19.0841C4.67566 19.3939 4.95533 19.6762 5.26239 19.9263C5.67088 20.2624 6.12645 20.536 6.61438 20.7383C7.12564 20.9472 7.66368 21.0823 8.21255 21.1396L8.27597 21.1472L8.38205 21.1576C8.45297 21.1629 8.52446 21.1675 8.59422 21.1744C8.67566 21.1822 8.75745 21.1857 8.83925 21.1849H13.865C13.9117 21.1849 13.9572 21.1849 14.0039 21.1849C14.0465 21.1832 14.0888 21.1772 14.1302 21.1669C14.305 21.1273 14.4632 21.034 14.583 20.8999C14.7028 20.7659 14.7783 20.5977 14.799 20.4187C14.8117 20.3081 14.8034 20.1962 14.7747 20.0887C14.7398 19.956 14.6742 19.8334 14.5832 19.7311C14.4922 19.6288 14.3785 19.5496 14.2512 19.5ZM12.9569 15.6111C12.9561 15.6611 12.9527 15.7111 12.9465 15.7607C12.9465 15.7747 12.9431 15.7897 12.9425 15.8036C12.9048 16.224 12.7994 16.6353 12.6306 17.0216C12.4044 17.5432 12.0696 18.0099 11.6488 18.3901C11.228 18.7703 10.7309 19.0553 10.1912 19.2257C10.0148 19.2816 9.83469 19.3248 9.65217 19.355C9.52879 19.3753 9.40599 19.3904 9.28204 19.3991C9.18979 19.4043 9.09754 19.413 9.02432 19.4107C8.93964 19.412 8.85496 19.4087 8.77064 19.4008L8.72797 19.3973C8.28335 19.3683 7.84714 19.2618 7.43883 19.0824C6.93598 18.8643 6.48364 18.5435 6.11048 18.1404C5.73731 17.7372 5.45147 17.2605 5.27104 16.7404C5.21048 16.5645 5.16194 16.3846 5.12575 16.2021C5.10269 16.0826 5.08654 15.962 5.06809 15.8413C5.06463 15.817 5.06405 15.7915 5.0629 15.7665C5.0629 15.7311 5.05887 15.6952 5.05541 15.6598C5.04252 15.5054 5.04252 15.3502 5.05541 15.1958L5.05886 15.1529C5.07546 14.8816 5.12108 14.6128 5.19493 14.3513C5.39583 13.6311 5.79448 12.9824 6.34516 12.4797C6.89583 11.9771 7.57622 11.6407 8.30825 11.5093C8.41664 11.4902 8.52561 11.4763 8.6363 11.4647C8.83105 11.4471 9.02676 11.4428 9.22207 11.4519C9.2509 11.4519 9.27973 11.456 9.30683 11.4583C9.33392 11.4606 9.34949 11.4635 9.37025 11.4647C9.51537 11.4769 9.65958 11.4982 9.80207 11.5285C10.0286 11.5746 10.2505 11.6414 10.4651 11.728C10.9738 11.9318 11.435 12.2397 11.8192 12.6322C12.2035 13.0247 12.5026 13.4932 12.6975 14.008C12.779 14.2216 12.8416 14.4421 12.8843 14.6668C12.9095 14.7895 12.9268 14.9137 12.9362 15.0386C12.9573 15.2287 12.9646 15.42 12.9569 15.6111Z" fill="#081524"/>
</svg>
