<svg width="40" height="30" viewBox="0 0 40 30" fill="none" xmlns="http://www.w3.org/2000/svg">
<path d="M33.3111 0H1.92078C1.41153 0.000571866 0.923306 0.203121 0.563214 0.563213C0.203123 0.923304 0.000571866 1.41153 0 1.92078L0 22.8473C0.000571866 23.3566 0.203123 23.8448 0.563214 24.2049C0.923306 24.565 1.41153 24.7675 1.92078 24.7681H12.9971L12.4969 28.7739H11.7299C11.5718 28.7805 11.4223 28.848 11.3128 28.9622C11.2032 29.0765 11.1421 29.2286 11.1421 29.3869C11.1421 29.5452 11.2032 29.6974 11.3128 29.8116C11.4223 29.9259 11.5718 29.9934 11.7299 30H15C15.1581 29.9934 15.3076 29.9259 15.4172 29.8116C15.5267 29.6974 15.5879 29.5452 15.5879 29.3869C15.5879 29.2286 15.5267 29.0765 15.4172 28.9622C15.3076 28.848 15.1581 28.7805 15 28.7739H13.7328L14.233 24.7681H15C15.1581 24.7615 15.3076 24.694 15.4172 24.5797C15.5267 24.4655 15.5879 24.3133 15.5879 24.155C15.5879 23.9967 15.5267 23.8446 15.4172 23.7303C15.3076 23.6161 15.1581 23.5486 15 23.542H1.92078C1.73664 23.5417 1.56012 23.4684 1.42991 23.3382C1.29971 23.208 1.22643 23.0315 1.22614 22.8473V20.8444H15C15.1581 20.8378 15.3076 20.7703 15.4172 20.6561C15.5267 20.5418 15.5879 20.3897 15.5879 20.2314C15.5879 20.0731 15.5267 19.9209 15.4172 19.8067C15.3076 19.6924 15.1581 19.6249 15 19.6183H1.22614V1.92078C1.22643 1.73664 1.29971 1.56012 1.42991 1.42991C1.56012 1.2997 1.73664 1.22643 1.92078 1.22614H33.3111C33.4953 1.22643 33.6718 1.2997 33.802 1.42991C33.9322 1.56012 34.0055 1.73664 34.0058 1.92078V15C34.0023 15.0827 34.0156 15.1652 34.0448 15.2426C34.0741 15.32 34.1187 15.3907 34.1759 15.4504C34.2332 15.5102 34.302 15.5577 34.3781 15.5902C34.4542 15.6226 34.5361 15.6394 34.6188 15.6394C34.7016 15.6394 34.7835 15.6226 34.8596 15.5902C34.9357 15.5577 35.0045 15.5102 35.0617 15.4504C35.119 15.3907 35.1636 15.32 35.1928 15.2426C35.2221 15.1652 35.2354 15.0827 35.2319 15V1.92078C35.2313 1.41153 35.0288 0.923304 34.6687 0.563213C34.3086 0.203121 33.8204 0.000571866 33.3111 0Z" fill="#363636"/>
<path d="M28.0827 11.7681H18.9271C18.4179 11.7686 17.9297 11.9712 17.5696 12.3313C17.2095 12.6914 17.0069 13.1796 17.0063 13.6888V28.0752C17.0069 28.5845 17.2095 29.0727 17.5696 29.4328C17.9297 29.7929 18.4179 29.9954 18.9271 29.996H28.0827C28.5919 29.9954 29.0802 29.7929 29.4402 29.4328C29.8003 29.0727 30.0029 28.5845 30.0035 28.0752V13.6888C30.0029 13.1796 29.8003 12.6914 29.4402 12.3313C29.0802 11.9712 28.5919 11.7686 28.0827 11.7681ZM28.7773 28.0806C28.777 28.2648 28.7038 28.4413 28.5736 28.5715C28.4434 28.7017 28.2668 28.775 28.0827 28.7753H18.9271C18.743 28.775 18.5665 28.7017 18.4363 28.5715C18.3061 28.4413 18.2328 28.2648 18.2325 28.0806V27.386H28.7773V28.0806ZM28.7773 26.1598H18.2325V15.615H28.7773V26.1598ZM28.7773 14.3846H18.2325V13.6899C18.2328 13.5058 18.3061 13.3293 18.4363 13.1991C18.5665 13.0688 18.743 12.9956 18.9271 12.9953H28.0827C28.2668 12.9956 28.4434 13.0688 28.5736 13.1991C28.7038 13.3293 28.777 13.5058 28.7773 13.6899V14.3846Z" fill="#363636"/>
<path d="M37.2316 17.0015H33.308C32.7988 17.002 32.3105 17.2046 31.9504 17.5647C31.5903 17.9248 31.3878 18.413 31.3872 18.9223V28.0778C31.3878 28.5871 31.5903 29.0753 31.9504 29.4354C32.3105 29.7955 32.7988 29.998 33.308 29.9986H37.2316C37.7409 29.998 38.2291 29.7955 38.5892 29.4354C38.9493 29.0753 39.1519 28.5871 39.1524 28.0778V18.9223C39.1519 18.413 38.9493 17.9248 38.5892 17.5647C38.2291 17.2046 37.7409 17.002 37.2316 17.0015ZM37.9263 28.0778C37.926 28.262 37.8527 28.4385 37.7225 28.5687C37.5923 28.6989 37.4158 28.7722 37.2316 28.7725H33.308C33.1239 28.7722 32.9473 28.6989 32.8171 28.5687C32.6869 28.4385 32.6136 28.262 32.6134 28.0778V27.3853H37.9263V28.08V28.0778ZM37.9263 26.157H32.6134V20.8441H37.9263V26.157ZM37.9263 19.618H32.6134V18.9233C32.6136 18.7392 32.6869 18.5627 32.8171 18.4325C32.9473 18.3023 33.1239 18.229 33.308 18.2287H37.2316C37.4158 18.229 37.5923 18.3023 37.7225 18.4325C37.8527 18.5627 37.926 18.7392 37.9263 18.9233V19.618Z" fill="#363636"/>
</svg>
