<svg width="20" height="20" viewBox="0 0 20 20" fill="none" xmlns="http://www.w3.org/2000/svg">
<g clip-path="url(#clip0_1_4633)">
<path d="M10.4444 17.36L6.34441 17.3L5.44441 17.28C4.76441 17.2667 4.25107 17.2534 3.90441 17.24C3.33107 17.2 2.82441 17.1334 2.38441 17.04C1.78441 16.9067 1.31107 16.62 0.964407 16.18C0.684407 15.82 0.47774 15.3334 0.344407 14.72C0.264407 14.3467 0.191074 13.78 0.124407 13.02L0.104407 12.9C-0.095593 10.4467 -0.00892632 8.0467 0.364407 5.70003C0.471074 5.03337 0.731074 4.51003 1.14441 4.13003C1.55774 3.75003 2.09107 3.53337 2.74441 3.48003C6.61107 3.21337 11.0511 3.17337 16.0644 3.36003C16.3711 3.36003 16.8311 3.41337 17.4444 3.52003C18.1244 3.64003 18.6511 3.94003 19.0244 4.42003C19.3311 4.82003 19.5511 5.36003 19.6844 6.04003C19.7777 6.44003 19.8511 7.06003 19.9044 7.90003L19.9244 8.16003C20.0844 10.0667 20.0177 12.02 19.7244 14.02C19.6444 14.6467 19.5311 15.1467 19.3844 15.52C19.2111 15.9867 18.9711 16.3534 18.6644 16.62C18.3044 16.9134 17.8377 17.08 17.2644 17.12C15.8644 17.2134 14.7311 17.28 13.8644 17.32C12.6244 17.3734 11.4911 17.3934 10.4644 17.38C10.4644 17.3667 10.4577 17.36 10.4444 17.36ZM8.04441 13.3C8.80441 12.8467 9.93774 12.18 11.4444 11.3L13.1444 10.3L8.04441 7.30003V13.3Z" fill="white"/>
</g>
<defs>
<clipPath id="clip0_1_4633">
<rect width="20" height="20" fill="white" transform="matrix(1 0 0 -1 0 20)"/>
</clipPath>
</defs>
</svg>
