<svg width="20" height="20" viewBox="0 0 20 20" fill="none" xmlns="http://www.w3.org/2000/svg">
<path d="M5.58 0.779726C4.56667 0.779726 3.62667 1.03306 2.76 1.53973C1.92 2.03306 1.25333 2.69973 0.76 3.53973C0.253333 4.40639 0 5.34639 0 6.35973V13.6397C0 14.6531 0.253333 15.5931 0.76 16.4597C1.25333 17.2997 1.92 17.9664 2.76 18.4597C3.62667 18.9664 4.56667 19.2197 5.58 19.2197H12.86C13.8733 19.2197 14.8133 18.9664 15.68 18.4597C16.52 17.9664 17.1867 17.2997 17.68 16.4597C18.1867 15.5931 18.44 14.6531 18.44 13.6397V6.35973C18.44 5.34639 18.1867 4.40639 17.68 3.53973C17.1867 2.69973 16.52 2.03306 15.68 1.53973C14.8133 1.03306 13.8733 0.779726 12.86 0.779726H5.58ZM14.08 4.17973C14.3467 4.17973 14.5733 4.27306 14.76 4.45973C14.9467 4.64639 15.04 4.87306 15.04 5.13973C15.04 5.40639 14.9467 5.63639 14.76 5.82973C14.5733 6.02306 14.3467 6.11973 14.08 6.11973C13.8133 6.11973 13.5833 6.02306 13.39 5.82973C13.1967 5.63639 13.1 5.40639 13.1 5.13973C13.1 4.87306 13.1967 4.64639 13.39 4.45973C13.5833 4.27306 13.8133 4.17973 14.08 4.17973ZM9.22 5.13973C10.1 5.13973 10.9133 5.35639 11.66 5.78973C12.4067 6.22306 12.9967 6.81306 13.43 7.55973C13.8633 8.30639 14.08 9.11973 14.08 9.99973C14.08 10.8797 13.8633 11.6897 13.43 12.4297C12.9967 13.1697 12.4067 13.7564 11.66 14.1897C10.9133 14.6231 10.1 14.8397 9.22 14.8397C8.34 14.8397 7.53 14.6231 6.79 14.1897C6.05 13.7564 5.46333 13.1697 5.03 12.4297C4.59667 11.6897 4.38 10.8797 4.38 9.99973C4.38 9.11973 4.59667 8.30639 5.03 7.55973C5.46333 6.81306 6.05 6.22306 6.79 5.78973C7.53 5.35639 8.34 5.13973 9.22 5.13973ZM9.22 6.59973C8.80667 6.59973 8.37333 6.68639 7.92 6.85973C7.48 7.05973 7.11 7.30973 6.81 7.60973C6.51 7.90973 6.26667 8.27306 6.08 8.69973C5.90667 9.15306 5.82 9.58639 5.82 9.99973C5.82 10.4131 5.90667 10.8464 6.08 11.2997C6.28 11.7397 6.52667 12.1064 6.82 12.3997C7.11333 12.6931 7.48 12.9397 7.92 13.1397C8.37333 13.3131 8.80667 13.3997 9.22 13.3997C9.63333 13.3997 10.0667 13.3131 10.52 13.1397C10.9467 12.9531 11.31 12.7097 11.61 12.4097C11.91 12.1097 12.16 11.7397 12.36 11.2997C12.5333 10.8464 12.62 10.4131 12.62 9.99973C12.62 9.58639 12.5333 9.15306 12.36 8.69973C12.1867 8.27306 11.9433 7.90306 11.63 7.58973C11.3167 7.27639 10.9467 7.03306 10.52 6.85973C10.0667 6.68639 9.63333 6.59973 9.22 6.59973Z" fill="white"/>
</svg>
