<svg width="80" height="80" viewBox="0 0 80 80" fill="none" xmlns="http://www.w3.org/2000/svg">
<g clip-path="url(#clip0_1_4547)">
<path d="M39.8454 11.667C47.219 11.675 54.2877 14.6107 59.4973 19.8289C64.707 25.047 67.6313 32.1204 67.6273 39.494C67.6233 46.8675 64.6914 53.9378 59.4761 59.1503C54.2608 64.3628 47.189 67.2909 39.8154 67.2909C32.4418 67.2909 25.37 64.3628 20.1547 59.1503C14.9394 53.9378 12.0074 46.8675 12.0034 39.494C11.9994 32.1204 14.9237 25.047 20.1334 19.8289C25.3431 14.6107 32.4117 11.675 39.7853 11.667H39.8454ZM30.4956 53.7607C36.527 51.6181 43.1123 51.6181 49.1437 53.7607L50.0109 50.499C50.4109 50.499 50.7773 50.4897 51.1468 50.499C51.5272 50.4676 51.9101 50.49 52.2843 50.5654C52.0239 51.9187 51.6941 53.2577 51.296 54.5771C52.3233 55.1443 53.3436 55.6575 54.3147 56.2536C55.2858 56.8497 56.2037 57.5192 57.142 58.1559C59.7276 55.7763 61.7907 52.8856 63.2006 49.6668C64.6105 46.4481 65.3364 42.9716 65.3323 39.4576C65.3281 35.9437 64.5941 32.4688 63.1767 29.2534C61.7593 26.038 59.6894 23.1521 57.0982 20.7785C55.3064 22.1885 53.354 23.3817 51.2819 24.3332C51.6726 25.7284 52.0515 27.0675 52.2975 28.4432H49.9898C49.8492 27.8878 49.7211 27.3557 49.5796 26.8292C49.4587 26.279 49.2973 25.7385 49.0968 25.212C43.0792 27.3444 36.5111 27.3411 30.4956 25.2027L29.6253 28.4737C29.2253 28.4737 28.8558 28.4737 28.4879 28.4737C28.1199 28.4737 27.7363 28.4643 27.2887 28.4573L28.3371 24.3207C26.2696 23.3733 24.3234 22.1809 22.5403 20.7692C19.9471 23.1461 17.8765 26.0364 16.4599 29.2564C15.0434 32.4763 14.3119 35.9557 14.3119 39.4735C14.3119 42.9913 15.0434 46.4706 16.4599 49.6906C17.8765 52.9106 19.9471 55.8008 22.5403 58.1778C24.3365 56.767 26.292 55.5718 28.3668 54.6169C27.9502 53.2672 27.6057 51.8963 27.3347 50.51H29.6371L30.4956 53.7607ZM48.3453 23.0418C48.3319 22.9511 48.3128 22.8613 48.2883 22.773C47.5816 20.87 46.6137 19.0745 45.4125 17.438C44.6394 16.3633 43.6642 15.4497 42.5415 14.7482C41.7734 14.2497 40.8828 13.9727 39.9675 13.9475C39.0522 13.9222 38.1477 14.1498 37.3533 14.6052C36.3116 15.1898 35.3933 15.9712 34.6495 16.906C33.4552 18.3843 32.4816 20.0279 31.7589 21.7855C31.5886 22.1762 31.4331 22.5793 31.2519 23.023C36.7768 25.0062 42.8185 25.0125 48.3476 23.041L48.3453 23.0418ZM31.2769 55.9169C31.3159 56.0497 31.3316 56.1278 31.3597 56.1989C32.0193 57.9646 32.9008 59.6392 33.9831 61.1824C34.6912 62.2024 35.5582 63.1023 36.551 63.848C37.4617 64.5856 38.5954 64.9929 39.7673 65.0035C40.9391 65.0142 42.08 64.6275 43.004 63.9066C43.7248 63.391 44.376 62.7844 44.9414 62.1019C46.3802 60.3217 47.514 58.3154 48.2968 56.1646C48.3191 56.0824 48.3343 55.9985 48.3422 55.9138C42.8231 53.9495 36.7952 53.9506 31.2769 55.9169ZM46.325 64.0988C49.5931 63.2767 52.6557 61.7872 55.3202 59.7239C53.8571 58.587 52.2699 57.6196 50.589 56.8403C49.9507 58.1411 49.364 59.4098 48.714 60.6442C48.0411 61.8766 47.2406 63.035 46.3258 64.1003L46.325 64.0988ZM33.3393 64.1082C32.4153 63.0543 31.6107 61.9015 30.9402 60.6707C30.2761 59.4262 29.6902 58.1419 29.0527 56.8372C27.3708 57.6175 25.7826 58.5856 24.3184 59.7231C26.992 61.7895 30.0629 63.2818 33.3393 64.1082ZM50.5054 22.1105C51.7351 21.6957 54.8202 19.784 55.2491 19.1747C52.5966 17.1335 49.5522 15.6605 46.3055 14.8474C48.1156 17.0076 49.5365 19.466 50.5046 22.1129L50.5054 22.1105ZM33.2932 14.8622C30.0425 15.6794 26.9956 17.1593 24.3434 19.209C25.7961 20.3965 27.4138 21.3663 29.1457 22.0879C30.1111 19.4628 31.5134 17.0198 33.2932 14.8622Z" fill="#D9D9D9"/>
<path d="M54.6378 75.0175C54.6425 75.86 54.4628 76.6933 54.1112 77.4589C53.7867 78.1838 53.2662 78.8037 52.6084 79.2489C51.9505 79.694 51.1815 79.9466 50.3879 79.9784C49.8112 80.0319 49.2295 79.9843 48.6692 79.8377C47.9617 79.6613 47.3118 79.3049 46.7826 78.8032C46.2534 78.3015 45.8629 77.6716 45.6489 76.9745C45.2117 75.6998 45.2048 74.3169 45.6294 73.0379C45.8861 72.1916 46.3963 71.4443 47.091 70.897C47.7857 70.3497 48.6315 70.0286 49.5145 69.977C50.4821 69.8721 51.4587 70.0659 52.3128 70.5325C52.8759 70.8501 53.3616 71.2885 53.735 71.8163C54.1084 72.3441 54.3601 72.948 54.4722 73.5847C54.5628 74.0535 54.5839 74.5402 54.6378 75.0175ZM48.6075 74.9644L48.6856 74.9707C48.6856 75.3402 48.6614 75.7113 48.6903 76.0792C48.6953 76.7234 48.8325 77.3597 49.0934 77.9487C49.1666 78.1113 49.2842 78.2499 49.4326 78.3487C49.581 78.4475 49.7542 78.5025 49.9324 78.5073C50.1195 78.5196 50.3059 78.4737 50.4658 78.3757C50.6257 78.2778 50.7513 78.1327 50.8254 77.9604C50.9552 77.7029 51.0491 77.4287 51.1043 77.1456C51.323 75.861 51.347 74.5507 51.1754 73.259C51.1181 72.8465 51.0103 72.4427 50.8543 72.0567C50.7958 71.8789 50.682 71.7246 50.5294 71.6162C50.3769 71.5079 50.1937 71.4511 50.0066 71.4543C49.8124 71.4472 49.6206 71.4989 49.4564 71.6028C49.2921 71.7067 49.1631 71.8578 49.0864 72.0363C48.9779 72.2337 48.9034 72.4479 48.866 72.6699C48.7621 73.4332 48.6879 74.198 48.6036 74.9628L48.6075 74.9644Z" fill="#D9D9D9"/>
<path d="M44.428 75.0143C44.4813 75.8693 44.3134 76.7235 43.9405 77.4947C43.6022 78.2317 43.0613 78.8572 42.3808 79.2982C41.7003 79.7393 40.9084 79.9776 40.0976 79.9853C39.3566 80.0399 38.613 79.9222 37.925 79.6416C37.3491 79.405 36.8326 79.0443 36.4122 78.5852C35.9918 78.126 35.6779 77.5798 35.493 76.9854C35.0623 75.7261 35.0486 74.3617 35.4539 73.094C35.7083 72.2123 36.2369 71.4345 36.9632 70.8734C37.6894 70.3124 38.5755 69.9973 39.4929 69.9738C40.1926 69.9029 40.8992 69.999 41.5546 70.2542C42.21 70.5094 42.7955 70.9164 43.2632 71.4417C43.9517 72.24 44.3588 73.2425 44.4217 74.2948C44.4444 74.53 44.428 74.7729 44.428 75.0143ZM41.1616 75.1018C41.1179 74.4214 41.1163 73.9026 41.0437 73.3972C40.9821 72.9532 40.875 72.5169 40.7241 72.0948C40.6677 71.9072 40.5519 71.7429 40.3941 71.6267C40.2363 71.5105 40.0451 71.4486 39.8491 71.4503C39.6453 71.4417 39.4441 71.4994 39.2758 71.6148C39.1075 71.7301 38.9811 71.8969 38.9156 72.0902C38.7679 72.4114 38.6727 72.7543 38.6335 73.1058C38.5734 74.1456 38.5382 75.1909 38.5554 76.2307C38.5436 76.8291 38.6777 77.4214 38.946 77.9564C39.0185 78.1202 39.1359 78.26 39.2847 78.3596C39.4335 78.4591 39.6076 78.5143 39.7866 78.5187C39.9655 78.5232 40.1421 78.4766 40.2957 78.3845C40.4492 78.2925 40.5734 78.1586 40.6538 77.9986C40.8083 77.7342 40.9102 77.4424 40.9538 77.1393C41.053 76.4073 41.1046 75.6713 41.1577 75.0995L41.1616 75.1018Z" fill="#D9D9D9"/>
<path d="M17.032 72.2293C17.0861 72.2513 17.142 72.2686 17.1992 72.2808C17.3326 72.2789 17.4651 72.3032 17.5892 72.3525C17.7132 72.4018 17.8263 72.475 17.922 72.568C18.0177 72.6611 18.0941 72.772 18.1469 72.8946C18.1997 73.0171 18.2278 73.1489 18.2296 73.2824C18.2296 73.3167 18.2296 73.3503 18.2296 73.3831C18.2524 73.7001 18.159 74.0145 17.9669 74.2676C17.7749 74.5208 17.4973 74.6954 17.1859 74.7589C16.9632 74.7963 16.737 74.8078 16.5117 74.7933C16.1691 74.7851 15.8418 74.6502 15.5929 74.4147C15.344 74.1792 15.1912 73.8599 15.1641 73.5183C15.0995 73.0694 15.1477 72.6116 15.3041 72.186C15.4605 71.7604 15.7203 71.3803 16.0601 71.0801C16.7893 70.4322 17.716 70.0498 18.6898 69.9949C19.865 69.8332 21.0605 70.0694 22.0858 70.666C22.6366 70.9813 23.0675 71.47 23.3113 72.056C23.5551 72.6419 23.598 73.2921 23.4334 73.905C23.3518 74.2264 23.2052 74.5278 23.0025 74.7903C22.7999 75.0529 22.5456 75.2711 22.2553 75.4315C21.5862 75.8197 20.8703 76.1208 20.1249 76.3276C19.5866 76.4932 19.0413 76.6401 18.5148 76.8362C18.0201 76.9762 17.5959 77.2964 17.3257 77.7338C17.4315 77.7083 17.5358 77.677 17.6382 77.6401C18.5054 77.2314 19.4892 77.1426 20.4155 77.3893C20.7107 77.47 21.0098 77.5354 21.3116 77.5854C21.9647 77.6823 22.2256 77.4674 22.303 76.7964C22.3139 76.7011 22.3194 76.6049 22.3334 76.4479C22.8342 76.4135 23.3369 76.4156 23.8373 76.4542C23.9623 77.3058 23.8332 78.1755 23.4662 78.9541C23.2745 79.274 23.0019 79.5377 22.676 79.7189C22.35 79.9 21.9821 79.9922 21.6092 79.9861C20.8685 80.035 20.1251 79.9454 19.4171 79.7221C18.9538 79.5893 18.4921 79.44 18.0203 79.3432C17.5484 79.2463 17.0742 79.1869 16.7843 79.6994H15.1852C15.1147 78.9696 15.2523 78.2348 15.582 77.5799C15.9965 76.8283 16.5959 76.1948 17.3234 75.7394C17.8664 75.3651 18.4367 75.03 18.9906 74.673C19.1965 74.5467 19.395 74.4088 19.5851 74.2597C19.79 74.101 19.9537 73.8954 20.0625 73.6602C20.1712 73.425 20.2219 73.167 20.2101 72.9081C20.2146 72.6726 20.1485 72.4412 20.0202 72.2436C19.892 72.046 19.7075 71.8913 19.4905 71.7996C19.0862 71.6101 18.6333 71.5496 18.1935 71.6265C17.7536 71.7034 17.3481 71.9138 17.032 72.2293Z" fill="#D9D9D9"/>
<path d="M27.4026 70.2376C27.4221 70.5501 27.437 70.7931 27.4542 71.1009C27.5183 71.0499 27.5783 70.994 27.6338 70.9337C27.8964 70.5719 28.2622 70.2978 28.6831 70.1472C29.1041 69.9967 29.5607 69.9767 29.9932 70.09C30.4633 70.1941 30.9265 70.3277 31.3799 70.49C31.6556 70.5744 31.9267 70.6697 32.2009 70.7658C32.3109 70.8099 32.4313 70.8209 32.5474 70.7973C32.6635 70.7737 32.7701 70.7165 32.8541 70.6329L33.0158 70.2572H34.2345C34.3205 70.5223 34.3071 70.8097 34.197 71.0658C33.9134 71.7118 33.633 72.3618 33.3025 72.9837C32.8798 73.7774 32.3939 74.5391 31.9611 75.3274C31.3459 76.5194 31.0189 77.8391 31.0064 79.1804C31.0002 79.3367 30.99 79.4929 30.9807 79.6796H27.8651C27.7889 79.3179 27.7773 78.9455 27.8307 78.5797C27.9226 77.1992 28.5217 75.9014 29.5127 74.936C30.1674 74.293 30.8478 73.6774 31.5135 73.0469C31.6627 72.9048 31.8002 72.7509 32.0252 72.5173C31.8338 72.561 31.7533 72.5704 31.6767 72.5954C31.011 72.7942 30.3063 72.8242 29.626 72.6829C29.2646 72.6128 28.8994 72.5635 28.5323 72.5352C28.4121 72.5206 28.2903 72.5298 28.1737 72.5623C28.0571 72.5948 27.948 72.65 27.8528 72.7246C27.7575 72.7993 27.6779 72.892 27.6185 72.9974C27.5591 73.1029 27.521 73.219 27.5065 73.3391C27.5065 73.3438 27.5065 73.3485 27.5065 73.3524C27.4611 73.589 27.4319 73.8283 27.419 74.0688C27.4042 74.2251 27.4042 74.3813 27.3948 74.5649H25.7222V70.2572C25.9995 70.2509 26.269 70.2408 26.5339 70.2361L27.4026 70.2376Z" fill="#D9D9D9"/>
<path d="M57.1362 71.4699C58.0323 71.3269 58.9229 71.1926 59.3784 70.2598H61.7955C61.8033 70.4379 61.8151 70.6082 61.8166 70.7801C61.8166 72.9675 61.8166 75.155 61.8166 77.3424C61.8166 77.4557 61.8166 77.5674 61.8166 77.6807C61.833 78.1729 61.9853 78.3369 62.4877 78.3674C62.722 78.3823 62.9658 78.3674 63.2299 78.3674C63.2815 78.7867 63.2951 79.2098 63.2705 79.6315C62.8869 79.7268 57.937 79.7596 57.1448 79.6752V78.4252C57.5886 78.2823 58.1042 78.4963 58.6065 78.1674C58.6711 77.9964 58.7136 77.8179 58.7331 77.6362C58.7464 76.1081 58.7409 74.5792 58.7393 73.0511C58.7301 72.9716 58.7133 72.8931 58.6893 72.8168H57.1362V71.4699Z" fill="#D9D9D9"/>
<path d="M39.5218 0.000389292L40.2312 2.89565H40.3351L41.121 0.0472644H43.0616V4.96904H41.8577V1.48474C41.4202 2.6105 41.1546 3.78391 40.7984 4.95342H39.6898L38.8304 1.41208H38.7281C38.7234 1.69879 38.7164 1.98551 38.7133 2.27144C38.7101 2.55737 38.7086 2.85111 38.7054 3.14173C38.7054 3.44798 38.7055 3.75422 38.6945 4.06047C38.6812 4.34562 38.6492 4.63077 38.6219 4.95967L37.5508 4.90107C37.446 3.26841 37.446 1.63071 37.5508 -0.00195312L39.5218 0.000389292Z" fill="#D9D9D9"/>
<path d="M64.6338 15.4801L63.5807 14.5372L64.0096 11.3341L63.9253 11.2982L62.1526 13.2388L61.1128 12.2794L64.4604 8.58887L65.4987 9.5576L65.0533 12.7653L65.1315 12.8091L66.9283 10.8521L67.9845 11.7982L64.6338 15.4801Z" fill="#D9D9D9"/>
<path d="M18.8268 9.17475L17.294 7.08807L18.4283 6.2373L21.3853 10.2357L20.2478 11.0911L17.076 9.99114C17.6174 10.8091 18.1698 11.4833 18.6916 12.227L17.5588 13.0731L14.5972 9.07475L15.7346 8.23258L18.7416 9.27475L18.8268 9.17475Z" fill="#D9D9D9"/>
<path d="M76.2815 41.3893C75.6803 42.0556 74.9005 42.5352 74.0347 42.7713V41.1362L75.6112 40.3292C75.733 40.2856 75.8426 40.2136 75.9311 40.1191C76.0195 40.0247 76.0842 39.9106 76.1198 39.7862C76.1279 39.6887 76.1279 39.5907 76.1198 39.4933H74.1557C74.1043 38.9882 74.1022 38.4793 74.1495 37.9738C75.8073 37.9152 77.4307 38.0777 79.094 38.0566C79.094 38.5425 79.1018 38.9738 79.094 39.4042C79.0807 39.9355 79.0518 40.4651 79.0275 40.9956C79.0253 41.092 79.0183 41.1882 79.0065 41.2838C79.0002 41.5855 78.8841 41.8745 78.68 42.0966C78.4759 42.3188 78.1979 42.459 77.8979 42.4909C77.57 42.5603 77.228 42.5036 76.94 42.3322C76.6521 42.1608 76.4393 41.8872 76.344 41.5659C76.3268 41.5128 76.3073 41.4557 76.2815 41.3893ZM77.8494 40.9206C77.9832 40.7268 78.0692 40.5041 78.1004 40.2707C78.1316 40.0373 78.1072 39.7998 78.0291 39.5776L77.1221 39.5175C77.0131 39.8056 76.9911 40.1193 77.0588 40.4198C77.1611 40.937 77.2823 41.0174 77.8494 40.9206Z" fill="#D9D9D9"/>
<path d="M31.2769 0.875251C32.1534 0.72916 32.9729 0.590098 33.7963 0.460413C34.0649 0.411842 34.3368 0.384156 34.6096 0.377603C34.8936 0.355799 35.1763 0.434097 35.4086 0.598914C35.6409 0.763731 35.8082 1.00467 35.8814 1.27993C35.9775 1.5646 35.9784 1.87279 35.884 2.158C35.7896 2.44322 35.605 2.69001 35.358 2.86115C35.2705 2.92287 35.1799 2.97755 35.076 3.04396C35.8482 3.49702 36.4676 4.17028 36.8549 4.97751C36.5775 5.02908 36.3166 5.08142 36.0549 5.12673C35.7932 5.17204 35.5166 5.21423 35.2174 5.26266C34.8463 4.78611 34.4705 4.30643 34.0979 3.82519C34.0172 3.68505 33.887 3.5802 33.7328 3.53133C33.5787 3.48245 33.4118 3.49309 33.2651 3.56114L33.5667 5.52985L32.0823 5.7775L31.2769 0.875251ZM34.4666 2.02366C34.4213 1.62836 34.2448 1.41743 33.9284 1.43852C33.5846 1.42727 33.2431 1.49825 32.9323 1.64555L33.112 2.60647C33.6588 2.52209 34.1971 2.57287 34.4666 2.02366Z" fill="#D9D9D9"/>
<path d="M25.3159 4.24787C25.3237 2.56274 26.8651 1.85495 28.151 1.82604C29.7533 1.78542 30.5314 3.21742 30.5728 4.64864C30.6213 6.23611 29.2447 7.01891 27.6987 7.07047C26.2214 7.11734 25.3901 5.72127 25.3159 4.24787ZM29.0987 4.8541C29.0775 4.33859 28.9094 3.83986 28.6143 3.41663C28.484 3.24101 28.2988 3.1139 28.0881 3.05546C27.8774 2.99701 27.6532 3.01057 27.451 3.09398C27.2493 3.1578 27.0744 3.28644 26.9533 3.45992C26.8322 3.6334 26.7718 3.84201 26.7815 4.05334C26.8023 4.58612 26.9885 5.0992 27.3143 5.52128C27.4414 5.68997 27.6224 5.81009 27.8272 5.86168C28.032 5.91327 28.2482 5.89322 28.4401 5.80487C28.6431 5.74765 28.8199 5.62137 28.9398 5.44781C29.0597 5.27425 29.1154 5.06428 29.0971 4.8541H29.0987Z" fill="#D9D9D9"/>
<path d="M62.2436 8.12062C62.2158 8.65193 62.0524 9.16728 61.7691 9.61759C61.4858 10.0679 61.0918 10.4382 60.6249 10.6932C60.3814 10.8213 60.114 10.8974 59.8396 10.9169C59.5651 10.9364 59.2896 10.8988 59.0304 10.8065C58.4265 10.6217 57.8835 10.2776 57.4586 9.81043C57.2122 9.55215 57.0368 9.2346 56.9494 8.88857C56.8619 8.54254 56.8654 8.17977 56.9594 7.83546C57.115 7.17173 57.4761 6.57406 57.9914 6.12769C58.2818 5.85603 58.6428 5.67165 59.0331 5.59566C59.4234 5.51967 59.8273 5.55514 60.1984 5.69801C60.8141 5.9004 61.3589 6.27477 61.7687 6.77689C62.0877 7.15068 62.2569 7.62939 62.2436 8.12062ZM60.8374 7.92921C60.8374 7.2261 60.0242 6.54408 59.3437 6.96673C59.0585 7.13573 58.8171 7.3696 58.6391 7.64935C58.4612 7.9291 58.3517 8.24687 58.3195 8.57686C58.3118 8.74574 58.3466 8.91385 58.4207 9.06579C58.4948 9.21773 58.6059 9.34863 58.7438 9.44651C58.8816 9.54439 59.0418 9.60611 59.2097 9.62601C59.3776 9.64592 59.5477 9.62336 59.7046 9.56043C60.0026 9.38962 60.2589 9.15462 60.4549 8.87248C60.6508 8.59034 60.7815 8.26813 60.8374 7.92921Z" fill="#D9D9D9"/>
<path d="M3.28408 46.7485C2.73796 46.8016 2.1918 46.6476 1.75392 46.317C1.31603 45.9863 1.0184 45.5032 0.920065 44.9634C0.812986 44.5434 0.777337 44.1084 0.814602 43.6767C0.834121 43.1958 1.01984 42.7365 1.34009 42.3772C1.66034 42.0179 2.09531 41.7808 2.57082 41.7064C3.02109 41.5832 3.49103 41.549 3.95438 41.6056C4.36592 41.6459 4.75627 41.8073 5.0761 42.0695C5.39592 42.3316 5.63086 42.6826 5.75122 43.0782C5.93635 43.5964 6.00074 44.1501 5.9395 44.6969C5.90755 45.0767 5.77289 45.4406 5.54994 45.7497C5.327 46.0588 5.02418 46.3014 4.6739 46.4516C4.24114 46.6606 3.76446 46.7624 3.28408 46.7485ZM3.65517 43.072C3.21904 43.0603 2.78707 43.1595 2.39972 43.3603C2.22792 43.4674 2.09269 43.6242 2.01192 43.8099C1.93115 43.9955 1.90865 44.2013 1.94739 44.4001C1.96862 44.6025 2.05623 44.7922 2.19656 44.9396C2.33688 45.087 2.52204 45.1838 2.72315 45.2149C3.23289 45.3117 3.76006 45.2495 4.23328 45.0368C4.42268 44.9623 4.58253 44.8279 4.68846 44.6542C4.79439 44.4804 4.84058 44.2768 4.81999 44.0743C4.79109 43.4212 4.39031 43.0751 3.65517 43.072Z" fill="#D9D9D9"/>
<path d="M79.0287 36.119C78.674 36.1792 78.3631 36.2354 78.0498 36.2808C77.3827 36.3776 76.7131 36.48 76.0444 36.5628C75.7984 36.6117 75.5451 36.6116 75.2992 36.5623C75.0532 36.5131 74.8194 36.4157 74.6112 36.2758C74.403 36.1359 74.2245 35.9562 74.0859 35.7471C73.9474 35.538 73.8515 35.3036 73.8038 35.0574C73.7036 34.5866 73.653 34.1066 73.6531 33.6253C73.6395 33.2746 73.7415 32.9291 73.9435 32.6419C74.1455 32.3548 74.4362 32.142 74.771 32.0363C75.2768 31.8807 75.7952 31.7691 76.3202 31.7027C76.9702 31.5957 77.6241 31.523 78.2772 31.4355C78.4653 31.9018 78.5423 32.4054 78.5022 32.9066C77.8154 33.0074 77.1186 33.1058 76.4202 33.2082C76.1171 33.2519 75.8108 33.2746 75.5147 33.341C75.2907 33.3705 75.0875 33.4879 74.9499 33.6672C74.8124 33.8465 74.7516 34.0731 74.7811 34.2972C74.7941 34.4005 74.8265 34.5004 74.8764 34.5917C74.9292 34.7462 75.0332 34.878 75.1712 34.9653C75.3092 35.0525 75.4728 35.09 75.635 35.0714C76.0514 35.037 76.4647 34.9808 76.8796 34.9238C77.4045 34.8527 77.9295 34.7675 78.4545 34.6972C78.5732 34.6899 78.6921 34.6899 78.8108 34.6972L79.0287 36.119Z" fill="#D9D9D9"/>
<path d="M73.3385 24.8827L72.2627 22.7265L71.3502 23.1773L72.5221 25.5522L71.5729 26.0366C71.528 25.981 71.4867 25.9226 71.4495 25.8616C70.8698 24.6898 70.2925 23.5249 69.6831 22.2968L74.1549 20.0938L75.9681 23.7749L75.0556 24.2366L73.8893 21.9234L73.1502 22.2812L74.2049 24.439L73.3385 24.8827Z" fill="#D9D9D9"/>
<path d="M72.1281 19.3533L71.3149 18.3213C71.5821 17.683 71.5141 17.2604 71.1219 17.0315C70.9047 16.9049 70.8094 16.9409 70.55 17.2658L70.7657 17.919C70.8969 18.3158 71.0524 18.7064 71.1563 19.1095C71.2352 19.3577 71.2403 19.6235 71.171 19.8746C71.1016 20.1256 70.9608 20.3511 70.7657 20.5236C70.5598 20.7197 70.3032 20.8542 70.0249 20.9121C69.7466 20.9699 69.4576 20.9487 69.1907 20.8509C68.9783 20.7776 68.7803 20.6679 68.6055 20.5267C68.0404 20.0652 67.6254 19.446 67.4134 18.7478C67.3159 18.4222 67.3263 18.0737 67.4432 17.7545C67.56 17.4353 67.7771 17.1625 68.0618 16.9768L68.904 18.0377C68.679 18.3635 68.4571 18.6924 68.6446 19.1002C68.6952 19.2457 68.7846 19.3747 68.9032 19.4731C69.0217 19.5715 69.1649 19.6357 69.3173 19.6588C69.7501 19.4916 69.8602 19.3166 69.7532 18.9041C69.6883 18.6564 69.5602 18.4244 69.5008 18.1768C69.3909 17.776 69.3146 17.3668 69.2727 16.9533C69.2732 16.7637 69.3175 16.5768 69.4023 16.4072C69.487 16.2376 69.6098 16.0899 69.7611 15.9757C69.9124 15.8614 70.0882 15.7838 70.2745 15.7487C70.4608 15.7137 70.6527 15.7222 70.8352 15.7737C71.0078 15.8127 71.1723 15.8817 71.3211 15.9776C72.0458 16.4767 72.5461 17.2398 72.7148 18.1033C72.7402 18.3454 72.6989 18.5897 72.5955 18.81C72.4921 19.0303 72.3305 19.2181 72.1281 19.3533Z" fill="#D9D9D9"/>
<path d="M2.93778 48.2455L3.41433 49.5384C3.23177 49.6324 3.09297 49.7937 3.02734 49.9883C2.96171 50.1828 2.97442 50.3953 3.06277 50.5806C3.1823 50.8431 3.27215 50.8931 3.63152 50.8837C3.89089 50.6845 3.81979 50.4025 3.81588 50.1322C3.7942 49.6375 3.79916 49.142 3.83072 48.6478C3.87077 48.3926 3.9777 48.1526 4.14063 47.9521C4.30355 47.7517 4.51665 47.598 4.75826 47.5066C4.99987 47.4153 5.26138 47.3895 5.51617 47.432C5.77095 47.4746 6.00993 47.5838 6.20881 47.7486C6.38967 47.8831 6.54453 48.0493 6.66582 48.2392C7.10384 48.9236 7.29665 49.7364 7.2127 50.5447C7.16028 50.8371 7.02883 51.1096 6.83259 51.3327C6.63636 51.5558 6.38281 51.721 6.09943 51.8103L5.61038 50.5189C6.39161 49.8431 6.38302 49.1658 5.60257 48.8197C5.17289 48.9462 5.09086 49.0306 5.07602 49.4384C5.0643 49.7595 5.09867 50.0829 5.08383 50.404C5.08082 50.7091 5.046 51.0131 4.97993 51.311C4.90056 51.6356 4.69567 51.9155 4.41021 52.0892C4.12476 52.2629 3.78205 52.3163 3.4573 52.2376C3.30019 52.1986 3.1518 52.1305 3.01981 52.0368C2.84524 51.9213 2.695 51.7727 2.57762 51.5993C2.12897 50.9408 1.92601 50.1455 2.0042 49.3525C2.0373 49.0979 2.14291 48.8582 2.30843 48.6619C2.47395 48.4656 2.69241 48.3211 2.93778 48.2455Z" fill="#D9D9D9"/>
<path d="M48.901 6.07528L47.3877 5.78388C47.3393 5.4667 47.3002 5.20186 47.258 4.92452L45.5393 4.59719L45.0854 5.35342L43.6128 5.05968L46.3721 0.533203L47.9908 0.84101C48.3197 2.55973 48.608 4.27844 48.901 6.07528ZM47.1432 3.84564C47.1364 3.2397 47.0397 2.63812 46.8565 2.06052L46.0385 3.61595L47.1432 3.84564Z" fill="#D9D9D9"/>
<path d="M8.12076 24.0589C7.8567 23.9971 7.5864 23.9565 7.32859 23.8706C6.703 23.66 6.12071 23.3379 5.60988 22.9198C5.28591 22.7 5.05173 22.3712 4.95006 21.9931C4.84838 21.6151 4.88597 21.2131 5.05598 20.8605C5.16626 20.5764 5.31504 20.3088 5.49816 20.0652C5.67418 19.8118 5.92251 19.6174 6.21072 19.5073C6.49892 19.3972 6.81362 19.3765 7.11374 19.448C7.98469 19.6261 8.79127 20.0364 9.44808 20.6355C9.75509 20.8655 9.96748 21.1998 10.0453 21.5754C10.1232 21.9511 10.0611 22.3422 9.87073 22.6753C9.73474 22.9651 9.56451 23.2376 9.3637 23.487C9.21206 23.6687 9.02181 23.8143 8.80679 23.9132C8.59178 24.0122 8.35741 24.0619 8.12076 24.0589ZM8.30904 22.7932C8.66373 22.8065 8.85591 22.7104 8.95044 22.487C9.00338 22.3675 9.0146 22.2336 8.98229 22.107C8.94998 21.9803 8.87603 21.8682 8.77231 21.7886C8.16746 21.2572 7.4492 20.8711 6.67236 20.6597C6.54771 20.6187 6.41259 20.623 6.29082 20.6719C6.16905 20.7208 6.06845 20.8111 6.00674 20.9269C5.94917 21.0245 5.92335 21.1376 5.93287 21.2506C5.94239 21.3635 5.98676 21.4707 6.05986 21.5573C6.10518 21.6235 6.16023 21.6825 6.22314 21.7323C6.78095 22.1659 7.40371 22.5086 8.06841 22.7479C8.14667 22.7706 8.22704 22.7853 8.30826 22.7917L8.30904 22.7932Z" fill="#D9D9D9"/>
<path d="M74.7626 29.4924V30.7322C74.3693 30.8335 73.9529 30.7944 73.5853 30.6217C73.2177 30.449 72.9218 30.1535 72.7486 29.7861C72.5118 29.3272 72.3726 28.8242 72.34 28.3088C72.3034 27.9042 72.3862 27.4978 72.5782 27.1398C72.7703 26.7818 73.0631 26.488 73.4205 26.2948C73.9851 25.9427 74.6412 25.7653 75.3064 25.7846C75.5811 25.7845 75.8527 25.8425 76.1034 25.9548C76.3541 26.0671 76.5782 26.2311 76.761 26.4362C77.3052 27.0438 77.5891 27.8408 77.5516 28.6557C77.5354 28.9697 77.4418 29.2749 77.279 29.544C77.1162 29.813 76.8895 30.0377 76.6188 30.1978L75.9564 29.0525C76.0181 28.983 76.0728 28.926 76.1235 28.8666C76.2564 28.7207 76.3412 28.5376 76.3665 28.3419C76.3918 28.1462 76.3564 27.9475 76.265 27.7727C76.1736 27.5978 76.0307 27.4553 75.8556 27.3643C75.6805 27.2734 75.4817 27.2385 75.286 27.2643C74.8294 27.3504 74.3863 27.4975 73.9689 27.7018C73.7883 27.7808 73.6431 27.9236 73.5613 28.1029C73.4794 28.2822 73.4665 28.4854 73.5252 28.6736C73.5561 28.8661 73.6472 29.0438 73.7855 29.1812C73.9237 29.3187 74.102 29.4087 74.2947 29.4385C74.4353 29.4635 74.5767 29.4697 74.7626 29.4924Z" fill="#D9D9D9"/>
<path d="M5.93648 28.4774C5.03188 28.3813 4.1691 28.0464 3.43653 27.5071C3.19605 27.3404 3.01196 27.1045 2.90871 26.8308C2.80545 26.557 2.78791 26.2583 2.85841 25.9743C2.92784 25.6297 3.03663 25.2941 3.18263 24.9743C3.31881 24.6602 3.5561 24.4006 3.85676 24.2368C4.15742 24.0731 4.5042 24.0145 4.84197 24.0704C5.69429 24.1481 6.51224 24.4441 7.21693 24.9298C7.54382 25.1143 7.7942 25.4093 7.92308 25.7619C8.05195 26.1144 8.05087 26.5014 7.92004 26.8532C7.85914 27.0694 7.78075 27.2802 7.68566 27.4837C7.5388 27.8147 7.28964 28.0898 6.97478 28.2687C6.65993 28.4476 6.29599 28.5207 5.93648 28.4774ZM6.26851 27.2274C6.65912 27.2274 6.86303 27.0946 6.95209 26.8485C6.99521 26.7343 6.99837 26.6089 6.96105 26.4927C6.92374 26.3765 6.84815 26.2764 6.74662 26.2087C6.60096 26.0834 6.43909 25.9783 6.26538 25.8962C5.88336 25.7329 5.48962 25.5884 5.09353 25.4509C4.91056 25.39 4.72222 25.3465 4.53104 25.3212C4.38776 25.2946 4.23969 25.3174 4.11109 25.386C3.98249 25.4545 3.88099 25.5647 3.82324 25.6985C3.72949 25.9329 3.80059 26.1509 4.06621 26.3681C4.17497 26.4646 4.29804 26.5436 4.43104 26.6024C4.92374 26.7951 5.41853 26.9792 5.91539 27.1548C6.03092 27.1898 6.14897 27.2159 6.26851 27.2329V27.2274Z" fill="#D9D9D9"/>
<path d="M2.21622 36.657L1.98811 37.9195C1.78228 37.9049 1.5816 37.8484 1.3984 37.7534C1.21521 37.6585 1.05337 37.5271 0.922838 37.3673C0.792302 37.2075 0.695823 37.0227 0.63934 36.8242C0.582856 36.6257 0.567561 36.4178 0.594387 36.2132C0.604025 35.8115 0.661194 35.4124 0.764698 35.0242C0.818585 34.7952 0.929445 34.5835 1.087 34.4087C1.24455 34.234 1.44368 34.1019 1.66593 34.0247C1.88817 33.9474 2.12632 33.9276 2.35828 33.967C2.59024 34.0064 2.80848 34.1037 2.99277 34.25C3.35719 34.5431 3.6572 34.9083 3.87401 35.3226C4.05994 35.6195 4.24665 35.9156 4.46227 36.2601C4.69664 35.8968 4.5904 35.5523 4.64196 35.2343C4.69509 34.9039 4.72009 34.5687 4.75837 34.1734L5.83725 34.232C5.71069 35.632 5.59116 36.9718 5.46772 38.3632C4.99145 38.2641 4.55516 38.0263 4.21384 37.6796C3.89276 37.3218 3.61463 36.9249 3.32948 36.5374C3.15761 36.3031 3.0084 36.0546 2.84668 35.8164C2.79267 35.7364 2.73204 35.6612 2.66544 35.5914C2.57943 35.4835 2.46394 35.403 2.33301 35.3596C2.20208 35.3162 2.06136 35.3118 1.92795 35.3469C1.81323 35.3876 1.71342 35.4619 1.64152 35.5601C1.56963 35.6583 1.52896 35.7759 1.52483 35.8976C1.51995 36.0358 1.5593 36.1719 1.63715 36.2861C1.715 36.4003 1.82727 36.4868 1.95764 36.5327C2.03029 36.5617 2.09982 36.5984 2.21622 36.657Z" fill="#D9D9D9"/>
<path d="M23.9791 5.4361L24.4244 6.27983L22.7167 7.20325L23.6463 9.00478L22.3182 9.71414L20.0034 5.30797L23.351 3.55176L23.8471 4.45096L21.8542 5.51734L22.2589 6.32436L23.9791 5.4361Z" fill="#D9D9D9"/>
<path d="M72.8448 54.5244L70.9409 53.6916L71.5401 52.3174L73.4682 53.1353L76.8807 52.5307L76.2151 54.0424L74.2495 54.3111L75.3885 55.9283L74.7307 57.4563L72.8448 54.5244Z" fill="#D9D9D9"/>
<path d="M51.5565 7.02567L50.1386 6.54287L51.3276 3.02731C50.8497 2.80361 50.3608 2.60414 49.8628 2.42967L50.2448 1.32812L54.6596 2.82966L54.2776 3.95229L52.7791 3.46636L51.5565 7.02567Z" fill="#D9D9D9"/>
<path d="M73.169 47.2656L76.8127 48.2179L77.2369 46.7031L78.3791 47.0031L77.2072 51.4991L76.0486 51.2171L76.4393 49.689L72.8003 48.7187L73.169 47.2656Z" fill="#D9D9D9"/>
<path d="M2.16511 32.7445L1.08936 32.4882L1.96903 28.582L2.84245 28.7734C3.64839 30.0913 4.92572 31.053 6.41503 31.4632L6.12676 32.7484C4.77906 32.3288 3.60155 31.4879 2.76744 30.3492C2.49714 31.1648 2.41823 31.9452 2.16511 32.7445Z" fill="#D9D9D9"/>
<path d="M9.38463 17.2457C9.28932 17.7253 9.20964 18.1331 9.1237 18.5402C9.09554 18.6235 9.05917 18.7039 9.01512 18.78L8.15575 18.155C8.30386 17.8111 8.37467 17.4388 8.3632 17.0645C8.35172 16.6901 8.25825 16.3229 8.08936 15.9887L8.75887 15.0762L12.8268 18.0753L12.0268 19.18L9.38463 17.2457Z" fill="#D9D9D9"/>
<path d="M16.6822 13.8646L15.644 14.9763L12.2222 11.3779L13.2706 10.2842L16.6822 13.8646Z" fill="#D9D9D9"/>
<path d="M55.1378 8.5747L53.7769 7.92002L55.8979 3.42871L57.2721 4.06697L55.1378 8.5747Z" fill="#D9D9D9"/>
<path d="M8.0377 52.1592L8.63378 53.5474L4.06981 55.5193L3.47217 54.1326L8.0377 52.1592Z" fill="#D9D9D9"/>
<path d="M73.644 44.9074L73.8597 43.4473C75.5003 43.6449 77.1034 43.891 78.7643 44.141L78.562 45.6074C76.9042 45.4027 75.2932 45.166 73.644 44.9074Z" fill="#D9D9D9"/>
<path d="M61.3926 39.5056C61.4068 40.8001 61.1195 42.0802 60.5536 43.2445C59.828 44.6656 58.6075 45.7721 57.1224 46.3554C56.0434 46.7824 54.8993 47.0218 53.7397 47.0632C52.3887 47.1698 51.0297 47.023 49.7327 46.6304C48.4289 46.2855 47.2607 45.5522 46.3833 44.5279C45.506 43.5036 44.9608 42.2367 44.8203 40.8954C44.608 39.5544 44.6936 38.1832 45.0711 36.879C45.3512 35.8984 45.8577 34.9973 46.5497 34.2481C47.2417 33.499 48.1 32.9227 49.0554 32.5658C50.7181 31.9336 52.5094 31.7141 54.2756 31.926C55.2895 31.9944 56.2844 32.2348 57.2177 32.6369C58.304 33.0851 59.2506 33.8157 59.9594 34.753C60.6683 35.6902 61.1135 36.8 61.2489 37.9673C61.3262 38.4767 61.3473 38.9938 61.3926 39.5056ZM55.8841 39.5056C55.8388 38.8173 55.8162 38.1235 55.7396 37.4384C55.6829 36.6662 55.4736 35.9129 55.124 35.222C54.9344 34.8452 54.6407 34.5306 54.2778 34.3156C53.9149 34.1006 53.498 33.9941 53.0764 34.0088C52.6468 33.9873 52.2201 34.0897 51.8471 34.3037C51.474 34.5176 51.1702 34.8342 50.9717 35.2158C50.6873 35.758 50.5021 36.3467 50.4249 36.954C50.1989 38.4507 50.1726 39.9707 50.3467 41.4743C50.4001 42.1648 50.5653 42.8421 50.8358 43.4797C51.0175 43.9047 51.3178 44.2683 51.7008 44.527C52.0838 44.7857 52.5333 44.9286 52.9954 44.9385C53.4575 44.9484 53.9126 44.8249 54.3063 44.5828C54.7001 44.3407 55.0157 43.9903 55.2154 43.5734C55.3651 43.2531 55.4808 42.9179 55.5607 42.5735C55.7788 41.5652 55.8886 40.5364 55.888 39.5048L55.8841 39.5056Z" fill="#D9D9D9"/>
<path d="M40.3524 37.1676C40.2571 36.9035 40.1837 36.691 40.1063 36.4809C39.8865 35.8347 39.4772 35.2698 38.9316 34.8597C38.386 34.4495 37.7296 34.2133 37.0478 34.1817C36.4887 34.0958 35.9179 34.1266 35.3713 34.2723C35.0123 34.3752 34.6882 34.5739 34.4338 34.8473C34.3073 34.9517 34.2091 35.0863 34.1483 35.2386C34.0874 35.3909 34.0658 35.5561 34.0855 35.7189C34.1052 35.8817 34.1655 36.037 34.2609 36.1704C34.3563 36.3039 34.4837 36.4111 34.6314 36.4824C35.0189 36.7109 35.4361 36.8844 35.8713 36.998C36.7853 37.2488 37.7197 37.4308 38.6368 37.6769C39.7028 37.9343 40.7211 38.3591 41.654 38.9355C42.1485 39.2429 42.563 39.6633 42.8633 40.1622C43.1636 40.661 43.3411 41.2241 43.3813 41.805C43.4656 42.3964 43.4268 42.999 43.2674 43.5747C43.108 44.1505 42.8313 44.6872 42.4547 45.151C41.8766 45.8299 41.1244 46.3384 40.279 46.6221C39.1483 47.0024 37.9533 47.1543 36.7634 47.0689C35.3617 46.9925 33.9892 46.6377 32.726 46.0252C32.6713 45.9994 32.6096 45.983 32.5151 45.9471L31.9768 46.7041H30.0776V41.4534C30.4056 41.4035 30.7381 41.3898 31.069 41.4128C31.3901 41.405 31.7104 41.4128 32.0721 41.4128C32.1385 41.5862 32.1971 41.7479 32.2635 41.9073C32.534 42.6625 32.9981 43.3333 33.6095 43.8526C34.2209 44.3718 34.9581 44.7212 35.7471 44.8658C36.3142 44.9964 36.9049 44.9835 37.4658 44.8284C37.7732 44.738 38.0612 44.5912 38.315 44.3955C38.457 44.2944 38.5728 44.1608 38.6528 44.0058C38.7327 43.8508 38.7744 43.6789 38.7744 43.5045C38.7744 43.3302 38.7327 43.1583 38.6528 43.0033C38.5728 42.8483 38.457 42.7147 38.315 42.6135C37.9012 42.3087 37.443 42.0695 36.9564 41.9042C36.0189 41.5769 35.0447 41.337 34.0955 41.0339C33.4323 40.8347 32.7804 40.6 32.1424 40.3308C31.5503 40.1077 31.0235 39.7398 30.6102 39.2607C30.197 38.7815 29.9104 38.2064 29.7768 37.5879C29.5456 36.6044 29.6588 35.5714 30.0976 34.6613C30.5364 33.7513 31.2742 33.0194 32.1878 32.588C33.0225 32.1621 33.9396 31.9222 34.876 31.8849C36.651 31.754 38.4301 32.0766 40.0462 32.8223C40.1048 32.8497 40.1657 32.8692 40.2712 32.9098L40.6618 32.252H42.661V37.1527C42.2899 37.1527 41.911 37.1621 41.5336 37.1637C41.1563 37.1652 40.7634 37.1676 40.3524 37.1676Z" fill="#D9D9D9"/>
<path d="M28.3712 44.6476V46.6226H19.9253V44.6476C20.1862 44.6476 20.4409 44.6523 20.6917 44.6476C20.8686 44.6476 21.0453 44.633 21.2198 44.6039C21.3498 44.591 21.4715 44.5339 21.5646 44.4423C21.6577 44.3506 21.7166 44.2298 21.7315 44.1C21.772 43.8953 21.7981 43.688 21.8096 43.4797C21.8143 40.8063 21.8143 38.1324 21.8096 35.4579C21.8096 34.5119 21.5831 34.2962 20.6378 34.2798C20.4143 34.2798 20.1893 34.2798 19.93 34.2798V32.3135H28.3173C28.4276 32.9523 28.4369 33.6045 28.3447 34.2463C28.2283 34.258 28.1048 34.272 27.9798 34.2806C27.8548 34.2892 27.722 34.2806 27.5892 34.2806C26.7298 34.3111 26.5228 34.4962 26.5228 35.347C26.5145 38.085 26.5145 40.8229 26.5228 43.5609C26.5228 44.439 26.7322 44.6289 27.6165 44.6445C27.8548 44.6515 28.0892 44.6476 28.3712 44.6476Z" fill="#D9D9D9"/>
</g>
<defs>
<clipPath id="clip0_1_4547">
<rect width="78.5047" height="80" fill="white" transform="translate(0.589355)"/>
</clipPath>
</defs>
</svg>
