<svg width="20" height="21" viewBox="0 0 20 21" fill="none" xmlns="http://www.w3.org/2000/svg">
<path d="M15.0279 20.03C13.9866 20.03 13.0552 19.7587 12.2339 19.216L12.1899 19.194C10.0926 17.786 8.14191 16.18 6.33791 14.376C4.53391 12.572 2.91324 10.6067 1.47591 8.48003L1.45391 8.43603C0.793906 7.3947 0.529906 6.2727 0.661906 5.07003C0.73524 4.48336 0.90024 3.92236 1.15691 3.38703C1.41357 2.8517 1.74724 2.3787 2.15791 1.96803L2.77391 1.35203C2.99391 1.13203 3.24691 0.963364 3.53291 0.846029C3.81891 0.728697 4.11591 0.670029 4.42391 0.670029C5.05457 0.670029 5.59724 0.897364 6.05191 1.35203L8.60391 3.90403C8.82391 4.12403 8.99257 4.3807 9.10991 4.67403C9.22724 4.96736 9.28591 5.26436 9.28591 5.56503C9.28591 5.8657 9.23091 6.15536 9.12091 6.43403C9.01091 6.7127 8.83857 6.96936 8.60391 7.20403C8.50124 7.29203 8.44991 7.42036 8.44991 7.58903C8.44991 7.7577 8.50124 7.89336 8.60391 7.99603L12.6959 12.066C12.7839 12.1834 12.9159 12.242 13.0919 12.242C13.1212 12.242 13.1799 12.2347 13.2679 12.22L13.3119 12.198L13.4879 12.066C13.6932 11.8607 13.9462 11.6957 14.2469 11.571C14.5476 11.4464 14.8409 11.384 15.1269 11.384C15.4129 11.384 15.7062 11.4464 16.0069 11.571C16.3076 11.6957 16.5606 11.8607 16.7659 12.066L19.3179 14.618C19.5379 14.838 19.7066 15.0947 19.8239 15.388C19.9412 15.6814 19.9999 15.971 19.9999 16.257C19.9999 16.543 19.9412 16.8364 19.8239 17.137C19.7066 17.4377 19.5379 17.6907 19.3179 17.896L18.7239 18.512C18.2106 19.0254 17.6459 19.3994 17.0299 19.634C16.3992 19.898 15.7319 20.03 15.0279 20.03ZM13.2019 17.742C13.7592 18.094 14.3679 18.27 15.0279 18.27C15.4972 18.27 15.9409 18.1857 16.3589 18.017C16.7769 17.8484 17.1472 17.5954 17.4699 17.258L18.0859 16.664C18.1886 16.532 18.2399 16.3927 18.2399 16.246C18.2399 16.0994 18.1886 15.9747 18.0859 15.872L15.5339 13.32C15.4752 13.2467 15.4056 13.199 15.3249 13.177C15.2442 13.155 15.1782 13.144 15.1269 13.144C15.0756 13.144 15.0132 13.155 14.9399 13.177C14.8666 13.199 14.7932 13.2467 14.7199 13.32C14.5146 13.5254 14.2616 13.6904 13.9609 13.815C13.6602 13.9397 13.3669 14.002 13.0809 14.002C12.7949 14.002 12.4979 13.9434 12.1899 13.826C11.9406 13.7087 11.6912 13.54 11.4419 13.32L7.37191 9.22803C6.91724 8.77336 6.68991 8.2307 6.68991 7.60003C6.68991 7.29203 6.74857 6.99503 6.86591 6.70903C6.98324 6.42303 7.15191 6.17003 7.37191 5.95003C7.47457 5.81803 7.52591 5.68603 7.52591 5.55403C7.52591 5.42203 7.47457 5.29003 7.37191 5.15803L4.81991 2.60603C4.70257 2.4887 4.56324 2.43003 4.40191 2.43003C4.24057 2.43003 4.11591 2.4887 4.02791 2.60603L3.41191 3.20003C3.13324 3.4787 2.90957 3.7977 2.74091 4.15703C2.57224 4.51636 2.46591 4.8867 2.42191 5.26803C2.37791 5.64936 2.40357 6.0307 2.49891 6.41203C2.59424 6.79336 2.74457 7.1527 2.94991 7.49003V7.51203C4.31391 9.52136 5.85757 11.3877 7.58091 13.111C9.30424 14.8344 11.1706 16.378 13.1799 17.742H13.2019Z" fill="#D9D9D9"/>
</svg>
