<svg width="20" height="16" viewBox="0 0 20 16" fill="none" xmlns="http://www.w3.org/2000/svg">
<path d="M16.9089 15.6299H3.70891C3.29824 15.6299 2.90224 15.5529 2.52091 15.3989C2.13957 15.2449 1.80591 15.0212 1.51991 14.7279C1.23391 14.4345 1.01391 14.1009 0.859906 13.7269C0.705906 13.3529 0.628906 12.9605 0.628906 12.5499V3.74988C0.628906 3.51522 0.716906 3.30988 0.892906 3.13388C1.06891 2.95788 1.27424 2.86988 1.50891 2.86988C1.74357 2.86988 1.94891 2.95788 2.12491 3.13388C2.30091 3.30988 2.38891 3.51522 2.38891 3.74988V12.5499C2.38891 12.9312 2.51724 13.2465 2.77391 13.4959C3.03057 13.7452 3.34224 13.8699 3.70891 13.8699H16.9089C17.2756 13.8699 17.5872 13.7452 17.8439 13.4959C18.1006 13.2465 18.2289 12.9312 18.2289 12.5499V3.74988C18.2289 3.51522 18.3169 3.30988 18.4929 3.13388C18.6689 2.95788 18.8742 2.86988 19.1089 2.86988C19.3436 2.86988 19.5489 2.95788 19.7249 3.13388C19.9009 3.30988 19.9889 3.51522 19.9889 3.74988V12.5499C19.9889 12.9605 19.9119 13.3529 19.7579 13.7269C19.6039 14.1009 19.3839 14.4345 19.0979 14.7279C18.8119 15.0212 18.4782 15.2449 18.0969 15.3989C17.7156 15.5529 17.3196 15.6299 16.9089 15.6299ZM3.70891 0.669883H16.9089C17.3196 0.669883 17.7119 0.746882 18.0859 0.900883C18.4599 1.05488 18.7936 1.27855 19.0869 1.57188C19.3802 1.86522 19.6039 2.19888 19.7579 2.57288C19.9119 2.94688 19.9889 3.33922 19.9889 3.74988C19.9889 3.89655 19.9522 4.03955 19.8789 4.17888C19.8056 4.31822 19.7029 4.42455 19.5709 4.49788L11.9369 9.27188C11.4529 9.57988 10.9102 9.73388 10.3089 9.73388C9.70757 9.73388 9.16491 9.57988 8.68091 9.27188L1.04691 4.49788C0.914906 4.42455 0.81224 4.31822 0.738906 4.17888C0.665573 4.03955 0.628906 3.89655 0.628906 3.74988C0.628906 3.33922 0.705906 2.94688 0.859906 2.57288C1.01391 2.19888 1.23757 1.86522 1.53091 1.57188C1.82424 1.27855 2.15791 1.05488 2.53191 0.900883C2.90591 0.746882 3.29824 0.669883 3.70891 0.669883ZM18.1629 3.30988C18.0749 3.07522 17.9136 2.86988 17.6789 2.69388C17.4442 2.51788 17.1876 2.42988 16.9089 2.42988H3.70891C3.44491 2.42988 3.18824 2.51055 2.93891 2.67188C2.73357 2.83322 2.57224 3.04588 2.45491 3.30988L9.60491 7.77588C9.82491 7.90788 10.0596 7.97388 10.3089 7.97388C10.5582 7.97388 10.7929 7.90788 11.0129 7.77588L18.1629 3.30988Z" fill="#D9D9D9"/>
</svg>
